<svg width="83" height="87" viewBox="0 0 83 87" fill="none" xmlns="http://www.w3.org/2000/svg">
<path d="M47.9283 6.09097L48.1096 22.1042L55.6755 33.1992L78.1376 31.2021L47.9283 6.09097Z" fill="url(#paint0_linear)"/>
<path d="M25.2737 12.7964L34.5073 23.9276L48.1098 22.1042L47.9285 6.09093L25.2737 12.7964Z" fill="url(#paint1_linear)"/>
<path d="M26.7851 36.3533L6.09093 38.9638L25.2741 12.7969L34.5077 23.9281L26.7851 36.3533Z" fill="url(#paint2_linear)"/>
<path d="M42.0731 64.5383L41.9954 46.8701L55.6754 33.1991L78.1375 31.2021L42.0731 64.5383Z" fill="url(#paint3_linear)"/>
<path d="M6.09033 38.9631L26.7845 36.3526L41.9955 46.8699L42.0732 64.5382L6.09033 38.9631Z" fill="url(#paint4_linear)"/>
<path d="M34.3161 23.6474L26.7847 36.3529L41.9957 46.8702L55.6757 33.1992L47.9186 21.8239L34.3161 23.6474Z" fill="url(#paint5_linear)"/>
<path d="M26.7845 36.3528L34.5072 23.9277L48.1097 22.1042L55.6755 33.1992L48.1242 20.9207L33.8408 23.2086L26.7845 36.3528Z" fill="white"/>
<path opacity="0.34" d="M36.0111 23.7238L32.2707 40.1815L40.6683 45.9563L45.4916 22.4814L36.0111 23.7238Z" fill="url(#paint6_linear)"/>
<path opacity="0.09" d="M20.6602 19.1109L16.4574 37.6443L24.9183 36.6277L29.5107 18.0633L25.0751 13.1076L20.6602 19.1109Z" fill="url(#paint7_linear)"/>
<path opacity="0.34" d="M43.6434 44.9837L48.1098 22.1042L55.4845 32.9188L43.6434 44.9837Z" fill="url(#paint8_linear)"/>
<path opacity="0.46" d="M48.0457 15.9866L47.9284 6.09093L78.1378 31.2021L74.2688 31.5519L75.1153 30.2118L50.4613 9.1168L48.5677 9.3518L48.0457 15.9866Z" fill="url(#paint9_linear)"/>
<path opacity="0.11" d="M42.5796 64.0758L74.2689 31.5519L78.1379 31.202L42.5796 64.0758Z" fill="url(#paint10_linear)"/>
<path opacity="0.11" d="M8.49426 38.6159L6.09093 38.9638L25.2741 12.7969L8.49426 38.6159Z" fill="url(#paint11_linear)"/>
<path opacity="0.11" d="M42.0732 64.5382L8.49366 38.6152L6.09033 38.9631L42.0732 64.5382Z" fill="url(#paint12_linear)"/>
<path opacity="0.29" d="M42.0619 59.6168L40.8777 47.9842L26.3731 38.1588L6.09033 38.9631L26.7845 36.3526L41.9955 46.8699L42.0619 59.6168Z" fill="#0C7FB0"/>
<path d="M25.2091 47.9227C24.7688 48.09 22.6112 62.7864 22.7159 63.062C22.8206 63.3377 40.224 58.7543 40.0296 58.2424C39.8752 57.7154 25.6494 47.7555 25.2091 47.9227Z" fill="url(#paint13_linear)"/>
<path d="M20.6299 38.0383L24.4301 46.9574L40.0247 58.1094L48.954 60.0339L20.6299 38.0383Z" fill="url(#paint14_linear)"/>
<path d="M22.7166 63.0621L24.9305 47.308L20.6306 38.0381L12.835 71.4113L22.7166 63.0621Z" fill="url(#paint15_linear)"/>
<path d="M40.0243 58.1092L48.9536 60.0338L12.8339 71.4114L22.7154 63.0622L40.0243 58.1092Z" fill="url(#paint16_linear)"/>
<path opacity="0.34" d="M28.1516 50.3644L23.0587 60.589L22.7157 63.0621L28.4186 61.4365L32.9543 53.0004L28.1516 50.3644Z" fill="url(#paint17_linear)"/>
<path opacity="0.46" d="M24.4511 46.0483L22.6115 41.2054L22.9475 40.4019L45.9405 58.2501L45.9142 59.3864L40.0247 58.1094L48.954 60.0339L20.6299 38.0383L24.6605 46.5995L24.4511 46.0483Z" fill="url(#paint18_linear)"/>
<path opacity="0.11" d="M45.9142 59.3862L22.3295 68.4352L48.954 60.0337L45.9142 59.3862Z" fill="url(#paint19_linear)"/>
<path d="M23.4019 58.116L25.5783 48.7739L40.0248 58.1093L24.9299 47.3082L23.4019 58.116Z" fill="white"/>
<path opacity="0.29" d="M12.835 71.4113L21.7265 62.9876L23.9299 47.6881L20.6306 38.0381L24.9305 47.308L22.7166 63.0621L12.835 71.4113Z" fill="#0C7FB0"/>
<path d="M45.4917 36.6803L45.2161 59.9462L50.9172 70.5712L64.3052 60.482L45.4917 36.6803Z" fill="url(#paint20_linear)"/>
<path d="M45.5183 36.6877L64.3582 60.4968L72.9853 47.1416L45.5183 36.6877Z" fill="url(#paint21_linear)"/>
<path d="M47.2333 80.2033L50.9702 70.586L64.3582 60.4967L72.5994 73.2553L47.2333 80.2033Z" fill="url(#paint22_linear)"/>
<path d="M32.5782 63.9744L45.2427 59.9537L45.5184 36.6878L32.5782 63.9744Z" fill="url(#paint23_linear)"/>
<path d="M72.5993 73.2552L64.3581 60.4966L72.9852 47.1414L72.5993 73.2552Z" fill="url(#paint24_linear)"/>
<path d="M32.5782 63.9743L45.2427 59.9536L50.9703 70.586L47.2334 80.2034L32.5782 63.9743Z" fill="url(#paint25_linear)"/>
<path opacity="0.34" d="M61.1955 56.508L48.0852 65.1926L50.9173 70.5713L64.3053 60.482L61.1955 56.508Z" fill="url(#paint26_linear)"/>
<path opacity="0.34" d="M53.8589 47.2507L59.5029 54.8102L47.0131 63.2119L45.2163 59.9461L45.3521 50.9775L53.8589 47.2507Z" fill="url(#paint27_linear)"/>
<path d="M53.8589 47.2507L64.3054 60.4819L50.9703 70.5859L63.2741 60.1942L53.8589 47.2507Z" fill="white"/>
<path opacity="0.46" d="M71.4691 49.5117L72.4321 49.1248L71.6471 71.7641L72.5993 73.2552L72.9852 47.1414L71.4691 49.5117Z" fill="url(#paint28_linear)"/>
<path opacity="0.11" d="M71.6472 71.7641L47.2333 80.2032L72.5994 73.2552L71.6472 71.7641Z" fill="url(#paint29_linear)"/>
<path opacity="0.11" d="M47.2332 80.2034L34.0495 63.5012L32.578 63.9743L47.2332 80.2034Z" fill="url(#paint30_linear)"/>
<path opacity="0.11" d="M45.5184 36.6878L34.0497 63.5013L32.5782 63.9744L45.5184 36.6878Z" fill="url(#paint31_linear)"/>
<path d="M45.3223 52.8218L45.6074 59.7702L48.0853 65.1925L45.2164 59.9461L45.3223 52.8218Z" fill="white"/>
<path opacity="0.29" d="M32.5782 63.9744L45.2163 59.9463L45.5184 36.6878L43.6848 58.6926L32.5782 63.9744Z" fill="#0C7FB0"/>
<path opacity="0.29" d="M64.3053 60.482L51.9117 70.9911L47.2333 80.2033L50.9702 70.586L64.3053 60.482Z" fill="#0C7FB0"/>
<g style="mix-blend-mode:screen">
<path d="M82.9995 48.5317C81.0711 48.5317 79.4995 46.9601 79.4995 45.0317C79.4995 46.9601 77.9375 48.5317 75.9995 48.5317C77.9279 48.5317 79.4995 50.1034 79.4995 52.0317C79.5092 50.0937 81.0711 48.5317 82.9995 48.5317Z" fill="url(#paint32_radial)"/>
</g>
<g style="mix-blend-mode:screen">
<path d="M26.2017 26.5319C24.2733 26.5319 22.7017 24.9602 22.7017 23.0319C22.7017 24.9602 21.1397 26.5319 19.2017 26.5319C21.13 26.5319 22.7017 28.1035 22.7017 30.0319C22.7113 28.0938 24.2733 26.5319 26.2017 26.5319Z" fill="url(#paint33_radial)"/>
</g>
<g style="mix-blend-mode:screen">
<path d="M45.2017 68.0317C44.0997 68.0317 43.2017 67.1337 43.2017 66.0317C43.2017 67.1337 42.3091 68.0317 41.2017 68.0317C42.3036 68.0317 43.2017 68.9298 43.2017 70.0317C43.2072 68.9243 44.0997 68.0317 45.2017 68.0317Z" fill="url(#paint34_radial)"/>
</g>
<defs>
<linearGradient id="paint0_linear" x1="54.8584" y1="21.9839" x2="65.2545" y2="29.9926" gradientUnits="userSpaceOnUse">
<stop stop-color="white"/>
<stop offset="1" stop-color="#75BCE9"/>
</linearGradient>
<linearGradient id="paint1_linear" x1="51.25" y1="14.5305" x2="26.6114" y2="15.6706" gradientUnits="userSpaceOnUse">
<stop stop-color="#74BAE8"/>
<stop offset="0.2151" stop-color="#66A7DC"/>
<stop offset="0.6724" stop-color="#4A78BC"/>
<stop offset="1" stop-color="#3C55A2"/>
</linearGradient>
<linearGradient id="paint2_linear" x1="17.9047" y1="40.1214" x2="24.7738" y2="15.2346" gradientUnits="userSpaceOnUse">
<stop stop-color="#213A8B"/>
<stop offset="0.2308" stop-color="#25408F"/>
<stop offset="0.6225" stop-color="#2C519D"/>
<stop offset="1" stop-color="#3666AF"/>
</linearGradient>
<linearGradient id="paint3_linear" x1="45.7027" y1="61.7516" x2="63.9343" y2="32.9669" gradientUnits="userSpaceOnUse">
<stop stop-color="#213A8B"/>
<stop offset="0.2308" stop-color="#25408F"/>
<stop offset="0.6225" stop-color="#2C519D"/>
<stop offset="1" stop-color="#3666AF"/>
</linearGradient>
<linearGradient id="paint4_linear" x1="42.3567" y1="55.2725" x2="6.25947" y2="33.3548" gradientUnits="userSpaceOnUse">
<stop stop-color="#74BAE8"/>
<stop offset="0.2151" stop-color="#66A7DC"/>
<stop offset="0.6724" stop-color="#4A78BC"/>
<stop offset="1" stop-color="#3C55A2"/>
</linearGradient>
<linearGradient id="paint5_linear" x1="33.6299" y1="41.6421" x2="46.9008" y2="26.2084" gradientUnits="userSpaceOnUse">
<stop stop-color="#6D99D1"/>
<stop offset="1" stop-color="#AEDAD6"/>
</linearGradient>
<linearGradient id="paint6_linear" x1="37.6594" y1="41.7822" x2="39.6004" y2="25.213" gradientUnits="userSpaceOnUse">
<stop offset="0.027451" stop-color="#3E66AE"/>
<stop offset="1" stop-color="#D2D9F0"/>
</linearGradient>
<linearGradient id="paint7_linear" x1="22.2328" y1="34.2872" x2="24.2943" y2="16.6903" gradientUnits="userSpaceOnUse">
<stop stop-color="#E8396E"/>
<stop offset="1" stop-color="#E28BAE"/>
</linearGradient>
<linearGradient id="paint8_linear" x1="49.218" y1="41.9067" x2="51.1041" y2="25.8068" gradientUnits="userSpaceOnUse">
<stop offset="0.027451" stop-color="#3E66AE"/>
<stop offset="1" stop-color="#D2D9F0"/>
</linearGradient>
<linearGradient id="paint9_linear" x1="61.1319" y1="19.8761" x2="66.6378" y2="23.5847" gradientUnits="userSpaceOnUse">
<stop stop-color="white"/>
<stop offset="1" stop-color="#E2B1AE"/>
</linearGradient>
<linearGradient id="paint10_linear" x1="60.1449" y1="47.5021" x2="61.716" y2="48.5604" gradientUnits="userSpaceOnUse">
<stop stop-color="white"/>
<stop offset="1" stop-color="#E2B1AE"/>
</linearGradient>
<linearGradient id="paint11_linear" x1="3.34193" y1="34.9325" x2="28.6266" y2="17.6904" gradientUnits="userSpaceOnUse">
<stop stop-color="white"/>
<stop offset="1" stop-color="#E2B1AE"/>
</linearGradient>
<linearGradient id="paint12_linear" x1="17.7486" y1="56.0594" x2="30.3909" y2="47.4384" gradientUnits="userSpaceOnUse">
<stop stop-color="white"/>
<stop offset="1" stop-color="#E2B1AE"/>
</linearGradient>
<linearGradient id="paint13_linear" x1="28.9724" y1="62.7517" x2="32.5313" y2="52.8163" gradientUnits="userSpaceOnUse">
<stop stop-color="#6D99D1"/>
<stop offset="1" stop-color="#AEDAD6"/>
</linearGradient>
<linearGradient id="paint14_linear" x1="29.6958" y1="45.0423" x2="41.2816" y2="59.3362" gradientUnits="userSpaceOnUse">
<stop stop-color="white"/>
<stop offset="1" stop-color="#75BCE9"/>
</linearGradient>
<linearGradient id="paint15_linear" x1="16.891" y1="71.5409" x2="20.6149" y2="52.1044" gradientUnits="userSpaceOnUse">
<stop stop-color="#74BAE8"/>
<stop offset="0.2151" stop-color="#66A7DC"/>
<stop offset="0.6724" stop-color="#4A78BC"/>
<stop offset="1" stop-color="#3C55A2"/>
</linearGradient>
<linearGradient id="paint16_linear" x1="29.1743" y1="63.6528" x2="33.8715" y2="69.448" gradientUnits="userSpaceOnUse">
<stop stop-color="#213A8B"/>
<stop offset="0.2308" stop-color="#25408F"/>
<stop offset="0.6225" stop-color="#2C519D"/>
<stop offset="1" stop-color="#3666AF"/>
</linearGradient>
<linearGradient id="paint17_linear" x1="26.0796" y1="61.9404" x2="29.3185" y2="52.8985" gradientUnits="userSpaceOnUse">
<stop offset="0.027451" stop-color="#3E66AE"/>
<stop offset="1" stop-color="#D2D9F0"/>
</linearGradient>
<linearGradient id="paint18_linear" x1="36.2119" y1="52.7636" x2="44.9942" y2="61.3819" gradientUnits="userSpaceOnUse">
<stop stop-color="white"/>
<stop offset="1" stop-color="#E2B1AE"/>
</linearGradient>
<linearGradient id="paint19_linear" x1="22.5914" y1="69.139" x2="48.6391" y2="59.2446" gradientUnits="userSpaceOnUse">
<stop stop-color="white"/>
<stop offset="1" stop-color="#E2B1AE"/>
</linearGradient>
<linearGradient id="paint20_linear" x1="42.9817" y1="57.4063" x2="57.7318" y2="46.7136" gradientUnits="userSpaceOnUse">
<stop stop-color="#6D99D1"/>
<stop offset="1" stop-color="#AEDAD6"/>
</linearGradient>
<linearGradient id="paint21_linear" x1="67.6003" y1="52.6565" x2="48.279" y2="31.6688" gradientUnits="userSpaceOnUse">
<stop stop-color="#74BAE8"/>
<stop offset="0.2151" stop-color="#66A7DC"/>
<stop offset="0.6724" stop-color="#4A78BC"/>
<stop offset="1" stop-color="#3C55A2"/>
</linearGradient>
<linearGradient id="paint22_linear" x1="66.94" y1="67.3758" x2="42.0379" y2="75.4784" gradientUnits="userSpaceOnUse">
<stop stop-color="#74BAE8"/>
<stop offset="0.2151" stop-color="#66A7DC"/>
<stop offset="0.6724" stop-color="#4A78BC"/>
<stop offset="1" stop-color="#3C55A2"/>
</linearGradient>
<linearGradient id="paint23_linear" x1="37.0789" y1="43.5349" x2="43.6186" y2="66.0962" gradientUnits="userSpaceOnUse">
<stop stop-color="#74BAE8"/>
<stop offset="0.2151" stop-color="#66A7DC"/>
<stop offset="0.6724" stop-color="#4A78BC"/>
<stop offset="1" stop-color="#3C55A2"/>
</linearGradient>
<linearGradient id="paint24_linear" x1="69.1853" y1="54.7995" x2="68.3294" y2="69.3327" gradientUnits="userSpaceOnUse">
<stop stop-color="white"/>
<stop offset="1" stop-color="#75BCE9"/>
</linearGradient>
<linearGradient id="paint25_linear" x1="31.6338" y1="60.2382" x2="51.0706" y2="73.3389" gradientUnits="userSpaceOnUse">
<stop stop-color="#213A8B"/>
<stop offset="0.2308" stop-color="#25408F"/>
<stop offset="0.6225" stop-color="#2C519D"/>
<stop offset="1" stop-color="#3666AF"/>
</linearGradient>
<linearGradient id="paint26_linear" x1="51.1112" y1="65.5856" x2="61.9593" y2="61.0995" gradientUnits="userSpaceOnUse">
<stop offset="0.027451" stop-color="#3E66AE"/>
<stop offset="1" stop-color="#D2D9F0"/>
</linearGradient>
<linearGradient id="paint27_linear" x1="46.5228" y1="56.8447" x2="56.3165" y2="52.7946" gradientUnits="userSpaceOnUse">
<stop offset="0.027451" stop-color="#3E66AE"/>
<stop offset="1" stop-color="#D2D9F0"/>
</linearGradient>
<linearGradient id="paint28_linear" x1="71.9876" y1="63.0459" x2="71.75" y2="73.3255" gradientUnits="userSpaceOnUse">
<stop stop-color="white"/>
<stop offset="1" stop-color="#E2B1AE"/>
</linearGradient>
<linearGradient id="paint29_linear" x1="59.9101" y1="76.9915" x2="59.8282" y2="80.5337" gradientUnits="userSpaceOnUse">
<stop stop-color="white"/>
<stop offset="1" stop-color="#E2B1AE"/>
</linearGradient>
<linearGradient id="paint30_linear" x1="39.8726" y1="73.6428" x2="39.7235" y2="80.0969" gradientUnits="userSpaceOnUse">
<stop stop-color="white"/>
<stop offset="1" stop-color="#E2B1AE"/>
</linearGradient>
<linearGradient id="paint31_linear" x1="38.98" y1="53.3645" x2="38.729" y2="64.2263" gradientUnits="userSpaceOnUse">
<stop stop-color="white"/>
<stop offset="1" stop-color="#E2B1AE"/>
</linearGradient>
<radialGradient id="paint32_radial" cx="0" cy="0" r="1" gradientUnits="userSpaceOnUse" gradientTransform="translate(79.4995 48.5317) rotate(117.44) scale(7.59523)">
<stop stop-color="#DEEDF9"/>
<stop offset="1" stop-color="#DEEDF9" stop-opacity="0"/>
</radialGradient>
<radialGradient id="paint33_radial" cx="0" cy="0" r="1" gradientUnits="userSpaceOnUse" gradientTransform="translate(22.7017 26.5319) rotate(117.44) scale(7.59523)">
<stop stop-color="#DEEDF9"/>
<stop offset="1" stop-color="#DEEDF9" stop-opacity="0"/>
</radialGradient>
<radialGradient id="paint34_radial" cx="0" cy="0" r="1" gradientUnits="userSpaceOnUse" gradientTransform="translate(43.2017 68.0317) rotate(117.44) scale(4.34013)">
<stop stop-color="#DEEDF9"/>
<stop offset="1" stop-color="#DEEDF9" stop-opacity="0"/>
</radialGradient>
</defs>
</svg>
