<svg width="110" height="104" viewBox="0 0 110 104" fill="none" xmlns="http://www.w3.org/2000/svg">
<path d="M45.8822 8.73442L51.6413 23.326L62.4407 30.8372L82.2999 21.164L45.8822 8.73442Z" fill="url(#paint0_linear)"/>
<path d="M27.4912 22.7841L39.8296 29.746L51.6413 23.3261L45.8822 8.7345L27.4912 22.7841Z" fill="url(#paint1_linear)"/>
<path d="M37.1019 43.8146L19.0749 53.4317L27.4913 22.7841L39.8296 29.746L37.1019 43.8146Z" fill="url(#paint2_linear)"/>
<path d="M60.9384 64.2692L54.6961 48.1268L62.4406 30.8373L82.2999 21.1641L60.9384 64.2692Z" fill="url(#paint3_linear)"/>
<path d="M19.0747 53.4316L37.1017 43.8145L54.6959 48.1267L60.9382 64.2691L19.0747 53.4316Z" fill="url(#paint4_linear)"/>
<path d="M39.5566 29.556L37.1018 43.8144L54.6961 48.1266L62.4406 30.8372L51.3684 23.1361L39.5566 29.556Z" fill="url(#paint5_linear)"/>
<path d="M37.1018 43.8145L39.8295 29.7459L51.6413 23.326L62.4406 30.8373L51.2412 22.2379L38.9684 29.3206L37.1018 43.8145Z" fill="white"/>
<path opacity="0.34" d="M41.1346 29.0339L43.4599 45.4022L53.1621 47.754L49.3769 24.5856L41.1346 29.0339Z" fill="url(#paint6_linear)"/>
<path opacity="0.09" d="M25.4748 30.1743L28.1019 48.6036L35.49 44.7181L33.2087 26.1243L27.4184 23.1383L25.4748 30.1743Z" fill="url(#paint7_linear)"/>
<path opacity="0.34" d="M55.545 45.8249L51.6412 23.326L62.1677 30.6475L55.545 45.8249Z" fill="url(#paint8_linear)"/>
<path opacity="0.46" d="M49.4459 17.7498L45.8823 8.7345L82.3 21.1641L78.8813 22.8356L79.188 21.3135L49.2571 10.619L47.6063 11.4955L49.4459 17.7498Z" fill="url(#paint9_linear)"/>
<path opacity="0.11" d="M61.2401 63.6691L78.8813 22.8356L82.3 21.164L61.2401 63.6691Z" fill="url(#paint10_linear)"/>
<path opacity="0.11" d="M21.1529 52.2739L19.0749 53.4317L27.4913 22.7841L21.1529 52.2739Z" fill="url(#paint11_linear)"/>
<path opacity="0.11" d="M60.9382 64.2691L21.1527 52.2738L19.0747 53.4316L60.9382 64.2691Z" fill="url(#paint12_linear)"/>
<path opacity="0.29" d="M59.209 59.7691L54.0621 49.537L37.3561 45.6111L19.0747 53.4316L37.1017 43.8145L54.6959 48.1267L59.209 59.7691Z" fill="#0C7FB0"/>
<path d="M58.8884 31.8442L69.1314 60.0811L80.8498 70.3275L92.4399 52.0511L58.8884 31.8442Z" fill="url(#paint13_linear)"/>
<path d="M58.9238 31.8412L92.5106 52.0449L96.8635 31.9865L58.9238 31.8412Z" fill="url(#paint14_linear)"/>
<path d="M80.7771 83.6404L80.9205 70.3213L92.5106 52.0449L108.268 63.7145L80.7771 83.6404Z" fill="url(#paint15_linear)"/>
<path d="M55.6923 70.6932L69.1668 60.0781L58.9238 31.8413L55.6923 70.6932Z" fill="url(#paint16_linear)"/>
<path d="M108.268 63.7146L92.5107 52.045L96.8637 31.9866L108.268 63.7146Z" fill="url(#paint17_linear)"/>
<path d="M55.6924 70.693L69.1669 60.0779L80.9205 70.3212L80.7771 83.6403L55.6924 70.693Z" fill="url(#paint18_linear)"/>
<path opacity="0.34" d="M86.8758 48.6633L74.9828 65.1164L80.8498 70.3278L92.4398 52.0514L86.8758 48.6633Z" fill="url(#paint19_linear)"/>
<path opacity="0.34" d="M73.8031 40.8129L84.059 47.3812L72.787 63.2103L69.1315 60.0811L65.2186 49.1828L73.8031 40.8129Z" fill="url(#paint20_linear)"/>
<path d="M73.8032 40.8129L92.44 52.051L80.9205 70.3212L91.0631 52.1723L73.8032 40.8129Z" fill="white"/>
<path opacity="0.46" d="M96.1094 35.5396L97.097 34.6343L106.44 62.3456L108.268 63.7145L96.8638 31.9864L96.1094 35.5396Z" fill="url(#paint21_linear)"/>
<path opacity="0.11" d="M106.44 62.3458L80.7773 83.6406L108.268 63.7147L106.44 62.3458Z" fill="url(#paint22_linear)"/>
<path opacity="0.11" d="M80.7771 83.6404L57.2553 69.4525L55.6923 70.6931L80.7771 83.6404Z" fill="url(#paint23_linear)"/>
<path opacity="0.11" d="M58.9238 31.8413L57.2552 69.4526L55.6923 70.6932L58.9238 31.8413Z" fill="url(#paint24_linear)"/>
<path d="M66.021 51.4248L69.5241 59.6908L74.983 65.1161L69.1316 60.0811L66.021 51.4248Z" fill="white"/>
<path opacity="0.29" d="M55.6923 70.6932L69.1315 60.0813L58.9238 31.8413L66.7112 59.2626L55.6923 70.6932Z" fill="#0C7FB0"/>
<path opacity="0.29" d="M92.44 52.0511L82.2423 70.3828L80.7771 83.6404L80.9205 70.3213L92.44 52.0511Z" fill="#0C7FB0"/>
<path d="M33.8998 40.2253L36.5531 53.2252L44.1135 62.2042L61.0747 60.4979L33.8998 40.2253Z" fill="url(#paint25_linear)"/>
<path d="M17.5295 45.7549L26.3782 54.7571L36.5531 53.2252L33.8998 40.2252L17.5295 45.7549Z" fill="url(#paint26_linear)"/>
<path d="M22.3896 64.8739L6.88435 67.0716L17.5295 45.7549L26.3782 54.7571L22.3896 64.8739Z" fill="url(#paint27_linear)"/>
<path d="M38.5725 87.6991L35.7391 73.3551L44.1137 62.2043L61.0749 60.498L38.5725 87.6991Z" fill="url(#paint28_linear)"/>
<path d="M6.88452 67.0718L22.3898 64.8741L35.739 73.3551L38.5724 87.6992L6.88452 67.0718Z" fill="url(#paint29_linear)"/>
<path d="M26.1871 54.5302L22.3895 64.8739L35.7388 73.355L44.1134 62.2043L36.362 52.9983L26.1871 54.5302Z" fill="url(#paint30_linear)"/>
<path d="M22.3899 64.874L26.3785 54.7572L36.5534 53.2253L44.1137 62.2043L36.3787 52.2644L25.7531 54.1758L22.3899 64.874Z" fill="white"/>
<path opacity="0.34" d="M27.5028 54.5855L27.2098 67.9612L34.5746 72.6178L34.5988 53.541L27.5028 54.5855Z" fill="url(#paint31_linear)"/>
<path opacity="0.09" d="M14.9733 50.899L14.6506 65.9616L20.9979 65.1043L21.6154 50.0151L17.4261 46.0085L14.9733 50.899Z" fill="url(#paint32_linear)"/>
<path opacity="0.34" d="M36.7101 71.8174L36.5534 53.2254L43.9227 61.9775L36.7101 71.8174Z" fill="url(#paint33_linear)"/>
<path opacity="0.46" d="M35.5435 48.2589L33.8999 40.2254L61.0748 60.498L58.1542 60.7967L58.5949 59.7055L36.3228 42.6724L34.9035 42.8704L35.5435 48.2589Z" fill="url(#paint34_linear)"/>
<path opacity="0.11" d="M38.8889 87.3217L58.154 60.7966L61.0746 60.498L38.8889 87.3217Z" fill="url(#paint35_linear)"/>
<path opacity="0.11" d="M8.67803 66.78L6.88435 67.0716L17.5295 45.7549L8.67803 66.78Z" fill="url(#paint36_linear)"/>
<path opacity="0.11" d="M38.5724 87.6992L8.67821 66.7802L6.88452 67.0718L38.5724 87.6992Z" fill="url(#paint37_linear)"/>
<path opacity="0.29" d="M37.7912 83.7037L35.0543 74.2641L22.3569 66.342L6.88452 67.0718L22.3898 64.8741L35.739 73.3551L37.7912 83.7037Z" fill="#0C7FB0"/>
<path d="M81.9106 45.6086L52.4746 32.5592L72.5449 62.6852L86.9607 78.4456L81.9106 45.6086Z" fill="url(#paint38_linear)"/>
<path d="M65.2806 98.3306L64.3389 82.1975L72.3967 62.4334L86.9606 78.4454L66.1838 98.6184L65.2806 98.3306Z" fill="url(#paint39_linear)"/>
<path d="M66.1836 98.6185L64.3386 82.1976L46.3273 75.2472L36.8043 88.4853L66.1836 98.6185Z" fill="url(#paint40_linear)"/>
<path d="M46.3277 75.2473L64.3389 82.1977L72.3967 62.4336L52.4745 32.5592L46.3277 75.2473Z" fill="url(#paint41_linear)"/>
<path d="M36.8042 88.4855L46.3272 75.2473L30.197 53.4595L36.8042 88.4855Z" fill="url(#paint42_linear)"/>
<path d="M30.1975 53.4594L52.4745 32.5592L46.3276 75.2473L30.1975 53.4594Z" fill="url(#paint43_linear)"/>
<path d="M52.4746 32.5592L72.403 62.4673L64.339 82.1977L70.7896 62.7622L52.4746 32.5592Z" fill="white"/>
<path opacity="0.46" d="M81.0935 46.3502L85.6833 77.0416L86.9607 78.4456L81.9106 45.6086L52.4746 32.5592L81.0935 46.3502Z" fill="url(#paint44_linear)"/>
<path opacity="0.11" d="M66.1836 98.6186L86.9604 78.4456L85.6829 77.0416L66.1836 98.6186Z" fill="url(#paint45_linear)"/>
<path opacity="0.11" d="M66.1834 98.6186L37.8664 87.037L36.8041 88.4854L66.1834 98.6186Z" fill="url(#paint46_linear)"/>
<path opacity="0.11" d="M30.197 53.4595L37.8664 87.0371L36.8042 88.4855L30.197 53.4595Z" fill="url(#paint47_linear)"/>
<path d="M48.6245 59.1492L47.2329 74.803L52.4031 77.5858L46.3273 75.2473L48.6245 59.1492Z" fill="white"/>
<path opacity="0.34" d="M68.4053 58.8427L52.4029 77.5855L47.2326 74.8028L48.5705 59.7859L61.1451 46.861L68.4053 58.8427Z" fill="url(#paint48_linear)"/>
<path opacity="0.34" d="M55.6993 78.8645L70.1065 61.6327L70.7893 62.7621L64.3387 82.1976L55.6993 78.8645Z" fill="url(#paint49_linear)"/>
<path opacity="0.29" d="M72.5444 62.6852L65.8404 82.9683L66.1835 98.6186L64.3385 82.1977L72.5444 62.6852Z" fill="#0C7FB0"/>
<path opacity="0.29" d="M52.4747 32.5592L46.3278 75.2473L36.0228 61.3136L44.8907 71.2943L52.4747 32.5592Z" fill="#0C7FB0"/>
<g style="mix-blend-mode:screen">
<path d="M95.7979 36.5C93.8695 36.5 92.2979 34.9284 92.2979 33C92.2979 34.9284 90.7359 36.5 88.7979 36.5C90.7262 36.5 92.2979 38.0716 92.2979 40C92.3075 38.062 93.8695 36.5 95.7979 36.5Z" fill="url(#paint50_radial)"/>
</g>
<g style="mix-blend-mode:screen">
<path d="M33.7979 33C31.043 33 28.7979 30.7548 28.7979 28C28.7979 30.7548 26.5664 33 23.7979 33C26.5527 33 28.7979 35.2452 28.7979 38C28.8116 35.2314 31.043 33 33.7979 33Z" fill="url(#paint51_radial)"/>
</g>
<g style="mix-blend-mode:screen">
<path d="M98.7979 71C97.6959 71 96.7979 70.1019 96.7979 69C96.7979 70.1019 95.9053 71 94.7979 71C95.8998 71 96.7979 71.8981 96.7979 73C96.8034 71.8926 97.6959 71 98.7979 71Z" fill="url(#paint52_radial)"/>
</g>
<defs>
<linearGradient id="paint0_linear" x1="57.7756" y1="20.8587" x2="70.0871" y2="24.5569" gradientUnits="userSpaceOnUse">
<stop stop-color="white"/>
<stop offset="1" stop-color="#75BCE9"/>
</linearGradient>
<linearGradient id="paint1_linear" x1="51.8698" y1="15.2981" x2="29.7193" y2="24.9473" gradientUnits="userSpaceOnUse">
<stop stop-color="#74BAE8"/>
<stop offset="0.2151" stop-color="#66A7DC"/>
<stop offset="0.6724" stop-color="#4A78BC"/>
<stop offset="1" stop-color="#3C55A2"/>
</linearGradient>
<linearGradient id="paint2_linear" x1="30.291" y1="50.3648" x2="27.8848" y2="25.1897" gradientUnits="userSpaceOnUse">
<stop stop-color="#213A8B"/>
<stop offset="0.2308" stop-color="#25408F"/>
<stop offset="0.6225" stop-color="#2C519D"/>
<stop offset="1" stop-color="#3666AF"/>
</linearGradient>
<linearGradient id="paint3_linear" x1="63.2867" y1="60.4512" x2="69.9178" y2="27.7401" gradientUnits="userSpaceOnUse">
<stop stop-color="#213A8B"/>
<stop offset="0.2308" stop-color="#25408F"/>
<stop offset="0.6225" stop-color="#2C519D"/>
<stop offset="1" stop-color="#3666AF"/>
</linearGradient>
<linearGradient id="paint4_linear" x1="57.9613" y1="55.6904" x2="17.2706" y2="48.2399" gradientUnits="userSpaceOnUse">
<stop stop-color="#74BAE8"/>
<stop offset="0.2151" stop-color="#66A7DC"/>
<stop offset="0.6724" stop-color="#4A78BC"/>
<stop offset="1" stop-color="#3C55A2"/>
</linearGradient>
<linearGradient id="paint5_linear" x1="45.2139" y1="46.2641" x2="51.9683" y2="27.5042" gradientUnits="userSpaceOnUse">
<stop stop-color="#6D99D1"/>
<stop offset="1" stop-color="#AEDAD6"/>
</linearGradient>
<linearGradient id="paint6_linear" x1="48.9505" y1="44.9849" x2="44.9396" y2="29.1432" gradientUnits="userSpaceOnUse">
<stop offset="0.027451" stop-color="#3E66AE"/>
<stop offset="1" stop-color="#D2D9F0"/>
</linearGradient>
<linearGradient id="paint7_linear" x1="32.2148" y1="43.514" x2="27.9552" y2="26.6897" gradientUnits="userSpaceOnUse">
<stop stop-color="#E8396E"/>
<stop offset="1" stop-color="#E28BAE"/>
</linearGradient>
<linearGradient id="paint8_linear" x1="59.572" y1="41.0617" x2="55.6748" y2="25.6688" gradientUnits="userSpaceOnUse">
<stop offset="0.027451" stop-color="#3E66AE"/>
<stop offset="1" stop-color="#D2D9F0"/>
</linearGradient>
<linearGradient id="paint9_linear" x1="62.7807" y1="16.7386" x2="69.1148" y2="18.2096" gradientUnits="userSpaceOnUse">
<stop stop-color="white"/>
<stop offset="1" stop-color="#E2B1AE"/>
</linearGradient>
<linearGradient id="paint10_linear" x1="71.5266" y1="42.3661" x2="73.334" y2="42.7858" gradientUnits="userSpaceOnUse">
<stop stop-color="white"/>
<stop offset="1" stop-color="#E2B1AE"/>
</linearGradient>
<linearGradient id="paint11_linear" x1="15.1511" y1="50.7026" x2="32.2687" y2="26.0915" gradientUnits="userSpaceOnUse">
<stop stop-color="white"/>
<stop offset="1" stop-color="#E2B1AE"/>
</linearGradient>
<linearGradient id="paint12_linear" x1="35.7155" y1="65.0057" x2="44.2743" y2="52.7002" gradientUnits="userSpaceOnUse">
<stop stop-color="white"/>
<stop offset="1" stop-color="#E2B1AE"/>
</linearGradient>
<linearGradient id="paint13_linear" x1="65.2771" y1="58.0279" x2="78.2386" y2="38.4032" gradientUnits="userSpaceOnUse">
<stop stop-color="#6D99D1"/>
<stop offset="1" stop-color="#AEDAD6"/>
</linearGradient>
<linearGradient id="paint14_linear" x1="92.8639" y1="41.098" x2="59.978" y2="24.522" gradientUnits="userSpaceOnUse">
<stop stop-color="#74BAE8"/>
<stop offset="0.2151" stop-color="#66A7DC"/>
<stop offset="0.6724" stop-color="#4A78BC"/>
<stop offset="1" stop-color="#3C55A2"/>
</linearGradient>
<linearGradient id="paint15_linear" x1="98.7572" y1="59.183" x2="72.3518" y2="80.293" gradientUnits="userSpaceOnUse">
<stop stop-color="#74BAE8"/>
<stop offset="0.2151" stop-color="#66A7DC"/>
<stop offset="0.6724" stop-color="#4A78BC"/>
<stop offset="1" stop-color="#3C55A2"/>
</linearGradient>
<linearGradient id="paint16_linear" x1="51.8392" y1="43.9508" x2="69.9966" y2="68.2383" gradientUnits="userSpaceOnUse">
<stop stop-color="#74BAE8"/>
<stop offset="0.2151" stop-color="#66A7DC"/>
<stop offset="0.6724" stop-color="#4A78BC"/>
<stop offset="1" stop-color="#3C55A2"/>
</linearGradient>
<linearGradient id="paint17_linear" x1="95.7535" y1="42.967" x2="101.326" y2="60.9161" gradientUnits="userSpaceOnUse">
<stop stop-color="white"/>
<stop offset="1" stop-color="#75BCE9"/>
</linearGradient>
<linearGradient id="paint18_linear" x1="52.8529" y1="66.608" x2="82.2932" y2="73.6018" gradientUnits="userSpaceOnUse">
<stop stop-color="#213A8B"/>
<stop offset="0.2308" stop-color="#25408F"/>
<stop offset="0.6225" stop-color="#2C519D"/>
<stop offset="1" stop-color="#3666AF"/>
</linearGradient>
<linearGradient id="paint19_linear" x1="78.8177" y1="64.2156" x2="89.8859" y2="53.8639" gradientUnits="userSpaceOnUse">
<stop offset="0.027451" stop-color="#3E66AE"/>
<stop offset="1" stop-color="#D2D9F0"/>
</linearGradient>
<linearGradient id="paint20_linear" x1="69.3003" y1="55.7399" x2="79.2927" y2="46.3942" gradientUnits="userSpaceOnUse">
<stop offset="0.027451" stop-color="#3E66AE"/>
<stop offset="1" stop-color="#D2D9F0"/>
</linearGradient>
<linearGradient id="paint21_linear" x1="102.888" y1="51.6569" x2="107.274" y2="64.1855" gradientUnits="userSpaceOnUse">
<stop stop-color="white"/>
<stop offset="1" stop-color="#E2B1AE"/>
</linearGradient>
<linearGradient id="paint22_linear" x1="94.6344" y1="73.9974" x2="96.1456" y2="78.3146" gradientUnits="userSpaceOnUse">
<stop stop-color="white"/>
<stop offset="1" stop-color="#E2B1AE"/>
</linearGradient>
<linearGradient id="paint23_linear" x1="68.9013" y1="79.0594" x2="71.6549" y2="86.9254" gradientUnits="userSpaceOnUse">
<stop stop-color="white"/>
<stop offset="1" stop-color="#E2B1AE"/>
</linearGradient>
<linearGradient id="paint24_linear" x1="58.6044" y1="54.9635" x2="63.2386" y2="68.2016" gradientUnits="userSpaceOnUse">
<stop stop-color="white"/>
<stop offset="1" stop-color="#E2B1AE"/>
</linearGradient>
<linearGradient id="paint25_linear" x1="41.7245" y1="53.102" x2="51.6078" y2="58.3842" gradientUnits="userSpaceOnUse">
<stop stop-color="white"/>
<stop offset="1" stop-color="#75BCE9"/>
</linearGradient>
<linearGradient id="paint26_linear" x1="37.7792" y1="47.0645" x2="19.7809" y2="51.3345" gradientUnits="userSpaceOnUse">
<stop stop-color="#74BAE8"/>
<stop offset="0.2151" stop-color="#66A7DC"/>
<stop offset="0.6724" stop-color="#4A78BC"/>
<stop offset="1" stop-color="#3C55A2"/>
</linearGradient>
<linearGradient id="paint27_linear" x1="16.1516" y1="67.9667" x2="21.3561" y2="48.7741" gradientUnits="userSpaceOnUse">
<stop stop-color="#213A8B"/>
<stop offset="0.2308" stop-color="#25408F"/>
<stop offset="0.6225" stop-color="#2C519D"/>
<stop offset="1" stop-color="#3666AF"/>
</linearGradient>
<linearGradient id="paint28_linear" x1="40.9264" y1="85.4229" x2="53.6047" y2="63.8511" gradientUnits="userSpaceOnUse">
<stop stop-color="#213A8B"/>
<stop offset="0.2308" stop-color="#25408F"/>
<stop offset="0.6225" stop-color="#2C519D"/>
<stop offset="1" stop-color="#3666AF"/>
</linearGradient>
<linearGradient id="paint29_linear" x1="37.3358" y1="80.1756" x2="4.21272" y2="67.5647" gradientUnits="userSpaceOnUse">
<stop stop-color="#74BAE8"/>
<stop offset="0.2151" stop-color="#66A7DC"/>
<stop offset="0.6724" stop-color="#4A78BC"/>
<stop offset="1" stop-color="#3C55A2"/>
</linearGradient>
<linearGradient id="paint30_linear" x1="28.4843" y1="69.1422" x2="37.4491" y2="57.4693" gradientUnits="userSpaceOnUse">
<stop stop-color="#6D99D1"/>
<stop offset="1" stop-color="#AEDAD6"/>
</linearGradient>
<linearGradient id="paint31_linear" x1="31.6053" y1="69.2404" x2="33.1308" y2="56.0865" gradientUnits="userSpaceOnUse">
<stop offset="0.027451" stop-color="#3E66AE"/>
<stop offset="1" stop-color="#D2D9F0"/>
</linearGradient>
<linearGradient id="paint32_linear" x1="18.5652" y1="63.2142" x2="20.1853" y2="49.2445" gradientUnits="userSpaceOnUse">
<stop stop-color="#E8396E"/>
<stop offset="1" stop-color="#E28BAE"/>
</linearGradient>
<linearGradient id="paint33_linear" x1="40.5143" y1="69.2982" x2="41.9967" y2="56.5169" gradientUnits="userSpaceOnUse">
<stop offset="0.027451" stop-color="#3E66AE"/>
<stop offset="1" stop-color="#D2D9F0"/>
</linearGradient>
<linearGradient id="paint34_linear" x1="46.2182" y1="51.3671" x2="51.3515" y2="53.6428" gradientUnits="userSpaceOnUse">
<stop stop-color="white"/>
<stop offset="1" stop-color="#E2B1AE"/>
</linearGradient>
<linearGradient id="paint35_linear" x1="49.7958" y1="73.7996" x2="51.2606" y2="74.449" gradientUnits="userSpaceOnUse">
<stop stop-color="white"/>
<stop offset="1" stop-color="#E2B1AE"/>
</linearGradient>
<linearGradient id="paint36_linear" x1="4.13734" y1="63.8091" x2="20.876" y2="49.7151" gradientUnits="userSpaceOnUse">
<stop stop-color="white"/>
<stop offset="1" stop-color="#E2B1AE"/>
</linearGradient>
<linearGradient id="paint37_linear" x1="18.5343" y1="80.9076" x2="26.9036" y2="73.8606" gradientUnits="userSpaceOnUse">
<stop stop-color="white"/>
<stop offset="1" stop-color="#E2B1AE"/>
</linearGradient>
<linearGradient id="paint38_linear" x1="62.888" y1="55.5652" x2="85.2427" y2="55.1945" gradientUnits="userSpaceOnUse">
<stop stop-color="white"/>
<stop offset="1" stop-color="#75BCE9"/>
</linearGradient>
<linearGradient id="paint39_linear" x1="83.6867" y1="69.5925" x2="60.259" y2="86.7019" gradientUnits="userSpaceOnUse">
<stop stop-color="#74BAE8"/>
<stop offset="0.2151" stop-color="#66A7DC"/>
<stop offset="0.6724" stop-color="#4A78BC"/>
<stop offset="1" stop-color="#3C55A2"/>
</linearGradient>
<linearGradient id="paint40_linear" x1="37.4781" y1="80.3421" x2="81.6238" y2="95.8078" gradientUnits="userSpaceOnUse">
<stop stop-color="#213A8B"/>
<stop offset="0.2308" stop-color="#25408F"/>
<stop offset="0.6225" stop-color="#2C519D"/>
<stop offset="1" stop-color="#3666AF"/>
</linearGradient>
<linearGradient id="paint41_linear" x1="46.5956" y1="64.9959" x2="70.4168" y2="50.1641" gradientUnits="userSpaceOnUse">
<stop stop-color="#6D99D1"/>
<stop offset="1" stop-color="#AEDAD6"/>
</linearGradient>
<linearGradient id="paint42_linear" x1="26.1425" y1="57.1158" x2="42.4935" y2="82.4221" gradientUnits="userSpaceOnUse">
<stop stop-color="#74BAE8"/>
<stop offset="0.2151" stop-color="#66A7DC"/>
<stop offset="0.6724" stop-color="#4A78BC"/>
<stop offset="1" stop-color="#3C55A2"/>
</linearGradient>
<linearGradient id="paint43_linear" x1="56.0894" y1="64.6789" x2="38.012" y2="39.1332" gradientUnits="userSpaceOnUse">
<stop stop-color="#74BAE8"/>
<stop offset="0.2151" stop-color="#66A7DC"/>
<stop offset="0.6724" stop-color="#4A78BC"/>
<stop offset="1" stop-color="#3C55A2"/>
</linearGradient>
<linearGradient id="paint44_linear" x1="72.9964" y1="48.3946" x2="63.6281" y2="67.5783" gradientUnits="userSpaceOnUse">
<stop stop-color="white"/>
<stop offset="1" stop-color="#E2B1AE"/>
</linearGradient>
<linearGradient id="paint45_linear" x1="79.8349" y1="81.4776" x2="70.239" y2="101.127" gradientUnits="userSpaceOnUse">
<stop stop-color="white"/>
<stop offset="1" stop-color="#E2B1AE"/>
</linearGradient>
<linearGradient id="paint46_linear" x1="51.9274" y1="92.6325" x2="50.6228" y2="95.3039" gradientUnits="userSpaceOnUse">
<stop stop-color="white"/>
<stop offset="1" stop-color="#E2B1AE"/>
</linearGradient>
<linearGradient id="paint47_linear" x1="36.832" y1="64.1701" x2="27.0207" y2="84.2611" gradientUnits="userSpaceOnUse">
<stop stop-color="white"/>
<stop offset="1" stop-color="#E2B1AE"/>
</linearGradient>
<linearGradient id="paint48_linear" x1="45.3222" y1="64.3215" x2="68.6262" y2="60.0614" gradientUnits="userSpaceOnUse">
<stop offset="0.027451" stop-color="#3E66AE"/>
<stop offset="1" stop-color="#D2D9F0"/>
</linearGradient>
<linearGradient id="paint49_linear" x1="54.8273" y1="74.1726" x2="72.2813" y2="70.9818" gradientUnits="userSpaceOnUse">
<stop offset="0.027451" stop-color="#3E66AE"/>
<stop offset="1" stop-color="#D2D9F0"/>
</linearGradient>
<radialGradient id="paint50_radial" cx="0" cy="0" r="1" gradientUnits="userSpaceOnUse" gradientTransform="translate(92.2979 36.5) rotate(117.44) scale(7.59523)">
<stop stop-color="#DEEDF9"/>
<stop offset="1" stop-color="#DEEDF9" stop-opacity="0"/>
</radialGradient>
<radialGradient id="paint51_radial" cx="0" cy="0" r="1" gradientUnits="userSpaceOnUse" gradientTransform="translate(28.7979 33) rotate(117.44) scale(10.8503)">
<stop stop-color="#DEEDF9"/>
<stop offset="1" stop-color="#DEEDF9" stop-opacity="0"/>
</radialGradient>
<radialGradient id="paint52_radial" cx="0" cy="0" r="1" gradientUnits="userSpaceOnUse" gradientTransform="translate(96.7979 71) rotate(117.44) scale(4.34013)">
<stop stop-color="#DEEDF9"/>
<stop offset="1" stop-color="#DEEDF9" stop-opacity="0"/>
</radialGradient>
</defs>
</svg>
