<svg width="114" height="121" viewBox="0 0 114 121" fill="none" xmlns="http://www.w3.org/2000/svg">
<path d="M97.4037 43.0473L73.4795 10.871L76.6478 55.276L82.563 80.9497L97.4037 43.0473Z" fill="url(#paint0_linear)"/>
<path d="M46.6797 88.4673L55.6448 70.8061L76.6428 54.9172L82.5632 80.9496L47.4835 89.3355L46.6797 88.4673Z" fill="url(#paint1_linear)"/>
<path d="M47.4836 89.3356L55.6448 70.8062L40.3658 52.2127L21.8154 60.2809L47.4836 89.3356Z" fill="url(#paint2_linear)"/>
<path d="M40.3658 52.2127L55.6448 70.8062L76.6428 54.9173L73.4797 10.871L40.3658 52.2127Z" fill="url(#paint3_linear)"/>
<path d="M21.8154 60.2809L40.3657 52.2126L36.3186 19.0903L21.8154 60.2809Z" fill="url(#paint4_linear)"/>
<path d="M36.3185 19.0903L73.4796 10.871L40.3657 52.2126L36.3185 19.0903Z" fill="url(#paint5_linear)"/>
<path d="M73.4795 10.871L76.6284 54.9568L55.6446 70.8061L74.6917 54.2623L73.4795 10.871Z" fill="white"/>
<path opacity="0.46" d="M96.0561 43.3224L82.0434 78.6668L82.563 80.9497L97.4037 43.0473L73.4795 10.871L96.0561 43.3224Z" fill="url(#paint6_linear)"/>
<path opacity="0.11" d="M47.4834 89.3355L82.563 80.9497L82.0434 78.6669L47.4834 89.3355Z" fill="url(#paint7_linear)"/>
<path opacity="0.11" d="M47.4833 89.3355L23.8669 59.4107L21.8152 60.2808L47.4833 89.3355Z" fill="url(#paint8_linear)"/>
<path opacity="0.11" d="M36.3186 19.0903L23.8671 59.4107L21.8154 60.2809L36.3186 19.0903Z" fill="url(#paint9_linear)"/>
<path d="M52.8304 36.6093L41.6252 52.3075L45.5235 58.4784L40.3656 52.2127L52.8304 36.6093Z" fill="white"/>
<path opacity="0.34" d="M74.5269 48.6273L45.5236 58.4784L41.6253 52.3075L52.3778 37.2499L74.052 31.4171L74.5269 48.6273Z" fill="url(#paint10_linear)"/>
<path opacity="0.34" d="M48.3155 61.8883L74.6488 52.641L74.6919 54.2623L55.6448 70.8062L48.3155 61.8883Z" fill="url(#paint11_linear)"/>
<path opacity="0.29" d="M76.648 55.276L56.8006 72.5589L47.4836 89.3356L55.6448 70.8062L76.648 55.276Z" fill="#0C7FB0"/>
<path opacity="0.29" d="M73.4796 10.8711L40.3656 52.2128L37.7888 31.0371L41.2506 47.1327L73.4796 10.8711Z" fill="#0C7FB0"/>
<path d="M106.19 40.1361L97.0364 74.5251L84.2717 87.8356L68.6938 67.4709L106.19 40.1361Z" fill="url(#paint12_linear)"/>
<path d="M106.148 40.1361L68.6098 67.4709L61.3877 44.251L106.148 40.1361Z" fill="url(#paint13_linear)"/>
<path d="M85.7415 103.539L84.1879 87.8356L68.61 67.4709L51.2265 82.8809L85.7415 103.539Z" fill="url(#paint14_linear)"/>
<path d="M114 85.6521L96.9945 74.5251L106.148 40.1361L114 85.6521Z" fill="url(#paint15_linear)"/>
<path d="M51.2264 82.8809L68.6099 67.471L61.3878 44.2511L51.2264 82.8809Z" fill="url(#paint16_linear)"/>
<path d="M114 85.6522L96.9945 74.5251L84.1878 87.8356L85.7414 103.54L114 85.6522Z" fill="url(#paint17_linear)"/>
<path opacity="0.34" d="M74.9082 62.894L90.6541 81.0753L84.2717 87.8355L68.6938 67.4708L74.9082 62.894Z" fill="url(#paint18_linear)"/>
<path opacity="0.34" d="M89.5204 52.271L78.0994 61.0887L93.0474 78.5981L97.0364 74.5251L100.521 61.2566L89.5204 52.271Z" fill="url(#paint19_linear)"/>
<path d="M89.5205 52.271L68.694 67.471L84.1879 87.8356L70.3316 67.471L89.5205 52.271Z" fill="white"/>
<path opacity="0.46" d="M62.6475 48.366L61.3878 47.4003L53.2419 81.0754L51.2265 82.8809L61.3878 44.2511L62.6475 48.366Z" fill="url(#paint20_linear)"/>
<path opacity="0.11" d="M53.242 81.0754L85.7415 103.54L51.2265 82.881L53.242 81.0754Z" fill="url(#paint21_linear)"/>
<path opacity="0.11" d="M85.7414 103.54L112.027 84.3506L114 85.6522L85.7414 103.54Z" fill="url(#paint22_linear)"/>
<path opacity="0.11" d="M106.148 40.1361L112.027 84.3505L114 85.6521L106.148 40.1361Z" fill="url(#paint23_linear)"/>
<path d="M99.8076 63.9858L96.5325 74.1052L90.654 81.0753L97.0363 74.5251L99.8076 63.9858Z" fill="white"/>
<path opacity="0.29" d="M114 85.6521L97.0365 74.5251L106.148 40.1361L99.8077 73.3074L114 85.6521Z" fill="#0C7FB0"/>
<path opacity="0.29" d="M68.6939 67.4709L82.6343 88.0455L85.7415 103.539L84.1879 87.8356L68.6939 67.4709Z" fill="#0C7FB0"/>
<path d="M7.81006 38.0367L16.9636 72.4257L29.7283 85.7362L45.3062 65.3715L7.81006 38.0367Z" fill="url(#paint24_linear)"/>
<path d="M7.85205 38.0367L45.3902 65.3716L52.6123 42.1517L7.85205 38.0367Z" fill="url(#paint25_linear)"/>
<path d="M28.2585 101.44L29.8121 85.7362L45.39 65.3716L62.7735 80.7815L28.2585 101.44Z" fill="url(#paint26_linear)"/>
<path d="M0 83.5528L17.0055 72.4257L7.85193 38.0367L0 83.5528Z" fill="url(#paint27_linear)"/>
<path d="M62.7736 80.7814L45.3901 65.3715L52.6122 42.1516L62.7736 80.7814Z" fill="url(#paint28_linear)"/>
<path d="M0 83.5526L17.0055 72.4255L29.8122 85.736L28.2586 101.44L0 83.5526Z" fill="url(#paint29_linear)"/>
<path opacity="0.34" d="M39.0918 60.7947L23.3459 78.9759L29.7283 85.7361L45.3062 65.3715L39.0918 60.7947Z" fill="url(#paint30_linear)"/>
<path opacity="0.34" d="M24.4796 50.1716L35.9006 58.9893L20.9526 76.4987L16.9636 72.4258L13.4785 59.1573L24.4796 50.1716Z" fill="url(#paint31_linear)"/>
<path d="M24.4795 50.1716L45.306 65.3716L29.8121 85.7363L43.6684 65.3716L24.4795 50.1716Z" fill="white"/>
<path opacity="0.46" d="M51.3525 46.2665L52.6122 45.3008L60.7581 78.9759L62.7735 80.7814L52.6122 42.1516L51.3525 46.2665Z" fill="url(#paint32_linear)"/>
<path opacity="0.11" d="M60.758 78.9761L28.2585 101.44L62.7735 80.7816L60.758 78.9761Z" fill="url(#paint33_linear)"/>
<path opacity="0.11" d="M28.2586 101.44L1.97348 82.2512L0 83.5529L28.2586 101.44Z" fill="url(#paint34_linear)"/>
<path opacity="0.11" d="M7.85193 38.0367L1.97348 82.2511L0 83.5528L7.85193 38.0367Z" fill="url(#paint35_linear)"/>
<path d="M14.1924 61.8865L17.4675 72.0058L23.346 78.976L16.9637 72.4257L14.1924 61.8865Z" fill="white"/>
<path opacity="0.29" d="M0 83.5528L16.9635 72.4257L7.85193 38.0367L14.1923 71.208L0 83.5528Z" fill="#0C7FB0"/>
<path opacity="0.29" d="M45.3061 65.3716L31.3657 85.9462L28.2585 101.44L29.8121 85.7362L45.3061 65.3716Z" fill="#0C7FB0"/>
<path d="M81.4403 35.5887L40.488 28.4902L74.5736 59.5978L97.3495 74.6679L81.4403 35.5887Z" fill="url(#paint36_linear)"/>
<path d="M75.7513 105.938L69.8786 86.2646L74.3138 59.3321L97.3497 74.668L76.9753 106.016L75.7513 105.938Z" fill="url(#paint37_linear)"/>
<path d="M76.9752 106.016L69.8785 86.2645L45.121 83.2008L36.9413 102.509L76.9752 106.016Z" fill="url(#paint38_linear)"/>
<path d="M45.1208 83.2008L69.8784 86.2645L74.3135 59.332L40.488 28.4902L45.1208 83.2008Z" fill="url(#paint39_linear)"/>
<path d="M36.9412 102.509L45.1209 83.2008L18.4307 61.1995L36.9412 102.509Z" fill="url(#paint40_linear)"/>
<path d="M18.4306 61.1995L40.4881 28.4902L45.1209 83.2008L18.4306 61.1995Z" fill="url(#paint41_linear)"/>
<path d="M40.488 28.4902L74.3311 59.3718L69.8783 86.2645L72.3798 60.2327L40.488 28.4902Z" fill="white"/>
<path opacity="0.46" d="M80.6239 36.7576L95.3291 73.3233L97.3495 74.6679L81.4403 35.5887L40.488 28.4902L80.6239 36.7576Z" fill="url(#paint42_linear)"/>
<path opacity="0.11" d="M76.9752 106.016L97.3497 74.6678L95.3293 73.3233L76.9752 106.016Z" fill="url(#paint43_linear)"/>
<path opacity="0.11" d="M76.9753 106.016L37.8619 100.39L36.9413 102.509L76.9753 106.016Z" fill="url(#paint44_linear)"/>
<path opacity="0.11" d="M18.4307 61.1995L37.8618 100.39L36.9412 102.509L18.4307 61.1995Z" fill="url(#paint45_linear)"/>
<path d="M43.3474 62.5754L46.1351 82.3727L53.4706 84.2267L45.1208 83.2008L43.3474 62.5754Z" fill="white"/>
<path opacity="0.34" d="M68.2327 56.1159L53.4708 84.2268L46.1353 82.3728L43.4648 63.3801L55.588 43.5218L68.2327 56.1159Z" fill="url(#paint46_linear)"/>
<path opacity="0.34" d="M58.0035 84.7959L71.1901 59.0451L72.3801 60.2327L69.8786 86.2645L58.0035 84.7959Z" fill="url(#paint47_linear)"/>
<path opacity="0.29" d="M74.5737 59.598L71.9984 86.7566L76.9751 106.016L69.8785 86.2647L74.5737 59.598Z" fill="#0C7FB0"/>
<path opacity="0.29" d="M40.4881 28.4903L45.1208 83.2009L28.0652 69.1275L42.1587 78.7514L40.4881 28.4903Z" fill="#0C7FB0"/>
<path d="M80.396 83.3602C79.9542 83.2257 69.3998 93.5316 69.3142 93.8128C69.2286 94.094 85.4693 101.012 85.6282 100.49C85.8273 99.9801 80.8379 83.4947 80.396 83.3602Z" fill="url(#paint48_linear)"/>
<path d="M82.8276 72.7766L80.3771 82.1256L85.7053 100.382L91.4529 107.311L82.8276 72.7766Z" fill="url(#paint49_linear)"/>
<path d="M69.3144 93.8129L80.5517 82.7054L82.8276 72.7765L56.619 94.4257L69.3144 93.8129Z" fill="url(#paint50_linear)"/>
<path d="M85.7051 100.382L91.4527 107.31L56.6189 94.4257L69.3143 93.8129L85.7051 100.382Z" fill="url(#paint51_linear)"/>
<path opacity="0.34" d="M81.1977 87.0717L71.0748 92.0665L69.3143 93.813L74.7109 95.9823L83.3213 92.0633L81.1977 87.0717Z" fill="url(#paint52_linear)"/>
<path opacity="0.46" d="M80.943 81.4201L82.4468 76.4792L83.1926 76.0478L90.199 104.076L89.4916 104.958L85.7053 100.382L91.4529 107.311L82.8276 72.7766L80.7718 81.9824L80.943 81.4201Z" fill="url(#paint53_linear)"/>
<path opacity="0.11" d="M89.4915 104.958L65.7671 97.8245L91.4528 107.31L89.4915 104.958Z" fill="url(#paint54_linear)"/>
<path d="M72.8354 90.3199L80.1674 84.2562L85.7053 100.382L80.5517 82.7053L72.8354 90.3199Z" fill="white"/>
<path opacity="0.29" d="M56.619 94.4257L68.5931 93.1545L79.5474 82.3997L82.8276 72.7765L80.5517 82.7054L69.3144 93.8129L56.619 94.4257Z" fill="#0C7FB0"/>
<g style="mix-blend-mode:screen">
<path d="M84 56.5C82.0716 56.5 80.5 54.9284 80.5 53C80.5 54.9284 78.938 56.5 77 56.5C78.9284 56.5 80.5 58.0716 80.5 60C80.5096 58.062 82.0716 56.5 84 56.5Z" fill="url(#paint55_radial)"/>
</g>
<g style="mix-blend-mode:screen">
<path d="M62 83.5C59.5207 83.5 57.5 81.4793 57.5 79C57.5 81.4793 55.4917 83.5 53 83.5C55.4793 83.5 57.5 85.5207 57.5 88C57.5124 85.5083 59.5207 83.5 62 83.5Z" fill="url(#paint56_radial)"/>
</g>
<g style="mix-blend-mode:screen">
<path d="M35 53C33.8981 53 33 52.1019 33 51C33 52.1019 32.1074 53 31 53C32.1019 53 33 53.8981 33 55C33.0055 53.8926 33.8981 53 35 53Z" fill="url(#paint57_radial)"/>
</g>
<defs>
<linearGradient id="paint0_linear" x1="70.5569" y1="41.7155" x2="94.9864" y2="55.4576" gradientUnits="userSpaceOnUse">
<stop stop-color="white"/>
<stop offset="1" stop-color="#75BCE9"/>
</linearGradient>
<linearGradient id="paint1_linear" x1="84.4851" y1="69.538" x2="48.4971" y2="73.6943" gradientUnits="userSpaceOnUse">
<stop stop-color="#74BAE8"/>
<stop offset="0.2151" stop-color="#66A7DC"/>
<stop offset="0.6724" stop-color="#4A78BC"/>
<stop offset="1" stop-color="#3C55A2"/>
</linearGradient>
<linearGradient id="paint2_linear" x1="27.59" y1="52.0833" x2="65.102" y2="96.758" gradientUnits="userSpaceOnUse">
<stop stop-color="#213A8B"/>
<stop offset="0.2308" stop-color="#25408F"/>
<stop offset="0.6225" stop-color="#2C519D"/>
<stop offset="1" stop-color="#3666AF"/>
</linearGradient>
<linearGradient id="paint3_linear" x1="47.0043" y1="41.5308" x2="82.0643" y2="40.1304" gradientUnits="userSpaceOnUse">
<stop stop-color="#6D99D1"/>
<stop offset="1" stop-color="#AEDAD6"/>
</linearGradient>
<linearGradient id="paint4_linear" x1="29.6465" y1="20.4301" x2="31.1359" y2="57.4386" gradientUnits="userSpaceOnUse">
<stop stop-color="#74BAE8"/>
<stop offset="0.2151" stop-color="#66A7DC"/>
<stop offset="0.6724" stop-color="#4A78BC"/>
<stop offset="1" stop-color="#3C55A2"/>
</linearGradient>
<linearGradient id="paint5_linear" x1="57.5225" y1="47.1188" x2="54.379" y2="8.74773" gradientUnits="userSpaceOnUse">
<stop stop-color="#74BAE8"/>
<stop offset="0.2151" stop-color="#66A7DC"/>
<stop offset="0.6724" stop-color="#4A78BC"/>
<stop offset="1" stop-color="#3C55A2"/>
</linearGradient>
<linearGradient id="paint6_linear" x1="85.9868" y1="40.4339" x2="64.2613" y2="55.3817" gradientUnits="userSpaceOnUse">
<stop stop-color="white"/>
<stop offset="1" stop-color="#E2B1AE"/>
</linearGradient>
<linearGradient id="paint7_linear" x1="72.9387" y1="79.7126" x2="50.6853" y2="95.0237" gradientUnits="userSpaceOnUse">
<stop stop-color="white"/>
<stop offset="1" stop-color="#E2B1AE"/>
</linearGradient>
<linearGradient id="paint8_linear" x1="35.69" y1="74.1056" x2="32.6647" y2="76.1871" gradientUnits="userSpaceOnUse">
<stop stop-color="white"/>
<stop offset="1" stop-color="#E2B1AE"/>
</linearGradient>
<linearGradient id="paint9_linear" x1="36.9008" y1="34.5652" x2="14.1477" y2="50.22" gradientUnits="userSpaceOnUse">
<stop stop-color="white"/>
<stop offset="1" stop-color="#E2B1AE"/>
</linearGradient>
<linearGradient id="paint10_linear" x1="46.0379" y1="40.0231" x2="74.0125" y2="50.0548" gradientUnits="userSpaceOnUse">
<stop offset="0.027451" stop-color="#3E66AE"/>
<stop offset="1" stop-color="#D2D9F0"/>
</linearGradient>
<linearGradient id="paint11_linear" x1="50.2725" y1="56.3787" x2="71.2247" y2="63.8921" gradientUnits="userSpaceOnUse">
<stop offset="0.027451" stop-color="#3E66AE"/>
<stop offset="1" stop-color="#D2D9F0"/>
</linearGradient>
<linearGradient id="paint12_linear" x1="101.372" y1="71.7014" x2="84.0351" y2="49.888" gradientUnits="userSpaceOnUse">
<stop stop-color="#6D99D1"/>
<stop offset="1" stop-color="#AEDAD6"/>
</linearGradient>
<linearGradient id="paint13_linear" x1="67.055" y1="54.5883" x2="104.143" y2="31.6078" gradientUnits="userSpaceOnUse">
<stop stop-color="#74BAE8"/>
<stop offset="0.2151" stop-color="#66A7DC"/>
<stop offset="0.6724" stop-color="#4A78BC"/>
<stop offset="1" stop-color="#3C55A2"/>
</linearGradient>
<linearGradient id="paint14_linear" x1="61.9798" y1="76.5444" x2="95.3368" y2="98.7133" gradientUnits="userSpaceOnUse">
<stop stop-color="#74BAE8"/>
<stop offset="0.2151" stop-color="#66A7DC"/>
<stop offset="0.6724" stop-color="#4A78BC"/>
<stop offset="1" stop-color="#3C55A2"/>
</linearGradient>
<linearGradient id="paint15_linear" x1="115.768" y1="53.6911" x2="96.8633" y2="84.2416" gradientUnits="userSpaceOnUse">
<stop stop-color="#74BAE8"/>
<stop offset="0.2151" stop-color="#66A7DC"/>
<stop offset="0.6724" stop-color="#4A78BC"/>
<stop offset="1" stop-color="#3C55A2"/>
</linearGradient>
<linearGradient id="paint16_linear" x1="63.8393" y1="57.0945" x2="59.1287" y2="78.8567" gradientUnits="userSpaceOnUse">
<stop stop-color="white"/>
<stop offset="1" stop-color="#75BCE9"/>
</linearGradient>
<linearGradient id="paint17_linear" x1="116.926" y1="80.5362" x2="82.9088" y2="91.85" gradientUnits="userSpaceOnUse">
<stop stop-color="#213A8B"/>
<stop offset="0.2308" stop-color="#25408F"/>
<stop offset="0.6225" stop-color="#2C519D"/>
<stop offset="1" stop-color="#3666AF"/>
</linearGradient>
<linearGradient id="paint18_linear" x1="86.0346" y1="80.4109" x2="71.8963" y2="69.3444" gradientUnits="userSpaceOnUse">
<stop offset="0.027451" stop-color="#3E66AE"/>
<stop offset="1" stop-color="#D2D9F0"/>
</linearGradient>
<linearGradient id="paint19_linear" x1="96.3859" y1="69.4193" x2="83.6218" y2="59.4285" gradientUnits="userSpaceOnUse">
<stop offset="0.027451" stop-color="#3E66AE"/>
<stop offset="1" stop-color="#D2D9F0"/>
</linearGradient>
<linearGradient id="paint20_linear" x1="56.3226" y1="68.0918" x2="52.4488" y2="83.3335" gradientUnits="userSpaceOnUse">
<stop stop-color="white"/>
<stop offset="1" stop-color="#E2B1AE"/>
</linearGradient>
<linearGradient id="paint21_linear" x1="68.3854" y1="93.5993" x2="67.0506" y2="98.8513" gradientUnits="userSpaceOnUse">
<stop stop-color="white"/>
<stop offset="1" stop-color="#E2B1AE"/>
</linearGradient>
<linearGradient id="paint22_linear" x1="99.2807" y1="96.8988" x2="96.8486" y2="106.468" gradientUnits="userSpaceOnUse">
<stop stop-color="white"/>
<stop offset="1" stop-color="#E2B1AE"/>
</linearGradient>
<linearGradient id="paint23_linear" x1="108.928" y1="67.3911" x2="104.835" y2="83.4959" gradientUnits="userSpaceOnUse">
<stop stop-color="white"/>
<stop offset="1" stop-color="#E2B1AE"/>
</linearGradient>
<linearGradient id="paint24_linear" x1="12.6283" y1="69.602" x2="29.9649" y2="47.7887" gradientUnits="userSpaceOnUse">
<stop stop-color="#6D99D1"/>
<stop offset="1" stop-color="#AEDAD6"/>
</linearGradient>
<linearGradient id="paint25_linear" x1="46.945" y1="52.489" x2="9.85696" y2="29.5085" gradientUnits="userSpaceOnUse">
<stop stop-color="#74BAE8"/>
<stop offset="0.2151" stop-color="#66A7DC"/>
<stop offset="0.6724" stop-color="#4A78BC"/>
<stop offset="1" stop-color="#3C55A2"/>
</linearGradient>
<linearGradient id="paint26_linear" x1="52.0202" y1="74.445" x2="18.6632" y2="96.6139" gradientUnits="userSpaceOnUse">
<stop stop-color="#74BAE8"/>
<stop offset="0.2151" stop-color="#66A7DC"/>
<stop offset="0.6724" stop-color="#4A78BC"/>
<stop offset="1" stop-color="#3C55A2"/>
</linearGradient>
<linearGradient id="paint27_linear" x1="-1.76778" y1="51.5917" x2="17.1367" y2="82.1423" gradientUnits="userSpaceOnUse">
<stop stop-color="#74BAE8"/>
<stop offset="0.2151" stop-color="#66A7DC"/>
<stop offset="0.6724" stop-color="#4A78BC"/>
<stop offset="1" stop-color="#3C55A2"/>
</linearGradient>
<linearGradient id="paint28_linear" x1="50.1607" y1="54.995" x2="54.8713" y2="76.7572" gradientUnits="userSpaceOnUse">
<stop stop-color="white"/>
<stop offset="1" stop-color="#75BCE9"/>
</linearGradient>
<linearGradient id="paint29_linear" x1="-2.92649" y1="78.4366" x2="31.0912" y2="89.7504" gradientUnits="userSpaceOnUse">
<stop stop-color="#213A8B"/>
<stop offset="0.2308" stop-color="#25408F"/>
<stop offset="0.6225" stop-color="#2C519D"/>
<stop offset="1" stop-color="#3666AF"/>
</linearGradient>
<linearGradient id="paint30_linear" x1="27.9654" y1="78.3115" x2="42.1037" y2="67.245" gradientUnits="userSpaceOnUse">
<stop offset="0.027451" stop-color="#3E66AE"/>
<stop offset="1" stop-color="#D2D9F0"/>
</linearGradient>
<linearGradient id="paint31_linear" x1="17.6141" y1="67.32" x2="30.3782" y2="57.3291" gradientUnits="userSpaceOnUse">
<stop offset="0.027451" stop-color="#3E66AE"/>
<stop offset="1" stop-color="#D2D9F0"/>
</linearGradient>
<linearGradient id="paint32_linear" x1="57.6774" y1="65.9923" x2="61.5512" y2="81.234" gradientUnits="userSpaceOnUse">
<stop stop-color="white"/>
<stop offset="1" stop-color="#E2B1AE"/>
</linearGradient>
<linearGradient id="paint33_linear" x1="45.6146" y1="91.4999" x2="46.9494" y2="96.752" gradientUnits="userSpaceOnUse">
<stop stop-color="white"/>
<stop offset="1" stop-color="#E2B1AE"/>
</linearGradient>
<linearGradient id="paint34_linear" x1="14.7193" y1="94.7994" x2="17.1514" y2="104.369" gradientUnits="userSpaceOnUse">
<stop stop-color="white"/>
<stop offset="1" stop-color="#E2B1AE"/>
</linearGradient>
<linearGradient id="paint35_linear" x1="5.07176" y1="65.2917" x2="9.16489" y2="81.3966" gradientUnits="userSpaceOnUse">
<stop stop-color="white"/>
<stop offset="1" stop-color="#E2B1AE"/>
</linearGradient>
<linearGradient id="paint36_linear" x1="60.3144" y1="53.7562" x2="88.4845" y2="46.6408" gradientUnits="userSpaceOnUse">
<stop stop-color="white"/>
<stop offset="1" stop-color="#75BCE9"/>
</linearGradient>
<linearGradient id="paint37_linear" x1="90.6462" y1="64.7201" x2="66.5693" y2="93.5384" gradientUnits="userSpaceOnUse">
<stop stop-color="#74BAE8"/>
<stop offset="0.2151" stop-color="#66A7DC"/>
<stop offset="0.6724" stop-color="#4A78BC"/>
<stop offset="1" stop-color="#3C55A2"/>
</linearGradient>
<linearGradient id="paint38_linear" x1="35.4278" y1="92.2253" x2="95.5147" y2="99.0146" gradientUnits="userSpaceOnUse">
<stop stop-color="#213A8B"/>
<stop offset="0.2308" stop-color="#25408F"/>
<stop offset="0.6225" stop-color="#2C519D"/>
<stop offset="1" stop-color="#3666AF"/>
</linearGradient>
<linearGradient id="paint39_linear" x1="42.4829" y1="70.4337" x2="67.8301" y2="44.3489" gradientUnits="userSpaceOnUse">
<stop stop-color="#6D99D1"/>
<stop offset="1" stop-color="#AEDAD6"/>
</linearGradient>
<linearGradient id="paint40_linear" x1="14.3732" y1="66.9701" x2="41.9162" y2="93.718" gradientUnits="userSpaceOnUse">
<stop stop-color="#74BAE8"/>
<stop offset="0.2151" stop-color="#66A7DC"/>
<stop offset="0.6724" stop-color="#4A78BC"/>
<stop offset="1" stop-color="#3C55A2"/>
</linearGradient>
<linearGradient id="paint41_linear" x1="54.377" y1="67.1231" x2="24.6182" y2="40.5323" gradientUnits="userSpaceOnUse">
<stop stop-color="#74BAE8"/>
<stop offset="0.2151" stop-color="#66A7DC"/>
<stop offset="0.6724" stop-color="#4A78BC"/>
<stop offset="1" stop-color="#3C55A2"/>
</linearGradient>
<linearGradient id="paint42_linear" x1="70.9947" y1="41.7763" x2="65.3408" y2="68.5211" gradientUnits="userSpaceOnUse">
<stop stop-color="white"/>
<stop offset="1" stop-color="#E2B1AE"/>
</linearGradient>
<linearGradient id="paint43_linear" x1="89.2339" y1="80.6098" x2="83.4426" y2="108.004" gradientUnits="userSpaceOnUse">
<stop stop-color="white"/>
<stop offset="1" stop-color="#E2B1AE"/>
</linearGradient>
<linearGradient id="paint44_linear" x1="57.2388" y1="102.991" x2="56.4514" y2="106.716" gradientUnits="userSpaceOnUse">
<stop stop-color="white"/>
<stop offset="1" stop-color="#E2B1AE"/>
</linearGradient>
<linearGradient id="paint45_linear" x1="29.917" y1="72.4129" x2="23.9958" y2="100.423" gradientUnits="userSpaceOnUse">
<stop stop-color="white"/>
<stop offset="1" stop-color="#E2B1AE"/>
</linearGradient>
<linearGradient id="paint46_linear" x1="40.6804" y1="69.9908" x2="68.8654" y2="57.5559" gradientUnits="userSpaceOnUse">
<stop offset="0.027451" stop-color="#3E66AE"/>
<stop offset="1" stop-color="#D2D9F0"/>
</linearGradient>
<linearGradient id="paint47_linear" x1="55.5404" y1="79.2582" x2="76.6501" y2="69.9449" gradientUnits="userSpaceOnUse">
<stop offset="0.027451" stop-color="#3E66AE"/>
<stop offset="1" stop-color="#D2D9F0"/>
</linearGradient>
<linearGradient id="paint48_linear" x1="74.3442" y1="97.3567" x2="83.1949" y2="91.8049" gradientUnits="userSpaceOnUse">
<stop stop-color="#6D99D1"/>
<stop offset="1" stop-color="#AEDAD6"/>
</linearGradient>
<linearGradient id="paint49_linear" x1="85.6104" y1="83.8015" x2="86.115" y2="102.108" gradientUnits="userSpaceOnUse">
<stop stop-color="white"/>
<stop offset="1" stop-color="#75BCE9"/>
</linearGradient>
<linearGradient id="paint50_linear" x1="59.6799" y1="96.9845" x2="74.5009" y2="84.0989" gradientUnits="userSpaceOnUse">
<stop stop-color="#74BAE8"/>
<stop offset="0.2151" stop-color="#66A7DC"/>
<stop offset="0.6724" stop-color="#4A78BC"/>
<stop offset="1" stop-color="#3C55A2"/>
</linearGradient>
<linearGradient id="paint51_linear" x1="73.9562" y1="98.1912" x2="74.1608" y2="105.613" gradientUnits="userSpaceOnUse">
<stop stop-color="#213A8B"/>
<stop offset="0.2308" stop-color="#25408F"/>
<stop offset="0.6225" stop-color="#2C519D"/>
<stop offset="1" stop-color="#3666AF"/>
</linearGradient>
<linearGradient id="paint52_linear" x1="72.596" y1="94.9638" x2="80.6507" y2="89.9113" gradientUnits="userSpaceOnUse">
<stop offset="0.027451" stop-color="#3E66AE"/>
<stop offset="1" stop-color="#D2D9F0"/>
</linearGradient>
<linearGradient id="paint53_linear" x1="85.986" y1="93.8489" x2="87.7243" y2="105.956" gradientUnits="userSpaceOnUse">
<stop stop-color="white"/>
<stop offset="1" stop-color="#E2B1AE"/>
</linearGradient>
<linearGradient id="paint54_linear" x1="65.5443" y1="98.5392" x2="91.6861" y2="106.496" gradientUnits="userSpaceOnUse">
<stop stop-color="white"/>
<stop offset="1" stop-color="#E2B1AE"/>
</linearGradient>
<radialGradient id="paint55_radial" cx="0" cy="0" r="1" gradientUnits="userSpaceOnUse" gradientTransform="translate(80.5 56.5) rotate(117.44) scale(7.59523)">
<stop stop-color="#DEEDF9"/>
<stop offset="1" stop-color="#DEEDF9" stop-opacity="0"/>
</radialGradient>
<radialGradient id="paint56_radial" cx="0" cy="0" r="1" gradientUnits="userSpaceOnUse" gradientTransform="translate(57.5 83.5) rotate(117.44) scale(9.7653)">
<stop stop-color="#DEEDF9"/>
<stop offset="1" stop-color="#DEEDF9" stop-opacity="0"/>
</radialGradient>
<radialGradient id="paint57_radial" cx="0" cy="0" r="1" gradientUnits="userSpaceOnUse" gradientTransform="translate(33 53) rotate(117.44) scale(4.34013)">
<stop stop-color="#DEEDF9"/>
<stop offset="1" stop-color="#DEEDF9" stop-opacity="0"/>
</radialGradient>
</defs>
</svg>
