<?xml version="1.0" standalone="no"?>
<!DOCTYPE svg PUBLIC "-//W3C//DTD SVG 20010904//EN"
 "http://www.w3.org/TR/2001/REC-SVG-20010904/DTD/svg10.dtd">
<svg version="1.0" xmlns="http://www.w3.org/2000/svg"
 width="260.000000pt" height="260.000000pt" viewBox="0 0 260.000000 260.000000"
 preserveAspectRatio="xMidYMid meet">
<metadata>
Created by potrace 1.11, written by Peter Selinger 2001-2013
</metadata>
<g transform="translate(0.000000,260.000000) scale(0.100000,-0.100000)"
fill="#000000" stroke="none">
<path d="M1132 2560 c-474 -67 -871 -391 -1030 -840 -52 -149 -66 -237 -66
-420 0 -183 14 -271 66 -420 149 -421 503 -730 948 -826 119 -26 381 -26 500
0 445 96 799 405 948 826 52 149 66 237 66 420 0 122 -4 187 -18 250 -108 500
-480 878 -976 991 -98 22 -340 33 -438 19z m914 -627 c-3 -10 -21 -63 -39
-118 l-32 -100 -249 -5 -249 -5 -56 -195 c-32 -107 -95 -324 -141 -482 l-83
-288 -89 -95 -90 -95 -78 0 c-43 0 -81 3 -83 8 -2 4 71 263 163 577 l166 570
-258 3 c-286 3 -271 -1 -249 68 6 16 19 62 31 102 l21 72 660 0 c624 0 660 -1
655 -17z"/>
</g>
</svg>
