<svg width="104" height="310" viewBox="0 0 104 310" fill="none" xmlns="http://www.w3.org/2000/svg">
<path d="M103.5 233.14C88.729 233.14 76.6667 221.048 76.6667 206.24V103.76C76.6667 88.9521 88.729 76.8595 103.5 76.8595C118.271 76.8595 130.333 88.9521 130.333 103.76V206.24C130.333 221.048 118.271 233.14 103.5 233.14ZM103.5 79.4215C90.109 79.4215 79.2223 90.3355 79.2223 103.76V206.24C79.2223 219.664 90.109 230.578 103.5 230.578C116.891 230.578 127.778 219.664 127.778 206.24V103.76C127.778 90.3355 116.891 79.4215 103.5 79.4215Z" fill="#529CFF"/>
<path d="M103.5 245.95C81.6756 245.95 63.8889 228.119 63.8889 206.24V103.76C63.8889 81.881 81.6756 64.0496 103.5 64.0496C125.324 64.0496 143.111 81.881 143.111 103.76V206.24C143.111 228.119 125.324 245.95 103.5 245.95ZM103.5 66.6115C83.0556 66.6115 66.4445 83.2644 66.4445 103.76V206.24C66.4445 226.736 83.0556 243.388 103.5 243.388C123.944 243.388 140.556 226.736 140.556 206.24V103.76C140.556 83.2644 123.944 66.6115 103.5 66.6115Z" fill="#529CFF"/>
<path d="M103.5 258.76C74.6222 258.76 51.1111 235.19 51.1111 206.24V103.76C51.1111 74.8099 74.6222 51.2396 103.5 51.2396C132.378 51.2396 155.889 74.8099 155.889 103.76V206.24C155.889 235.19 132.378 258.76 103.5 258.76ZM103.5 53.8016C76.0022 53.8016 53.6666 76.1934 53.6666 103.76V206.24C53.6666 233.807 76.0022 256.198 103.5 256.198C130.998 256.198 153.333 233.807 153.333 206.24V103.76C153.333 76.1934 130.998 53.8016 103.5 53.8016Z" fill="#529CFF"/>
<path d="M103.5 271.57C67.569 271.57 38.3335 242.261 38.3335 206.24V103.76C38.3335 67.7388 67.569 38.4297 103.5 38.4297C139.431 38.4297 168.667 67.7388 168.667 103.76V206.24C168.667 242.261 139.431 271.57 103.5 271.57ZM103.5 40.9917C69.0002 40.9917 40.8891 69.1735 40.8891 103.76V206.24C40.8891 240.826 69.0002 269.008 103.5 269.008C138 269.008 166.111 240.826 166.111 206.24V103.76C166.111 69.1735 138 40.9917 103.5 40.9917Z" fill="#529CFF"/>
<path d="M103.5 284.38C60.5157 284.38 25.5557 249.332 25.5557 206.24V103.76C25.5557 60.6678 60.5157 25.6199 103.5 25.6199C146.485 25.6199 181.445 60.6678 181.445 103.76V206.24C181.445 249.332 146.485 284.38 103.5 284.38ZM103.5 28.1819C61.9468 28.1819 28.1112 62.1025 28.1112 103.76V206.24C28.1112 247.898 61.9468 281.818 103.5 281.818C145.053 281.818 178.889 247.898 178.889 206.24V103.76C178.889 62.1025 145.053 28.1819 103.5 28.1819Z" fill="#529CFF"/>
<path d="M103.5 297.19C53.4623 297.19 12.7778 256.403 12.7778 206.24V103.76C12.7778 53.5967 53.4623 12.8099 103.5 12.8099C153.538 12.8099 194.222 53.5967 194.222 103.76V206.24C194.222 256.403 153.538 297.19 103.5 297.19ZM103.5 15.3719C54.8934 15.3719 15.3334 55.0314 15.3334 103.76V206.24C15.3334 254.969 54.8934 294.628 103.5 294.628C152.107 294.628 191.667 254.969 191.667 206.24V103.76C191.667 55.0314 152.107 15.3719 103.5 15.3719Z" fill="#529CFF"/>
<path d="M103.5 310C46.4089 310 0 263.474 0 206.24V103.76C0 46.5256 46.4089 0 103.5 0C160.591 0 207 46.5256 207 103.76V206.24C207 263.474 160.591 310 103.5 310ZM103.5 2.56198C47.84 2.56198 2.55556 47.9603 2.55556 103.76V206.24C2.55556 262.04 47.84 307.438 103.5 307.438C159.16 307.438 204.444 262.04 204.444 206.24V103.76C204.444 47.9603 159.16 2.56198 103.5 2.56198Z" fill="#529CFF"/>
</svg>
