<svg width="151" height="136" viewBox="0 0 151 136" fill="none" xmlns="http://www.w3.org/2000/svg">
<g clip-path="url(#clip0)">
<path d="M126.26 136L127.865 136L127.865 122.4L126.26 122.4L126.26 136Z" fill="#3F84FF" fill-opacity="0.2"/>
<path d="M120.375 130.016L133.75 130.016L133.75 128.384L120.375 128.384L120.375 130.016Z" fill="#3F84FF" fill-opacity="0.2"/>
<path d="M86.135 136L87.74 136L87.74 122.4L86.135 122.4L86.135 136Z" fill="#3F84FF" fill-opacity="0.2"/>
<path d="M80.25 130.016L93.625 130.016L93.625 128.384L80.25 128.384L80.25 130.016Z" fill="#3F84FF" fill-opacity="0.2"/>
<path d="M46.01 136L47.615 136L47.615 122.4L46.01 122.4L46.01 136Z" fill="#3F84FF" fill-opacity="0.2"/>
<path d="M40.125 130.016L53.5 130.016L53.5 128.384L40.125 128.384L40.125 130.016Z" fill="#3F84FF" fill-opacity="0.2"/>
<path d="M5.88498 136L7.48999 136L7.48999 122.4L5.88498 122.4L5.88498 136Z" fill="#3F84FF" fill-opacity="0.2"/>
<path d="M-9.53674e-07 130.016L13.375 130.016L13.375 128.384L-8.11e-07 128.384L-9.53674e-07 130.016Z" fill="#3F84FF" fill-opacity="0.2"/>
<path d="M126.26 95.2L127.865 95.2L127.865 81.6L126.26 81.6L126.26 95.2Z" fill="#3F84FF" fill-opacity="0.2"/>
<path d="M120.375 89.2159L133.75 89.2159L133.75 87.5839L120.375 87.5839L120.375 89.2159Z" fill="#3F84FF" fill-opacity="0.2"/>
<path d="M86.135 95.2L87.74 95.2L87.74 81.6L86.135 81.6L86.135 95.2Z" fill="#3F84FF" fill-opacity="0.2"/>
<path d="M80.25 89.2159L93.625 89.2159L93.625 87.5839L80.25 87.5839L80.25 89.2159Z" fill="#3F84FF" fill-opacity="0.2"/>
<path d="M46.01 95.2L47.615 95.2L47.615 81.6L46.01 81.6L46.01 95.2Z" fill="#3F84FF" fill-opacity="0.2"/>
<path d="M40.125 89.2159L53.5 89.2159L53.5 87.5839L40.125 87.5839L40.125 89.2159Z" fill="#3F84FF" fill-opacity="0.2"/>
<path d="M5.88498 95.2L7.48999 95.2L7.48999 81.6L5.88498 81.6L5.88498 95.2Z" fill="#3F84FF" fill-opacity="0.2"/>
<path d="M-9.53674e-07 89.2159L13.375 89.2159L13.375 87.5839L-8.11001e-07 87.5839L-9.53674e-07 89.2159Z" fill="#3F84FF" fill-opacity="0.2"/>
<path d="M126.26 54.4L127.865 54.4L127.865 40.8L126.26 40.8L126.26 54.4Z" fill="#3F84FF" fill-opacity="0.2"/>
<path d="M120.375 48.416L133.75 48.416L133.75 46.784L120.375 46.784L120.375 48.416Z" fill="#3F84FF" fill-opacity="0.2"/>
<path d="M86.135 54.4L87.74 54.4L87.74 40.8L86.135 40.8L86.135 54.4Z" fill="#3F84FF" fill-opacity="0.2"/>
<path d="M80.25 48.416L93.625 48.416L93.625 46.784L80.25 46.784L80.25 48.416Z" fill="#3F84FF" fill-opacity="0.2"/>
<path d="M46.01 54.4L47.615 54.4L47.615 40.8L46.01 40.8L46.01 54.4Z" fill="#3F84FF" fill-opacity="0.2"/>
<path d="M40.125 48.416L53.5 48.416L53.5 46.784L40.125 46.784L40.125 48.416Z" fill="#3F84FF" fill-opacity="0.2"/>
<path d="M5.88498 54.4L7.48999 54.4L7.48999 40.8L5.88498 40.8L5.88498 54.4Z" fill="#3F84FF" fill-opacity="0.2"/>
<path d="M-9.53674e-07 48.416L13.375 48.416L13.375 46.784L-8.11e-07 46.784L-9.53674e-07 48.416Z" fill="#3F84FF" fill-opacity="0.2"/>
<path d="M126.26 13.6L127.865 13.6L127.865 -2.19345e-05L126.26 -2.20748e-05L126.26 13.6Z" fill="#3F84FF" fill-opacity="0.2"/>
<path d="M120.375 7.61597L133.75 7.61597L133.75 5.98398L120.375 5.98398L120.375 7.61597Z" fill="#3F84FF" fill-opacity="0.2"/>
<path d="M86.135 13.6L87.74 13.6L87.74 -2.19345e-05L86.135 -2.20748e-05L86.135 13.6Z" fill="#3F84FF" fill-opacity="0.2"/>
<path d="M80.25 7.61597L93.625 7.61597L93.625 5.98398L80.25 5.98398L80.25 7.61597Z" fill="#3F84FF" fill-opacity="0.2"/>
<path d="M46.01 13.6L47.615 13.6L47.615 -2.19345e-05L46.01 -2.20748e-05L46.01 13.6Z" fill="#3F84FF" fill-opacity="0.2"/>
<path d="M40.125 7.61597L53.5 7.61597L53.5 5.98398L40.125 5.98398L40.125 7.61597Z" fill="#3F84FF" fill-opacity="0.2"/>
<path d="M5.88498 13.6L7.48999 13.6L7.48999 -2.19345e-05L5.88498 -2.20748e-05L5.88498 13.6Z" fill="#3F84FF" fill-opacity="0.2"/>
<path d="M-9.53674e-07 7.61597L13.375 7.61597L13.375 5.98398L-8.11001e-07 5.98398L-9.53674e-07 7.61597Z" fill="#3F84FF" fill-opacity="0.2"/>
</g>
<defs>
<clipPath id="clip0">
<rect width="214" height="136" fill="white" transform="translate(214 136) rotate(-180)"/>
</clipPath>
</defs>
</svg>
