<svg width="248" height="156" viewBox="0 0 248 156" fill="none" xmlns="http://www.w3.org/2000/svg">
<path d="M8.67995 0H6.81995V15.6H8.67995V0Z" fill="#3F84FF" fill-opacity="0.1"/>
<path d="M15.5 6.86401H0V8.73601H15.5V6.86401Z" fill="#3F84FF" fill-opacity="0.1"/>
<path d="M55.1799 0H53.3199V15.6H55.1799V0Z" fill="#3F84FF" fill-opacity="0.1"/>
<path d="M62 6.86401H46.5V8.73601H62V6.86401Z" fill="#3F84FF" fill-opacity="0.1"/>
<path d="M101.68 0H99.8199V15.6H101.68V0Z" fill="#3F84FF" fill-opacity="0.1"/>
<path d="M108.5 6.86401H93V8.73601H108.5V6.86401Z" fill="#3F84FF" fill-opacity="0.1"/>
<path d="M148.18 0H146.32V15.6H148.18V0Z" fill="#3F84FF" fill-opacity="0.1"/>
<path d="M155 6.86401H139.5V8.73601H155V6.86401Z" fill="#3F84FF" fill-opacity="0.1"/>
<path d="M194.68 0H192.82V15.6H194.68V0Z" fill="#3F84FF" fill-opacity="0.1"/>
<path d="M201.5 6.86401H186V8.73601H201.5V6.86401Z" fill="#3F84FF" fill-opacity="0.1"/>
<path d="M241.18 0H239.32V15.6H241.18V0Z" fill="#3F84FF" fill-opacity="0.1"/>
<path d="M248 6.86401H232.5V8.73601H248V6.86401Z" fill="#3F84FF" fill-opacity="0.1"/>
<path d="M8.67995 46.8H6.81995V62.4H8.67995V46.8Z" fill="#3F84FF" fill-opacity="0.1"/>
<path d="M15.5 53.6641H0V55.5361H15.5V53.6641Z" fill="#3F84FF" fill-opacity="0.1"/>
<path d="M55.1799 46.8H53.3199V62.4H55.1799V46.8Z" fill="#3F84FF" fill-opacity="0.1"/>
<path d="M62 53.6641H46.5V55.5361H62V53.6641Z" fill="#3F84FF" fill-opacity="0.1"/>
<path d="M101.68 46.8H99.8199V62.4H101.68V46.8Z" fill="#3F84FF" fill-opacity="0.1"/>
<path d="M108.5 53.6641H93V55.5361H108.5V53.6641Z" fill="#3F84FF" fill-opacity="0.1"/>
<path d="M148.18 46.8H146.32V62.4H148.18V46.8Z" fill="#3F84FF" fill-opacity="0.1"/>
<path d="M155 53.6641H139.5V55.5361H155V53.6641Z" fill="#3F84FF" fill-opacity="0.1"/>
<path d="M194.68 46.8H192.82V62.4H194.68V46.8Z" fill="#3F84FF" fill-opacity="0.1"/>
<path d="M201.5 53.6641H186V55.5361H201.5V53.6641Z" fill="#3F84FF" fill-opacity="0.1"/>
<path d="M241.18 46.8H239.32V62.4H241.18V46.8Z" fill="#3F84FF" fill-opacity="0.1"/>
<path d="M248 53.6641H232.5V55.5361H248V53.6641Z" fill="#3F84FF" fill-opacity="0.1"/>
<path d="M8.67995 93.6H6.81995V109.2H8.67995V93.6Z" fill="#3F84FF" fill-opacity="0.1"/>
<path d="M15.5 100.464H0V102.336H15.5V100.464Z" fill="#3F84FF" fill-opacity="0.1"/>
<path d="M55.1799 93.6H53.3199V109.2H55.1799V93.6Z" fill="#3F84FF" fill-opacity="0.1"/>
<path d="M62 100.464H46.5V102.336H62V100.464Z" fill="#3F84FF" fill-opacity="0.1"/>
<path d="M101.68 93.6H99.8199V109.2H101.68V93.6Z" fill="#3F84FF" fill-opacity="0.1"/>
<path d="M108.5 100.464H93V102.336H108.5V100.464Z" fill="#3F84FF" fill-opacity="0.1"/>
<path d="M148.18 93.6H146.32V109.2H148.18V93.6Z" fill="#3F84FF" fill-opacity="0.1"/>
<path d="M155 100.464H139.5V102.336H155V100.464Z" fill="#3F84FF" fill-opacity="0.1"/>
<path d="M194.68 93.6H192.82V109.2H194.68V93.6Z" fill="#3F84FF" fill-opacity="0.1"/>
<path d="M201.5 100.464H186V102.336H201.5V100.464Z" fill="#3F84FF" fill-opacity="0.1"/>
<path d="M241.18 93.6H239.32V109.2H241.18V93.6Z" fill="#3F84FF" fill-opacity="0.1"/>
<path d="M248 100.464H232.5V102.336H248V100.464Z" fill="#3F84FF" fill-opacity="0.1"/>
<path d="M8.67995 140.4H6.81995V156H8.67995V140.4Z" fill="#3F84FF" fill-opacity="0.1"/>
<path d="M15.5 147.264H0V149.136H15.5V147.264Z" fill="#3F84FF" fill-opacity="0.1"/>
<path d="M55.1799 140.4H53.3199V156H55.1799V140.4Z" fill="#3F84FF" fill-opacity="0.1"/>
<path d="M62 147.264H46.5V149.136H62V147.264Z" fill="#3F84FF" fill-opacity="0.1"/>
<path d="M101.68 140.4H99.8199V156H101.68V140.4Z" fill="#3F84FF" fill-opacity="0.1"/>
<path d="M108.5 147.264H93V149.136H108.5V147.264Z" fill="#3F84FF" fill-opacity="0.1"/>
<path d="M148.18 140.4H146.32V156H148.18V140.4Z" fill="#3F84FF" fill-opacity="0.1"/>
<path d="M155 147.264H139.5V149.136H155V147.264Z" fill="#3F84FF" fill-opacity="0.1"/>
<path d="M194.68 140.4H192.82V156H194.68V140.4Z" fill="#3F84FF" fill-opacity="0.1"/>
<path d="M201.5 147.264H186V149.136H201.5V147.264Z" fill="#3F84FF" fill-opacity="0.1"/>
<path d="M241.18 140.4H239.32V156H241.18V140.4Z" fill="#3F84FF" fill-opacity="0.1"/>
<path d="M248 147.264H232.5V149.136H248V147.264Z" fill="#3F84FF" fill-opacity="0.1"/>
</svg>
