<svg width="176" height="111" viewBox="0 0 176 111" fill="none" xmlns="http://www.w3.org/2000/svg">
<g clip-path="url(#clip0)">
<path d="M169.84 111L171.16 111L171.16 99.9L169.84 99.9L169.84 111Z" fill="#3F84FF" fill-opacity="0.2"/>
<path d="M165 106.116L176 106.116L176 104.784L165 104.784L165 106.116Z" fill="#3F84FF" fill-opacity="0.2"/>
<path d="M136.84 111L138.16 111L138.16 99.9L136.84 99.9L136.84 111Z" fill="#3F84FF" fill-opacity="0.2"/>
<path d="M132 106.116L143 106.116L143 104.784L132 104.784L132 106.116Z" fill="#3F84FF" fill-opacity="0.2"/>
<path d="M103.84 111L105.16 111L105.16 99.9L103.84 99.9L103.84 111Z" fill="#3F84FF" fill-opacity="0.2"/>
<path d="M99 106.116L110 106.116L110 104.784L99 104.784L99 106.116Z" fill="#3F84FF" fill-opacity="0.2"/>
<path d="M70.8399 111L72.1599 111L72.1599 99.9L70.8399 99.9L70.8399 111Z" fill="#3F84FF" fill-opacity="0.2"/>
<path d="M66 106.116L77 106.116L77 104.784L66 104.784L66 106.116Z" fill="#3F84FF" fill-opacity="0.2"/>
<path d="M37.84 111L39.16 111L39.16 99.9L37.84 99.9L37.84 111Z" fill="#3F84FF" fill-opacity="0.2"/>
<path d="M33 106.116L44 106.116L44 104.784L33 104.784L33 106.116Z" fill="#3F84FF" fill-opacity="0.2"/>
<path d="M4.84003 111L6.16003 111L6.16004 99.9L4.84003 99.9L4.84003 111Z" fill="#3F84FF" fill-opacity="0.2"/>
<path d="M0 106.116L11 106.116L11 104.784L1.16447e-07 104.784L0 106.116Z" fill="#3F84FF" fill-opacity="0.2"/>
<path d="M169.84 77.7L171.16 77.7L171.16 66.6L169.84 66.6L169.84 77.7Z" fill="#3F84FF" fill-opacity="0.2"/>
<path d="M165 72.816L176 72.816L176 71.484L165 71.484L165 72.816Z" fill="#3F84FF" fill-opacity="0.2"/>
<path d="M136.84 77.7L138.16 77.7L138.16 66.6L136.84 66.6L136.84 77.7Z" fill="#3F84FF" fill-opacity="0.2"/>
<path d="M132 72.816L143 72.816L143 71.484L132 71.484L132 72.816Z" fill="#3F84FF" fill-opacity="0.2"/>
<path d="M103.84 77.7L105.16 77.7L105.16 66.6L103.84 66.6L103.84 77.7Z" fill="#3F84FF" fill-opacity="0.2"/>
<path d="M99 72.816L110 72.816L110 71.484L99 71.484L99 72.816Z" fill="#3F84FF" fill-opacity="0.2"/>
<path d="M70.8399 77.7L72.1599 77.7L72.1599 66.6L70.8399 66.6L70.8399 77.7Z" fill="#3F84FF" fill-opacity="0.2"/>
<path d="M66 72.816L77 72.816L77 71.484L66 71.484L66 72.816Z" fill="#3F84FF" fill-opacity="0.2"/>
<path d="M37.84 77.7L39.16 77.7L39.16 66.6L37.84 66.6L37.84 77.7Z" fill="#3F84FF" fill-opacity="0.2"/>
<path d="M33 72.816L44 72.816L44 71.484L33 71.484L33 72.816Z" fill="#3F84FF" fill-opacity="0.2"/>
<path d="M4.84003 77.7L6.16003 77.7L6.16004 66.6L4.84003 66.6L4.84003 77.7Z" fill="#3F84FF" fill-opacity="0.2"/>
<path d="M0 72.816L11 72.816L11 71.484L1.16447e-07 71.484L0 72.816Z" fill="#3F84FF" fill-opacity="0.2"/>
<path d="M169.84 44.4L171.16 44.4L171.16 33.3L169.84 33.3L169.84 44.4Z" fill="#3F84FF" fill-opacity="0.2"/>
<path d="M165 39.516L176 39.516L176 38.184L165 38.184L165 39.516Z" fill="#3F84FF" fill-opacity="0.2"/>
<path d="M136.84 44.4L138.16 44.4L138.16 33.3L136.84 33.3L136.84 44.4Z" fill="#3F84FF" fill-opacity="0.2"/>
<path d="M132 39.516L143 39.516L143 38.184L132 38.184L132 39.516Z" fill="#3F84FF" fill-opacity="0.2"/>
<path d="M103.84 44.4L105.16 44.4L105.16 33.3L103.84 33.3L103.84 44.4Z" fill="#3F84FF" fill-opacity="0.2"/>
<path d="M99 39.516L110 39.516L110 38.184L99 38.184L99 39.516Z" fill="#3F84FF" fill-opacity="0.2"/>
<path d="M70.8399 44.4L72.1599 44.4L72.1599 33.3L70.8399 33.3L70.8399 44.4Z" fill="#3F84FF" fill-opacity="0.2"/>
<path d="M66 39.516L77 39.516L77 38.184L66 38.184L66 39.516Z" fill="#3F84FF" fill-opacity="0.2"/>
<path d="M37.84 44.4L39.16 44.4L39.16 33.3L37.84 33.3L37.84 44.4Z" fill="#3F84FF" fill-opacity="0.2"/>
<path d="M33 39.516L44 39.516L44 38.184L33 38.184L33 39.516Z" fill="#3F84FF" fill-opacity="0.2"/>
<path d="M4.84003 44.4L6.16003 44.4L6.16004 33.3L4.84003 33.3L4.84003 44.4Z" fill="#3F84FF" fill-opacity="0.2"/>
<path d="M0 39.516L11 39.516L11 38.184L1.16448e-07 38.184L0 39.516Z" fill="#3F84FF" fill-opacity="0.2"/>
<path d="M169.84 11.1L171.16 11.1L171.16 3.8147e-05L169.84 3.80316e-05L169.84 11.1Z" fill="#3F84FF" fill-opacity="0.2"/>
<path d="M165 6.216L176 6.216L176 4.88401L165 4.88401L165 6.216Z" fill="#3F84FF" fill-opacity="0.2"/>
<path d="M136.84 11.1L138.16 11.1L138.16 3.8147e-05L136.84 3.80316e-05L136.84 11.1Z" fill="#3F84FF" fill-opacity="0.2"/>
<path d="M132 6.216L143 6.216L143 4.88401L132 4.88401L132 6.216Z" fill="#3F84FF" fill-opacity="0.2"/>
<path d="M103.84 11.1L105.16 11.1L105.16 3.8147e-05L103.84 3.80316e-05L103.84 11.1Z" fill="#3F84FF" fill-opacity="0.2"/>
<path d="M99 6.216L110 6.216L110 4.88401L99 4.88401L99 6.216Z" fill="#3F84FF" fill-opacity="0.2"/>
<path d="M70.8401 11.1L72.16 11.1L72.16 -2.28882e-05L70.8401 -2.30036e-05L70.8401 11.1Z" fill="#3F84FF" fill-opacity="0.2"/>
<path d="M66 6.216L77 6.216L77 4.88401L66 4.88401L66 6.216Z" fill="#3F84FF" fill-opacity="0.2"/>
<path d="M37.84 11.1L39.16 11.1L39.16 -2.28882e-05L37.84 -2.30036e-05L37.84 11.1Z" fill="#3F84FF" fill-opacity="0.2"/>
<path d="M33 6.216L44 6.216L44 4.88401L33 4.88401L33 6.216Z" fill="#3F84FF" fill-opacity="0.2"/>
<path d="M4.84003 11.1L6.16003 11.1L6.16004 -2.28882e-05L4.84003 -2.30036e-05L4.84003 11.1Z" fill="#3F84FF" fill-opacity="0.2"/>
<path d="M0 6.216L11 6.216L11 4.88401L1.16447e-07 4.88401L0 6.216Z" fill="#3F84FF" fill-opacity="0.2"/>
</g>
<defs>
<clipPath id="clip0">
<rect width="176" height="111" fill="white" transform="translate(176 111) rotate(-180)"/>
</clipPath>
</defs>
</svg>
