<svg width="480" height="303" viewBox="0 0 480 303" fill="none" xmlns="http://www.w3.org/2000/svg">
<g clip-path="url(#clip0)">
<path d="M16.8 0.0620117H13.2V30.3046H16.8V0.0620117Z" fill="#3F84FF" fill-opacity="0.1"/>
<path d="M30 13.3688H0V16.9979H30V13.3688Z" fill="#3F84FF" fill-opacity="0.1"/>
<path d="M106.8 0.0620117H103.2V30.3046H106.8V0.0620117Z" fill="#3F84FF" fill-opacity="0.1"/>
<path d="M120 13.3688H90V16.9979H120V13.3688Z" fill="#3F84FF" fill-opacity="0.1"/>
<path d="M196.8 0.0620117H193.2V30.3046H196.8V0.0620117Z" fill="#3F84FF" fill-opacity="0.1"/>
<path d="M210 13.3688H180V16.9979H210V13.3688Z" fill="#3F84FF" fill-opacity="0.1"/>
<path d="M286.8 0.0620117H283.2V30.3046H286.8V0.0620117Z" fill="#3F84FF" fill-opacity="0.1"/>
<path d="M300 13.3688H270V16.9979H300V13.3688Z" fill="#3F84FF" fill-opacity="0.1"/>
<path d="M376.8 0.0620117H373.2V30.3046H376.8V0.0620117Z" fill="#3F84FF" fill-opacity="0.1"/>
<path d="M390 13.3688H360V16.9979H390V13.3688Z" fill="#3F84FF" fill-opacity="0.1"/>
<path d="M466.8 0.0620117H463.2V30.3046H466.8V0.0620117Z" fill="#3F84FF" fill-opacity="0.1"/>
<path d="M480 13.3688H450V16.9979H480V13.3688Z" fill="#3F84FF" fill-opacity="0.1"/>
<path d="M16.8 90.7898H13.2V121.032H16.8V90.7898Z" fill="#3F84FF" fill-opacity="0.1"/>
<path d="M30 104.096H0V107.726H30V104.096Z" fill="#3F84FF" fill-opacity="0.1"/>
<path d="M106.8 90.7898H103.2V121.032H106.8V90.7898Z" fill="#3F84FF" fill-opacity="0.1"/>
<path d="M120 104.096H90V107.726H120V104.096Z" fill="#3F84FF" fill-opacity="0.1"/>
<path d="M196.8 90.7898H193.2V121.032H196.8V90.7898Z" fill="#3F84FF" fill-opacity="0.1"/>
<path d="M210 104.096H180V107.726H210V104.096Z" fill="#3F84FF" fill-opacity="0.1"/>
<path d="M286.8 90.7898H283.2V121.032H286.8V90.7898Z" fill="#3F84FF" fill-opacity="0.1"/>
<path d="M300 104.096H270V107.726H300V104.096Z" fill="#3F84FF" fill-opacity="0.1"/>
<path d="M376.8 90.7898H373.2V121.032H376.8V90.7898Z" fill="#3F84FF" fill-opacity="0.1"/>
<path d="M390 104.096H360V107.726H390V104.096Z" fill="#3F84FF" fill-opacity="0.1"/>
<path d="M466.8 90.7898H463.2V121.032H466.8V90.7898Z" fill="#3F84FF" fill-opacity="0.1"/>
<path d="M480 104.096H450V107.726H480V104.096Z" fill="#3F84FF" fill-opacity="0.1"/>
<path d="M16.8 181.517H13.2V211.76H16.8V181.517Z" fill="#3F84FF" fill-opacity="0.1"/>
<path d="M30 194.824H0V198.453H30V194.824Z" fill="#3F84FF" fill-opacity="0.1"/>
<path d="M106.8 181.517H103.2V211.76H106.8V181.517Z" fill="#3F84FF" fill-opacity="0.1"/>
<path d="M120 194.824H90V198.453H120V194.824Z" fill="#3F84FF" fill-opacity="0.1"/>
<path d="M196.8 181.517H193.2V211.76H196.8V181.517Z" fill="#3F84FF" fill-opacity="0.1"/>
<path d="M210 194.824H180V198.453H210V194.824Z" fill="#3F84FF" fill-opacity="0.1"/>
<path d="M286.8 181.517H283.2V211.76H286.8V181.517Z" fill="#3F84FF" fill-opacity="0.1"/>
<path d="M300 194.824H270V198.453H300V194.824Z" fill="#3F84FF" fill-opacity="0.1"/>
<path d="M376.8 181.517H373.2V211.76H376.8V181.517Z" fill="#3F84FF" fill-opacity="0.1"/>
<path d="M390 194.824H360V198.453H390V194.824Z" fill="#3F84FF" fill-opacity="0.1"/>
<path d="M466.8 181.517H463.2V211.76H466.8V181.517Z" fill="#3F84FF" fill-opacity="0.1"/>
<path d="M480 194.824H450V198.453H480V194.824Z" fill="#3F84FF" fill-opacity="0.1"/>
<path d="M16.8 272.245H13.2V302.488H16.8V272.245Z" fill="#3F84FF" fill-opacity="0.1"/>
<path d="M30 285.552H0V289.181H30V285.552Z" fill="#3F84FF" fill-opacity="0.1"/>
<path d="M106.8 272.245H103.2V302.488H106.8V272.245Z" fill="#3F84FF" fill-opacity="0.1"/>
<path d="M120 285.552H90V289.181H120V285.552Z" fill="#3F84FF" fill-opacity="0.1"/>
<path d="M196.8 272.245H193.2V302.488H196.8V272.245Z" fill="#3F84FF" fill-opacity="0.1"/>
<path d="M210 285.552H180V289.181H210V285.552Z" fill="#3F84FF" fill-opacity="0.1"/>
<path d="M286.8 272.245H283.2V302.488H286.8V272.245Z" fill="#3F84FF" fill-opacity="0.1"/>
<path d="M300 285.552H270V289.181H300V285.552Z" fill="#3F84FF" fill-opacity="0.1"/>
<path d="M376.8 272.245H373.2V302.488H376.8V272.245Z" fill="#3F84FF" fill-opacity="0.1"/>
<path d="M390 285.552H360V289.181H390V285.552Z" fill="#3F84FF" fill-opacity="0.1"/>
<path d="M466.8 272.245H463.2V302.488H466.8V272.245Z" fill="#3F84FF" fill-opacity="0.1"/>
<path d="M480 285.552H450V289.181H480V285.552Z" fill="#3F84FF" fill-opacity="0.1"/>
</g>
<defs>
<clipPath id="clip0">
<rect width="480" height="302.426" fill="white" transform="translate(0 0.0620117)"/>
</clipPath>
</defs>
</svg>
