<svg width="126" height="70" viewBox="0 0 126 70" fill="none" xmlns="http://www.w3.org/2000/svg">
<path d="M74.4252 0.345956C74.4252 10.2427 66.3636 18.3245 56.4916 18.3245L-11.8273 18.3245C-21.6994 18.3245 -29.761 10.2427 -29.761 0.345961C-29.761 -9.55081 -21.6994 -17.6326 -11.8273 -17.6326L56.4916 -17.6326C66.3636 -17.6326 74.4252 -9.55081 74.4252 0.345956ZM-28.053 0.345961C-28.053 9.31812 -20.7771 16.6123 -11.8273 16.6123L56.4916 16.6123C65.4413 16.6123 72.7173 9.31812 72.7173 0.345956C72.7173 -8.6262 65.4413 -15.9204 56.4916 -15.9204L-11.8273 -15.9204C-20.7771 -15.9204 -28.053 -8.6262 -28.053 0.345961Z" fill="#529CFF" fill-opacity="0.2"/>
<path d="M82.9652 0.345885C82.9652 14.9685 71.0777 26.8857 56.4916 26.8857L-11.8272 26.8857C-26.4133 26.8857 -38.3008 14.9685 -38.3008 0.34589C-38.3008 -14.2767 -26.4133 -26.1939 -11.8272 -26.1939L56.4916 -26.1939C71.0777 -26.1939 82.9652 -14.2767 82.9652 0.345885ZM-36.5928 0.34589C-36.5928 14.0438 -25.491 25.1734 -11.8272 25.1734L56.4916 25.1734C70.1554 25.1734 81.2572 14.0438 81.2572 0.345885C81.2572 -13.3521 70.1554 -24.4817 56.4916 -24.4817L-11.8272 -24.4817C-25.491 -24.4817 -36.5928 -13.3521 -36.5928 0.34589Z" fill="#529CFF" fill-opacity="0.2"/>
<path d="M91.5052 0.34593C91.5052 19.6943 75.7918 35.447 56.4917 35.447L-11.8272 35.447C-31.1272 35.447 -46.8406 19.6943 -46.8406 0.345936C-46.8406 -19.0024 -31.1272 -34.7551 -11.8272 -34.7551L56.4917 -34.7551C75.7918 -34.7551 91.5052 -19.0024 91.5052 0.34593ZM-45.1326 0.345936C-45.1326 18.7697 -30.2049 33.7347 -11.8272 33.7347L56.4917 33.7347C74.8695 33.7347 89.7972 18.7697 89.7972 0.34593C89.7972 -18.0778 74.8695 -33.0428 56.4917 -33.0428L-11.8272 -33.0428C-30.2049 -33.0428 -45.1326 -18.0778 -45.1326 0.345936Z" fill="#529CFF" fill-opacity="0.2"/>
<path d="M100.045 0.345811C100.045 24.42 80.5058 44.0081 56.4918 44.0081L-11.8271 44.0081C-35.8412 44.0081 -55.3804 24.42 -55.3804 0.345818C-55.3804 -23.7283 -35.8412 -43.3164 -11.8271 -43.3164L56.4918 -43.3164C80.5058 -43.3164 100.045 -23.7283 100.045 0.345811ZM-53.6724 0.345817C-53.6724 23.4611 -34.8847 42.2958 -11.8271 42.2958L56.4918 42.2958C79.5494 42.2958 98.3371 23.4611 98.3371 0.345811C98.3371 -22.7695 79.5494 -41.6042 56.4918 -41.6042L-11.8271 -41.6042C-34.8847 -41.6042 -53.6724 -22.7695 -53.6724 0.345817Z" fill="#529CFF" fill-opacity="0.2"/>
<path d="M108.585 0.345867C108.585 29.1458 85.2197 52.5693 56.4916 52.5693L-11.8273 52.5693C-40.5554 52.5693 -63.9204 29.1458 -63.9204 0.345875C-63.9204 -28.4541 -40.5554 -51.8776 -11.8273 -51.8776L56.4916 -51.8776C85.2196 -51.8776 108.585 -28.4541 108.585 0.345867ZM-62.2124 0.345875C-62.2124 28.187 -39.5989 50.8571 -11.8273 50.8571L56.4916 50.8571C84.2632 50.8571 106.877 28.187 106.877 0.345867C106.877 -27.4952 84.2632 -50.1653 56.4916 -50.1653L-11.8273 -50.1653C-39.5989 -50.1653 -62.2124 -27.4952 -62.2124 0.345875Z" fill="#529CFF" fill-opacity="0.2"/>
<path d="M117.125 0.345847C117.125 33.8716 89.9337 61.1305 56.4916 61.1305L-11.8272 61.1306C-45.2693 61.1306 -72.4602 33.8716 -72.4602 0.345856C-72.4602 -33.1799 -45.2693 -60.4388 -11.8272 -60.4388L56.4916 -60.4388C89.9337 -60.4388 117.125 -33.1799 117.125 0.345847ZM-70.7522 0.345856C-70.7522 32.9128 -44.3128 59.4183 -11.8272 59.4183L56.4916 59.4183C88.9772 59.4183 115.417 32.9127 115.417 0.345848C115.417 -32.2211 88.9772 -58.7266 56.4916 -58.7266L-11.8272 -58.7266C-44.3128 -58.7266 -70.7522 -32.221 -70.7522 0.345856Z" fill="#529CFF" fill-opacity="0.2"/>
<path d="M125.665 0.345915C125.665 38.5975 94.6478 69.6918 56.4917 69.6918L-11.8272 69.6918C-49.9832 69.6918 -81 38.5975 -81 0.345924C-81 -37.9056 -49.9832 -69 -11.8272 -69L56.4917 -69C94.6478 -69 125.665 -37.9056 125.665 0.345915ZM-79.292 0.345924C-79.292 37.6386 -49.0268 67.9796 -11.8272 67.9796L56.4917 67.9796C93.6913 67.9796 123.957 37.6386 123.957 0.345915C123.957 -36.9468 93.6913 -67.2877 56.4917 -67.2877L-11.8272 -67.2877C-49.0268 -67.2877 -79.292 -36.9468 -79.292 0.345924Z" fill="#529CFF" fill-opacity="0.2"/>
</svg>
