<svg width="61" height="66" viewBox="0 0 61 66" fill="none" xmlns="http://www.w3.org/2000/svg">
<path d="M67.1841 3.75228L67.1841 2.95761L60.5473 2.95761L60.5473 3.75228L67.1841 3.75228Z" fill="#3F84FF" fill-opacity="0.2"/>
<path d="M67.1841 23.619L67.1841 22.8244L60.5473 22.8244L60.5473 23.619L67.1841 23.619Z" fill="#3F84FF" fill-opacity="0.2"/>
<path d="M67.1841 43.4859L67.1841 42.6912L60.5473 42.6912L60.5473 43.4859L67.1841 43.4859Z" fill="#3F84FF" fill-opacity="0.2"/>
<path d="M67.1841 63.3526L67.1841 62.558L60.5473 62.558L60.5473 63.3526L67.1841 63.3526Z" fill="#3F84FF" fill-opacity="0.2"/>
<path d="M47.2736 3.75228L47.2736 2.95761L40.6367 2.95761L40.6367 3.75228L47.2736 3.75228Z" fill="#3F84FF" fill-opacity="0.2"/>
<path d="M44.3534 6.66608L44.3534 0.0438232L43.557 0.0438232L43.557 6.66608L44.3534 6.66608Z" fill="#3F84FF" fill-opacity="0.2"/>
<path d="M47.2736 23.619L47.2736 22.8244L40.6367 22.8244L40.6367 23.619L47.2736 23.619Z" fill="#3F84FF" fill-opacity="0.2"/>
<path d="M44.3534 26.5329L44.3534 19.9106L43.557 19.9106L43.557 26.5329L44.3534 26.5329Z" fill="#3F84FF" fill-opacity="0.2"/>
<path d="M47.2736 43.4859L47.2736 42.6912L40.6367 42.6912L40.6367 43.4859L47.2736 43.4859Z" fill="#3F84FF" fill-opacity="0.2"/>
<path d="M44.3534 46.3996L44.3534 39.7774L43.557 39.7774L43.557 46.3996L44.3534 46.3996Z" fill="#3F84FF" fill-opacity="0.2"/>
<path d="M47.2736 63.3526L47.2736 62.558L40.6367 62.558L40.6367 63.3526L47.2736 63.3526Z" fill="#3F84FF" fill-opacity="0.2"/>
<path d="M44.3534 66.2665L44.3534 59.6442L43.557 59.6442L43.557 66.2665L44.3534 66.2665Z" fill="#3F84FF" fill-opacity="0.2"/>
<path d="M27.363 3.75231L27.363 2.95764L20.7262 2.95764L20.7262 3.75231L27.363 3.75231Z" fill="#3F84FF" fill-opacity="0.2"/>
<path d="M24.4429 6.66608L24.4429 0.0438232L23.6465 0.0438232L23.6464 6.66608L24.4429 6.66608Z" fill="#3F84FF" fill-opacity="0.2"/>
<path d="M27.363 23.619L27.363 22.8244L20.7262 22.8244L20.7262 23.619L27.363 23.619Z" fill="#3F84FF" fill-opacity="0.2"/>
<path d="M24.4429 26.5328L24.4429 19.9106L23.6465 19.9106L23.6464 26.5328L24.4429 26.5328Z" fill="#3F84FF" fill-opacity="0.2"/>
<path d="M27.363 43.4859L27.363 42.6912L20.7262 42.6912L20.7262 43.4859L27.363 43.4859Z" fill="#3F84FF" fill-opacity="0.2"/>
<path d="M24.4429 46.3996L24.4429 39.7774L23.6465 39.7774L23.6464 46.3996L24.4429 46.3996Z" fill="#3F84FF" fill-opacity="0.2"/>
<path d="M27.363 63.3526L27.363 62.558L20.7262 62.558L20.7262 63.3526L27.363 63.3526Z" fill="#3F84FF" fill-opacity="0.2"/>
<path d="M24.4429 66.2665L24.4429 59.6442L23.6465 59.6442L23.6464 66.2665L24.4429 66.2665Z" fill="#3F84FF" fill-opacity="0.2"/>
<path d="M7.45288 3.75231L7.45288 2.95764L0.816065 2.95764L0.816065 3.75231L7.45288 3.75231Z" fill="#3F84FF" fill-opacity="0.2"/>
<path d="M4.53235 6.66608L4.53235 0.0438232L3.73593 0.0438232L3.73593 6.66608L4.53235 6.66608Z" fill="#3F84FF" fill-opacity="0.2"/>
<path d="M7.45288 23.619L7.45288 22.8244L0.816065 22.8244L0.816065 23.619L7.45288 23.619Z" fill="#3F84FF" fill-opacity="0.2"/>
<path d="M4.53235 26.5329L4.53235 19.9106L3.73593 19.9106L3.73593 26.5329L4.53235 26.5329Z" fill="#3F84FF" fill-opacity="0.2"/>
<path d="M7.45288 43.4859L7.45288 42.6912L0.816065 42.6912L0.816065 43.4859L7.45288 43.4859Z" fill="#3F84FF" fill-opacity="0.2"/>
<path d="M4.53235 46.3996L4.53235 39.7774L3.73593 39.7774L3.73593 46.3996L4.53235 46.3996Z" fill="#3F84FF" fill-opacity="0.2"/>
<path d="M7.45288 63.3526L7.45288 62.558L0.816065 62.558L0.816065 63.3526L7.45288 63.3526Z" fill="#3F84FF" fill-opacity="0.2"/>
<path d="M4.53235 66.2665L4.53235 59.6442L3.73593 59.6442L3.73593 66.2665L4.53235 66.2665Z" fill="#3F84FF" fill-opacity="0.2"/>
</svg>
