<?xml version="1.0" encoding="UTF-8"?>
<svg width="33px" height="22px" viewBox="0 0 33 22" version="1.1" xmlns="http://www.w3.org/2000/svg" xmlns:xlink="http://www.w3.org/1999/xlink">
    <title>white/American Express </title>
    <g id="Identification" stroke="none" stroke-width="1" fill="none" fill-rule="evenodd">
        <g id="Payment-/-Mobile" transform="translate(-98.000000, -617.000000)">
            <g id="American-Express-" transform="translate(98.630435, 617.000000)">
                <path d="M0,3.00138694 C0,1.3437667 1.33615655,0 2.99803647,0 L28.5671809,0 C30.2229507,0 31.5652174,1.34308127 31.5652174,3.00138694 L31.5652174,18.9986131 C31.5652174,20.6562333 30.2290608,22 28.5671809,22 L2.99803647,22 C1.34226665,22 0,20.6569187 0,18.9986131 L0,3.00138694 Z" id="Rectangle-Copy-4" fill="#016FD0"></path>
                <g id="American_Express_logo_(2018)" transform="translate(0.000000, 5.260870)">
                    <path d="M6.13159546,11.3779522 L6.13159546,6.47048962 L11.3553009,6.47048962 L11.915748,7.19723933 L12.4947275,6.47048962 L31.4554889,6.47048962 L31.4554889,11.039508 C31.4554889,11.039508 30.9596315,11.373045 30.3861494,11.3779522 L19.8871845,11.3779522 L19.2553024,10.6043619 L19.2553024,11.3779522 L17.184673,11.3779522 L17.184673,10.0574101 C17.184673,10.0574101 16.9018218,10.2417423 16.2903169,10.2417423 L15.5855252,10.2417423 L15.5855252,11.3779522 L12.4504174,11.3779522 L11.8907711,10.6356161 L11.322532,11.3779522 L6.13159546,11.3779522 Z" id="path3082" fill="#FFFFFF"></path>
                    <path d="M0.031502213,2.77176342 L1.2094684,0.0400250685 L3.24663791,0.0400250685 L3.91514732,1.57023423 L3.91514732,0.0400250685 L6.44753682,0.0400250685 L6.84550081,1.14601488 L7.23131345,0.0400250685 L18.599117,0.0400250685 L18.599117,0.596042303 C18.599117,0.596042303 19.1967124,0.0400250685 20.1788225,0.0400250685 L23.8672588,0.0528476302 L24.5242277,1.56303016 L24.5242277,0.0400250685 L26.6434632,0.0400250685 L27.2267392,0.907503329 L27.2267392,0.0400250685 L29.3654172,0.0400250685 L29.3654172,4.94748453 L27.2267392,4.94748453 L26.6677665,4.07719546 L26.6677665,4.94748453 L23.5541397,4.94748453 L23.2410207,4.17389424 L22.4039728,4.17389424 L22.0959502,4.94748453 L19.9843972,4.94748453 C19.1393223,4.94748453 18.599117,4.40282021 18.599117,4.40282021 L18.599117,4.94748453 L15.4154032,4.94748453 L14.7835207,4.17389424 L14.7835207,4.94748453 L2.94484356,4.94748453 L2.63194027,4.17389424 L1.79756163,4.17389424 L1.4868698,4.94748453 L0.031502213,4.94748453 L0.031502213,2.77176342 Z" id="path3080" fill="#FFFFFF"></path>
                    <path d="M1.6263972,0.645010576 L0.0375780133,4.3195613 L1.07198128,4.3195613 L1.36513816,3.58374931 L3.06939733,3.58374931 L3.36103537,4.3195613 L4.41822286,4.3195613 L2.83092243,0.645010576 L1.6263972,0.645010576 Z M2.21422975,1.50018958 L2.73371006,2.78598355 L1.69323072,2.78598355 L2.21422975,1.50018958 L2.21422975,1.50018958 Z" id="path3046" fill="#016FD0" fill-rule="nonzero"></path>
                    <polygon id="path3048" fill="#016FD0" points="4.52758688 4.31894399 4.52758688 0.644390129 5.99753149 0.649820603 6.85250123 3.01893929 7.68699801 0.644390129 9.14518756 0.644390129 9.14518756 4.31894399 8.22166743 4.31894399 8.22166743 1.61137799 7.24271663 4.31894399 6.43278749 4.31894399 5.45110702 1.61137799 5.45110702 4.31894399"></polygon>
                    <polygon id="path3050" fill="#016FD0" points="9.77706966 4.31894399 9.77706966 0.644390129 12.7906618 0.644390129 12.7906618 1.46633137 10.7103111 1.46633137 10.7103111 2.09487192 12.7420554 2.09487192 12.7420554 2.8684622 10.7103111 2.8684622 10.7103111 3.52117822 12.7906618 3.52117822 12.7906618 4.31894399"></polygon>
                    <path d="M13.3253312,0.645010576 L13.3253312,4.3195613 L14.2488513,4.3195613 L14.2488513,3.01412926 L14.6377017,3.01412926 L15.7450146,4.3195613 L16.8735927,4.3195613 L15.6584345,2.96578143 C16.1571429,2.92392009 16.6715725,2.49814963 16.6715725,1.83712652 C16.6715725,1.06387152 16.0614291,0.645010576 15.3804672,0.645010576 L13.3253312,0.645010576 L13.3253312,0.645010576 Z M14.2488513,1.46694869 L15.3045198,1.46694869 C15.5577601,1.46694869 15.7419768,1.66399373 15.7419768,1.85374383 C15.7419768,2.09786447 15.5032931,2.24053897 15.3181905,2.24053897 L14.2488513,2.24053897 L14.2488513,1.46694869 L14.2488513,1.46694869 Z" id="path3052" fill="#016FD0" fill-rule="nonzero"></path>
                    <polygon id="path3054" fill="#016FD0" points="17.9915382 4.31894399 17.0485755 4.31894399 17.0485755 0.644390129 17.9915382 0.644390129"></polygon>
                    <path d="M20.2274289,4.31894399 L20.0238899,4.31894399 C19.0390766,4.31894399 18.4411466,3.54717117 18.4411466,2.49677712 C18.4411466,1.420434 19.032382,0.644390129 20.2760352,0.644390129 L21.296768,0.644390129 L21.296768,1.5146792 L20.2387167,1.5146792 C19.7338623,1.5146792 19.3768181,1.90658519 19.3768181,2.50584254 C19.3768181,3.21746338 19.7850827,3.51634313 20.3732479,3.51634313 L20.6162793,3.51634313 L20.2274289,4.31894399 Z" id="path3056" fill="#016FD0"></path>
                    <path d="M22.2369963,0.645010576 L20.6481775,4.3195613 L21.6825807,4.3195613 L21.9757374,3.58374931 L23.6799968,3.58374931 L23.9716345,4.3195613 L25.028822,4.3195613 L23.4415218,0.645010576 L22.2369963,0.645010576 Z M22.8248292,1.50018958 L23.3443092,2.78598355 L22.3038301,2.78598355 L22.8248292,1.50018958 Z" id="path3058" fill="#016FD0" fill-rule="nonzero"></path>
                    <polygon id="path3060" fill="#016FD0" points="25.1366673 4.31894399 25.1366673 0.644390129 26.3108137 0.644390129 27.810015 2.95307481 27.810015 0.644390129 28.7335351 0.644390129 28.7335351 4.31894399 27.5973625 4.31894399 26.0601874 1.9498253 26.0601874 4.31894399"></polygon>
                    <polygon id="path3062" fill="#016FD0" points="6.76347787 10.7494117 6.76347787 7.07485781 9.77706966 7.07485781 9.77706966 7.89679906 7.69671927 7.89679906 7.69671927 8.5253396 9.72846332 8.5253396 9.72846332 9.29892989 7.69671927 9.29892989 7.69671927 9.95164591 9.77706966 9.95164591 9.77706966 10.7494117"></polygon>
                    <polygon id="path3064" fill="#016FD0" points="21.5300781 10.7494117 21.5300781 7.07485781 24.5436702 7.07485781 24.5436702 7.89679906 22.4633195 7.89679906 22.4633195 8.5253396 24.4853426 8.5253396 24.4853426 9.29892989 22.4633195 9.29892989 22.4633195 9.95164591 24.5436702 9.95164591 24.5436702 10.7494117"></polygon>
                    <polygon id="path3066" fill="#016FD0" points="9.89402856 10.7494117 11.361332 8.93479671 9.85909292 7.07485781 11.0226067 7.07485781 11.9172667 8.22466432 12.8149648 7.07485781 13.9329103 7.07485781 12.4504174 8.91213474 13.9204218 10.7494117 12.7570921 10.7494117 11.8884069 9.61772973 11.0408342 10.7494117"></polygon>
                    <path d="M14.0301229,7.07547826 L14.0301229,10.750029 L14.9779461,10.750029 L14.9779461,9.58964356 L15.9500726,9.58964356 C16.7726291,9.58964356 17.3961105,9.15556913 17.3961105,8.31140776 C17.3961105,7.61210811 16.9071107,7.07547826 16.0700695,7.07547826 L14.0301229,7.07547826 L14.0301229,7.07547826 Z M14.9779461,7.90648179 L16.0017167,7.90648179 C16.2674523,7.90648179 16.4574009,8.0684904 16.4574009,8.32953858 C16.4574009,8.57477791 16.2684113,8.75259538 15.9986789,8.75259538 L14.9779461,8.75259538 L14.9779461,7.90648179 Z" id="path3068" fill="#016FD0" fill-rule="nonzero"></path>
                    <path d="M17.7971128,7.07485781 L17.7971128,10.7494117 L18.720633,10.7494117 L18.720633,9.4439765 L19.1094834,9.4439765 L20.2167962,10.7494117 L21.3453744,10.7494117 L20.1302162,9.39562867 C20.6289243,9.35376107 21.1433541,8.92799687 21.1433541,8.26697062 C21.1433541,7.49371876 20.5332108,7.07485781 19.8522489,7.07485781 L17.7971128,7.07485781 L17.7971128,7.07485781 Z M18.720633,7.89679906 L19.7763014,7.89679906 C20.0295417,7.89679906 20.2137582,8.09384097 20.2137582,8.28359107 C20.2137582,8.52771485 19.9750744,8.67038621 19.7899718,8.67038621 L18.720633,8.67038621 L18.720633,7.89679906 L18.720633,7.89679906 Z" id="path3072" fill="#016FD0" fill-rule="nonzero"></path>
                    <path d="M24.9714057,10.7494117 L24.9714057,9.95164591 L26.8196613,9.95164591 C27.0931368,9.95164591 27.2115498,9.80464395 27.2115498,9.64341872 C27.2115498,9.48894634 27.0935101,9.33277556 26.8196613,9.33277556 L25.9844558,9.33277556 C25.2584649,9.33277556 24.8541431,8.89279436 24.8541431,8.23222248 C24.8541431,7.64303956 25.2244038,7.07485781 26.3032191,7.07485781 L28.101653,7.07485781 L27.7128023,7.90163102 L26.1574001,7.90163102 C25.8600756,7.90163102 25.7685494,8.05682413 25.7685494,8.20502624 C25.7685494,8.35735527 25.8816537,8.5253396 26.1087937,8.5253396 L26.9837075,8.5253396 C27.7930085,8.5253396 28.1441835,8.98197571 28.1441835,9.57996083 C28.1441835,10.2228531 27.7528593,10.7494117 26.9396504,10.7494117 L24.9714057,10.7494117 Z" id="path3074" fill="#016FD0"></path>
                    <path d="M28.3609377,10.7494117 L28.3609377,9.95164591 L30.209192,9.95164591 C30.482669,9.95164591 30.6010827,9.80464395 30.6010827,9.64341872 C30.6010827,9.48894634 30.4830408,9.33277556 30.209192,9.33277556 L29.3739877,9.33277556 C28.6479969,9.33277556 28.2436748,8.89279436 28.2436748,8.23222248 C28.2436748,7.64303956 28.6139354,7.07485781 29.6927507,7.07485781 L31.491184,7.07485781 L31.1023333,7.90163102 L29.5469317,7.90163102 C29.2496075,7.90163102 29.1580813,8.05682413 29.1580813,8.20502624 C29.1580813,8.35735527 29.2711853,8.5253396 29.4983254,8.5253396 L30.3732398,8.5253396 C31.1825411,8.5253396 31.5337152,8.98197571 31.5337152,9.57996083 C31.5337152,10.2228531 31.1423915,10.7494117 30.3291808,10.7494117 L28.3609377,10.7494117 Z" id="path3076" fill="#016FD0"></path>
                </g>
            </g>
        </g>
    </g>
</svg>