<?xml version="1.0" encoding="UTF-8"?>
<svg width="32px" height="22px" viewBox="0 0 32 22" version="1.1" xmlns="http://www.w3.org/2000/svg" xmlns:xlink="http://www.w3.org/1999/xlink">
    <title>white/Mastercard </title>
    <g id="Identification" stroke="none" stroke-width="1" fill="none" fill-rule="evenodd">
        <g id="Payment-/-Mobile" transform="translate(-59.000000, -617.000000)">
            <g id="Mastercard-" transform="translate(59.065217, 617.000000)">
                <path d="M28.5671809,0.5 C29.2570058,0.5 29.8815069,0.779824539 30.3335303,1.23235312 C30.7856588,1.68498696 31.0652174,2.3103735 31.0652174,3.00138694 L31.0652174,3.00138694 L31.0652174,18.9986131 C31.0652174,19.6900846 30.7865255,20.3161833 30.3341561,20.7690582 C29.8828507,21.2208679 29.258806,21.5 28.5671809,21.5 L28.5671809,21.5 L2.99803647,21.5 C2.30821162,21.5 1.68371054,21.2201755 1.23168712,20.7676469 C0.77955856,20.315013 0.5,19.6896265 0.5,18.9986131 L0.5,18.9986131 L0.5,3.00138694 C0.5,2.30991541 0.778691938,1.6838167 1.23106125,1.23094184 C1.68236666,0.779132066 2.30641143,0.5 2.99803647,0.5 L2.99803647,0.5 Z" id="Rectangle-Copy-4" stroke="#E6E7E8" fill="#FFFFFF"></path>
                <g id="mc_symbol" transform="translate(6.217391, 4.782609)">
                    <g id="Group" opacity="0" fill="#FFFFFF">
                        <rect id="Rectangle" x="0" y="0" width="19.042029" height="12.4204898"></rect>
                    </g>
                    <rect id="Rectangle" fill="#FF5F00" x="7.01014493" y="2.16393803" width="5.02318841" height="8.09118441"></rect>
                    <path d="M7.52753623,6.21024488 C7.52627498,4.63159941 8.26110272,3.14005113 9.52028986,2.16536732 C7.38112903,0.507403703 4.30920831,0.748900441 2.463391,2.72014011 C0.617573692,4.69137978 0.617573692,7.73053926 2.463391,9.70177893 C4.30920831,11.6730186 7.38112903,11.9145153 9.52028986,10.2565517 C8.260702,9.28155839 7.52582937,7.78939191 7.52753623,6.21024488 Z" id="Path" fill="#EB001B"></path>
                    <path d="M17.5937681,10.0473654 L17.5937681,9.34433511 L17.7604348,9.34433511 L17.7604348,9.19888056 L17.3637681,9.19888056 L17.3637681,9.34433511 L17.5204348,9.34433511 L17.5204348,10.0473654 L17.5937681,10.0473654 Z M18.3637681,10.0473654 L18.3637681,9.19888056 L18.2437681,9.19888056 L18.1037681,9.80494117 L17.9637681,9.19888056 L17.8437681,9.19888056 L17.8437681,10.0473654 L17.9304348,10.0473654 L17.9304348,9.40494117 L18.0604348,9.95645632 L18.1504348,9.95645632 L18.2804348,9.40494117 L18.2804348,10.0473654 L18.3637681,10.0473654 Z" id="Shape" fill="#F79E1B" fill-rule="nonzero"></path>
                    <path d="M17.9623188,6.21024488 C17.9623188,8.18028325 16.8216552,9.97736232 15.0248921,10.8382557 C13.2281289,11.6991491 11.0906652,11.4727156 9.52028986,10.2551224 C10.7789276,9.27961115 11.5138106,7.78826117 11.5138106,6.20953023 C11.5138106,4.6307993 10.7789276,3.13944932 9.52028986,2.16393803 C11.0906652,0.946344868 13.2281289,0.719911393 15.0248921,1.58080477 C16.8216552,2.44169815 17.9623188,4.23877722 17.9623188,6.20881559 L17.9623188,6.21024488 Z" id="Path" fill="#F79E1B"></path>
                </g>
            </g>
        </g>
    </g>
</svg>