<?xml version="1.0" encoding="UTF-8"?>
<svg width="33px" height="22px" viewBox="0 0 33 22" version="1.1" xmlns="http://www.w3.org/2000/svg" xmlns:xlink="http://www.w3.org/1999/xlink">
    <title>white/Visa</title>
    <g id="Identification" stroke="none" stroke-width="1" fill="none" fill-rule="evenodd">
        <g id="Payment-/-Mobile" transform="translate(-19.000000, -617.000000)">
            <g id="Visa-" transform="translate(19.500000, 617.000000)">
                <path d="M28.5671809,0.5 C29.2570058,0.5 29.8815069,0.779824539 30.3335303,1.23235312 C30.7856588,1.68498696 31.0652174,2.3103735 31.0652174,3.00138694 L31.0652174,3.00138694 L31.0652174,18.9986131 C31.0652174,19.6900846 30.7865255,20.3161833 30.3341561,20.7690582 C29.8828507,21.2208679 29.258806,21.5 28.5671809,21.5 L28.5671809,21.5 L2.99803647,21.5 C2.30821162,21.5 1.68371054,21.2201755 1.23168712,20.7676469 C0.77955856,20.315013 0.5,19.6896265 0.5,18.9986131 L0.5,18.9986131 L0.5,3.00138694 C0.5,2.30991541 0.778691938,1.6838167 1.23106125,1.23094184 C1.68236666,0.779132066 2.30641143,0.5 2.99803647,0.5 L2.99803647,0.5 Z" id="Rectangle-Copy-4" stroke="#E6E7E8" fill="#FFFFFF"></path>
                <g id="Visa_Inc._logo" transform="translate(5.260870, 7.652174)" fill="#0742A6">
                    <polygon id="polygon9" points="9.09764277 6.57321348 7.4047454 6.57321348 8.4636047 0.196984412 10.1564095 0.196984412"></polygon>
                    <path d="M15.2345461,0.352865019 C14.9006324,0.223851052 14.3710176,0.0814037648 13.7161504,0.0814037648 C12.0443599,0.0814037648 10.8670987,0.949610964 10.8598779,2.19088581 C10.8459918,3.10669564 11.7027625,3.61535868 12.3435585,3.92071878 C12.9985182,4.23275046 13.2211582,4.43641402 13.2211582,4.71454686 C13.2144929,5.1417084 12.6919137,5.33861022 12.2045126,5.33861022 C11.5286312,5.33861022 11.1664824,5.23709399 10.6161311,4.99944143 L10.3932133,4.89756457 L10.1563169,6.32888934 C10.553366,6.50505516 11.2848843,6.66138655 12.0443599,6.66823845 C13.8206663,6.66823845 14.9770984,5.81346457 14.9907993,4.49068824 C14.9975572,3.76483817 14.5451489,3.20866266 13.5697912,2.75418368 C12.9776891,2.46243722 12.6150775,2.26571571 12.6150775,1.9672075 C12.6220205,1.6958364 12.9217745,1.41788388 13.5901575,1.41788388 C14.1405088,1.40427025 14.5448712,1.5331039 14.851198,1.66202771 L15.0043151,1.72973525 L15.2345461,0.352865019 L15.2345461,0.352865019 L15.2345461,0.352865019 Z" id="path11"></path>
                    <path d="M17.4845527,4.3143421 C17.6239689,3.9480362 18.1604342,2.53032507 18.1604342,2.53032507 C18.1533985,2.5439387 18.2995726,2.15725743 18.3831668,1.91987533 L18.5014761,2.46928911 C18.5014761,2.46928911 18.8220592,3.99554868 18.8916747,4.3143421 C18.6270988,4.3143421 17.8189293,4.3143421 17.4845527,4.3143421 L17.4845527,4.3143421 Z M19.5742215,0.196984412 L18.2647648,0.196984412 C17.8609579,0.196984412 17.5541682,0.312204433 17.3799443,0.726022817 L14.8653618,6.57312333 L16.6416681,6.57312333 C16.6416681,6.57312333 16.9341088,5.78614714 16.9969664,5.6166529 C17.1918343,5.6166529 18.9198172,5.6166529 19.1705071,5.6166529 C19.2191083,5.84051152 19.3725031,6.57312333 19.3725031,6.57312333 L20.939963,6.57312333 L19.5742215,0.196984412 L19.5742215,0.196984412 L19.5742215,0.196984412 Z" id="path13" fill-rule="nonzero"></path>
                    <path d="M5.99077295,0.196984412 L4.33286848,4.54496246 L4.15170153,3.66314163 C3.84518962,2.64563525 2.88390312,1.54013611 1.81115775,0.990451863 L3.32973862,6.56645174 L5.11993106,6.56645174 L7.78087282,0.196984412 L5.99077295,0.196984412 L5.99077295,0.196984412 L5.99077295,0.196984412 Z" id="path15"></path>
                    <path d="M2.79336593,0.196984412 L0.0696591334,0.196984412 L0.0417944149,0.325818066 C2.16645605,0.854946628 3.57357805,2.13039079 4.15170153,3.6634121 L3.5595994,0.732964869 C3.46211918,0.325727909 3.16255031,0.210417732 2.79336593,0.196984412 L2.79336593,0.196984412 Z" id="path17"></path>
                </g>
            </g>
        </g>
    </g>
</svg>