<?xml version="1.0" encoding="UTF-8"?>
<svg width="1509px" height="871px" viewBox="0 0 1509 871" version="1.1" xmlns="http://www.w3.org/2000/svg" xmlns:xlink="http://www.w3.org/1999/xlink">
    <title>Group 2</title>
    <g id="Identification" stroke="none" stroke-width="1" fill="none" fill-rule="evenodd">
        <g id="Sign-in-/-Desktop" transform="translate(43.000000, -22.000000)" fill-rule="nonzero">
            <g id="Group-2" transform="translate(-42.500000, 22.000000)">
                <g id="Frame-4" transform="translate(929.500000, 0.000000)" fill="#529CFF" opacity="0.404264178">
                    <g id="Group">
                        <path d="M57.9231768,78 C57.9231768,66.8682319 67.0364406,57.7778029 78.1963188,57.7778029 L155.427096,57.7778029 C166.586974,57.7778029 175.700162,66.8682319 175.700162,78 C175.700162,89.1317681 166.586974,98.221971 155.427096,98.221971 L78.1963188,98.221971 C67.0364406,98.221971 57.9231768,89.1317681 57.9231768,78 Z M173.76938,78 C173.76938,67.9082319 165.544336,59.7037623 155.427096,59.7037623 L78.1963188,59.7037623 C68.0790783,59.7037623 59.8539594,67.9082319 59.8539594,78 C59.8539594,88.0917681 68.0790783,96.2964638 78.1963188,96.2964638 L155.427096,96.2964638 C165.544336,96.2964638 173.76938,88.0917681 173.76938,78 Z" id="Shape"></path>
                        <path d="M48.269113,78 C48.269113,61.5526261 61.7072696,48.1481565 78.1960174,48.1481565 L155.42687,48.1481565 C171.915617,48.1481565 185.353774,61.5526261 185.353774,78 C185.353774,94.4470725 171.915617,107.851768 155.426794,107.851768 L78.1960174,107.851768 C61.7072696,107.851768 48.269113,94.4470725 48.269113,78 Z M183.422991,78 C183.422991,62.5926261 170.87298,50.0741159 155.42687,50.0741159 L78.1960174,50.0741159 C62.7499072,50.0741159 50.1998957,62.5926261 50.1998957,78 C50.1998957,93.4070725 62.7498319,105.926261 78.1960174,105.926261 L155.426794,105.926261 C170.87298,105.926261 183.422991,93.4070725 183.422991,78 Z" id="Shape"></path>
                        <path d="M38.6156522,78 C38.6156522,56.2370203 56.3787768,38.5185101 78.1964696,38.5185101 L155.427322,38.5185101 C177.245014,38.5185101 195.00829,56.2370203 195.00829,78 C195.00829,99.7631304 177.245014,117.481565 155.427322,117.481565 L78.1964696,117.481565 C56.3787768,117.481565 38.6156522,99.7631304 38.6156522,78 Z M193.077507,78 C193.077507,57.2770203 176.202377,40.4443942 155.427322,40.4443942 L78.1964696,40.4443942 C57.4213391,40.4443942 40.5464348,57.2770203 40.5464348,78 C40.5464348,98.7231304 57.4213391,115.555304 78.1964696,115.555304 L155.427322,115.555304 C176.202377,115.555304 193.077507,98.7231304 193.077507,78 Z" id="Shape"></path>
                        <path d="M28.9617391,78 C28.9617391,50.9215652 51.0496058,28.8890145 78.1962435,28.8890145 L155.42702,28.8890145 C182.573658,28.8890145 204.661449,50.9215652 204.661449,78 C204.661449,105.078435 182.573658,127.111362 155.42702,127.111362 L78.1962435,127.111362 C51.0496058,127.111362 28.9617391,105.078435 28.9617391,78 Z M202.730667,78 C202.730667,52.0001507 181.492435,30.8148986 155.42702,30.8148986 L78.1962435,30.8148986 C52.130829,30.8148986 30.8925217,52.0001507 30.8925217,78 C30.8925217,104 52.130829,125.185101 78.1962435,125.185101 L155.42702,125.185101 C181.492435,125.185101 202.730667,104 202.730667,78 Z" id="Shape"></path>
                        <path d="M19.3078261,78 C19.3078261,45.6059594 45.7204348,19.2593681 78.1960174,19.2593681 L155.426794,19.2593681 C187.902377,19.2593681 214.315362,45.6060348 214.315362,78 C214.315362,110.394493 187.902301,136.741159 155.426794,136.741159 L78.1960174,136.741159 C45.7204348,136.741159 19.3078261,110.394493 19.3078261,78 Z M212.38458,78 C212.38458,46.6845449 186.821078,21.1852522 155.426794,21.1852522 L78.1960174,21.1852522 C46.801658,21.1852522 21.2386087,46.6845449 21.2386087,78 C21.2386087,109.315304 46.801658,134.814899 78.1960174,134.814899 L155.426794,134.814899 C186.821078,134.814899 212.38458,109.315304 212.38458,78 Z" id="Shape"></path>
                        <path d="M9.65391304,78 C9.65391304,40.290429 40.391942,9.62964638 78.1964696,9.62964638 L155.427246,9.62964638 C193.232,9.62964638 223.969275,40.290429 223.969275,78 C223.969275,115.709797 193.232,146.370203 155.427246,146.370203 L78.1963942,146.370203 C40.391942,146.370203 9.65391304,115.709797 9.65391304,78 Z M222.038493,78 C222.038493,41.3689391 192.150475,11.5556058 155.427246,11.5556058 L78.1964696,11.5556058 C41.4731652,11.5556058 11.5846957,41.3689391 11.5846957,78 C11.5846957,114.631362 41.4731652,144.444696 78.1963942,144.444696 L155.427246,144.444696 C192.150475,144.444696 222.038493,114.631362 222.038493,78 Z" id="Shape"></path>
                        <path d="M0,77.9999932 C0,34.9748232 35.0630725,-6.79392812e-06 78.1961681,-6.79392812e-06 L155.42702,-6.79392812e-06 C198.560116,-6.79392812e-06 233.623188,34.9748232 233.623188,77.9999932 C233.623188,121.025101 198.560116,155.999993 155.42702,155.999993 L78.1961681,155.999993 C35.0630725,155.999993 0,121.025101 0,77.9999932 Z M231.692406,78 C231.692406,36.0533333 197.47942,1.92592174 155.42702,1.92592174 L78.1961681,1.92592174 C36.1437681,1.92592174 1.93078261,36.0533333 1.93078261,78 C1.93078261,119.946667 36.1437681,154.073739 78.1961681,154.073739 L155.42702,154.073739 C197.47942,154.073739 231.692406,119.946667 231.692406,78 Z" id="Shape"></path>
                    </g>
                </g>
                <g id="Frame-4-Copy" transform="translate(244.500000, 514.000000) rotate(90.000000) translate(-244.500000, -514.000000) translate(132.000000, 439.000000)" fill="#529CFF" opacity="0.404264178">
                    <g id="Group">
                        <path d="M55.6953623,75 C55.6953623,64.2963768 64.4581159,55.5555797 75.1887681,55.5555797 L149.44913,55.5555797 C160.179783,55.5555797 168.942464,64.2963768 168.942464,75 C168.942464,85.7036232 160.179783,94.4442029 149.44913,94.4442029 L75.1887681,94.4442029 C64.4581159,94.4442029 55.6953623,85.7036232 55.6953623,75 Z M167.085942,75 C167.085942,65.2963768 159.177246,57.4074638 149.44913,57.4074638 L75.1887681,57.4074638 C65.4606522,57.4074638 57.5518841,65.2963768 57.5518841,75 C57.5518841,84.7036232 65.4606522,92.5927536 75.1887681,92.5927536 L149.44913,92.5927536 C159.177246,92.5927536 167.085942,84.7036232 167.085942,75 Z" id="Shape"></path>
                        <path d="M46.4126087,75 C46.4126087,59.1852174 59.333913,46.2963043 75.1884783,46.2963043 L149.448913,46.2963043 C165.303478,46.2963043 178.224783,59.1852174 178.224783,75 C178.224783,90.8144928 165.303478,103.703623 149.448841,103.703623 L75.1884783,103.703623 C59.333913,103.703623 46.4126087,90.8144928 46.4126087,75 Z M176.368261,75 C176.368261,60.1852174 164.300942,48.1481884 149.448913,48.1481884 L75.1884783,48.1481884 C60.3364493,48.1481884 48.2691304,60.1852174 48.2691304,75 C48.2691304,89.8144928 60.3363768,101.852174 75.1884783,101.852174 L149.448841,101.852174 C164.300942,101.852174 176.368261,89.8144928 176.368261,75 Z" id="Shape"></path>
                        <path d="M37.1304348,75 C37.1304348,54.074058 54.2103623,37.037029 75.188913,37.037029 L149.449348,37.037029 C170.427899,37.037029 187.507971,54.074058 187.507971,75 C187.507971,95.926087 170.427899,112.963043 149.449348,112.963043 L75.188913,112.963043 C54.2103623,112.963043 37.1304348,95.926087 37.1304348,75 Z M185.651449,75 C185.651449,55.074058 169.425362,38.8888406 149.449348,38.8888406 L75.188913,38.8888406 C55.2128261,38.8888406 38.9869565,55.074058 38.9869565,75 C38.9869565,94.926087 55.2128261,111.11087 75.188913,111.11087 L149.449348,111.11087 C169.425362,111.11087 185.651449,94.926087 185.651449,75 Z" id="Shape"></path>
                        <path d="M27.8478261,75 C27.8478261,48.9630435 49.0861594,27.7778986 75.1886957,27.7778986 L149.449058,27.7778986 C175.551594,27.7778986 196.789855,48.9630435 196.789855,75 C196.789855,101.036957 175.551594,122.222464 149.449058,122.222464 L75.1886957,122.222464 C49.0861594,122.222464 27.8478261,101.036957 27.8478261,75 Z M194.933333,75 C194.933333,50.0001449 174.511957,29.6297101 149.449058,29.6297101 L75.1886957,29.6297101 C50.1257971,29.6297101 29.7043478,50.0001449 29.7043478,75 C29.7043478,100 50.1257971,120.37029 75.1886957,120.37029 L149.449058,120.37029 C174.511957,120.37029 194.933333,100 194.933333,75 Z" id="Shape"></path>
                        <path d="M18.5652174,75 C18.5652174,43.8518841 43.9619565,18.5186232 75.1884783,18.5186232 L149.448841,18.5186232 C180.675362,18.5186232 206.072464,43.8519565 206.072464,75 C206.072464,106.148551 180.67529,131.481884 149.448841,131.481884 L75.1884783,131.481884 C43.9619565,131.481884 18.5652174,106.148551 18.5652174,75 Z M204.215942,75 C204.215942,44.8889855 179.635652,20.3704348 149.448841,20.3704348 L75.1884783,20.3704348 C45.0015942,20.3704348 20.4217391,44.8889855 20.4217391,75 C20.4217391,105.11087 45.0015942,129.62971 75.1884783,129.62971 L149.448841,129.62971 C179.635652,129.62971 204.215942,105.11087 204.215942,75 Z" id="Shape"></path>
                        <path d="M9.2826087,75 C9.2826087,38.7407971 38.8384058,9.25927536 75.188913,9.25927536 L149.449275,9.25927536 C185.8,9.25927536 215.355072,38.7407971 215.355072,75 C215.355072,111.25942 185.8,140.74058 149.449275,140.74058 L75.1888406,140.74058 C38.8384058,140.74058 9.2826087,111.25942 9.2826087,75 Z M213.498551,75 C213.498551,39.7778261 184.760072,11.1111594 149.449275,11.1111594 L75.188913,11.1111594 C39.8780435,11.1111594 11.1391304,39.7778261 11.1391304,75 C11.1391304,110.222464 39.8780435,138.88913 75.1888406,138.88913 L149.449275,138.88913 C184.760072,138.88913 213.498551,110.222464 213.498551,75 Z" id="Shape"></path>
                        <path d="M0,74.9999935 C0,33.6296377 33.7144928,-6.53262319e-06 75.1886232,-6.53262319e-06 L149.449058,-6.53262319e-06 C190.923188,-6.53262319e-06 224.637681,33.6296377 224.637681,74.9999935 C224.637681,116.37029 190.923188,149.999993 149.449058,149.999993 L75.1886232,149.999993 C33.7144928,149.999993 0,116.37029 0,74.9999935 Z M222.781159,75 C222.781159,34.6666667 189.884058,1.85184783 149.449058,1.85184783 L75.1886232,1.85184783 C34.7536232,1.85184783 1.85652174,34.6666667 1.85652174,75 C1.85652174,115.333333 34.7536232,148.147826 75.1886232,148.147826 L149.449058,148.147826 C189.884058,148.147826 222.781159,115.333333 222.781159,75 Z" id="Shape"></path>
                    </g>
                </g>
                <g id="Frame-1" transform="translate(0.000000, 147.000000)" fill="#3F84FF">
                    <polygon id="Path" fill-opacity="0.5" points="5.071416 0 3.984666 0 3.984666 9.1 5.071416 9.1"></polygon>
                    <polygon id="Path" fill-opacity="0.5" points="9.05625 4.004 0 4.004 0 5.096 9.05625 5.096"></polygon>
                    <polygon id="Path" fill-opacity="0.5" points="32.24018 0 31.15343 0 31.15343 9.1 32.24018 9.1"></polygon>
                    <polygon id="Path" fill-opacity="0.5" points="36.225 4.004 27.16875 4.004 27.16875 5.096 36.225 5.096"></polygon>
                    <polygon id="Path" fill-opacity="0.5" points="59.40893 0 58.32218 0 58.32218 9.1 59.40893 9.1"></polygon>
                    <polygon id="Path" fill-opacity="0.5" points="63.39375 4.004 54.3375 4.004 54.3375 5.096 63.39375 5.096"></polygon>
                    <polygon id="Path" fill-opacity="0.5" points="86.5774 0 85.491 0 85.491 9.1 86.5774 9.1"></polygon>
                    <polygon id="Path" fill-opacity="0.5" points="90.5625 4.004 81.5066 4.004 81.5066 5.096 90.5625 5.096"></polygon>
                    <polygon id="Path" fill-opacity="0.5" points="113.7465 0 112.6594 0 112.6594 9.1 113.7465 9.1"></polygon>
                    <polygon id="Path" fill-opacity="0.5" points="117.7316 4.004 108.675 4.004 108.675 5.096 117.7316 5.096"></polygon>
                    <polygon id="Path" fill-opacity="0.5" points="140.9149 0 139.8285 0 139.8285 9.1 140.9149 9.1"></polygon>
                    <polygon id="Path" fill-opacity="0.5" points="144.9 4.004 135.8434 4.004 135.8434 5.096 144.9 5.096"></polygon>
                    <polygon id="Path" fill-opacity="0.5" points="5.071416 27.3 3.984666 27.3 3.984666 36.4 5.071416 36.4"></polygon>
                    <polygon id="Path" fill-opacity="0.5" points="9.05625 31.304 0 31.304 0 32.396 9.05625 32.396"></polygon>
                    <polygon id="Path" fill-opacity="0.5" points="32.24018 27.3 31.15343 27.3 31.15343 36.4 32.24018 36.4"></polygon>
                    <polygon id="Path" fill-opacity="0.5" points="36.225 31.304 27.16875 31.304 27.16875 32.396 36.225 32.396"></polygon>
                    <polygon id="Path" fill-opacity="0.5" points="59.40893 27.3 58.32218 27.3 58.32218 36.4 59.40893 36.4"></polygon>
                    <polygon id="Path" fill-opacity="0.5" points="63.39375 31.304 54.3375 31.304 54.3375 32.396 63.39375 32.396"></polygon>
                    <polygon id="Path" fill-opacity="0.5" points="86.5774 27.3 85.491 27.3 85.491 36.4 86.5774 36.4"></polygon>
                    <polygon id="Path" fill-opacity="0.5" points="90.5625 31.304 81.5066 31.304 81.5066 32.396 90.5625 32.396"></polygon>
                    <polygon id="Path" fill-opacity="0.5" points="113.7465 27.3 112.6594 27.3 112.6594 36.4 113.7465 36.4"></polygon>
                    <polygon id="Path" fill-opacity="0.5" points="117.7316 31.304 108.675 31.304 108.675 32.396 117.7316 32.396"></polygon>
                    <polygon id="Path" fill-opacity="0.5" points="140.9149 27.3 139.8285 27.3 139.8285 36.4 140.9149 36.4"></polygon>
                    <polygon id="Path" fill-opacity="0.5" points="144.9 31.304 135.8434 31.304 135.8434 32.396 144.9 32.396"></polygon>
                    <polygon id="Path" fill-opacity="0.5" points="5.071416 54.6 3.984666 54.6 3.984666 63.7 5.071416 63.7"></polygon>
                    <polygon id="Path" fill-opacity="0.5" points="9.05625 58.604 0 58.604 0 59.696 9.05625 59.696"></polygon>
                    <polygon id="Path" fill-opacity="0.5" points="32.24018 54.6 31.15343 54.6 31.15343 63.7 32.24018 63.7"></polygon>
                    <polygon id="Path" fill-opacity="0.5" points="36.225 58.604 27.16875 58.604 27.16875 59.696 36.225 59.696"></polygon>
                    <polygon id="Path" fill-opacity="0.5" points="59.40893 54.6 58.32218 54.6 58.32218 63.7 59.40893 63.7"></polygon>
                    <polygon id="Path" fill-opacity="0.5" points="63.39375 58.604 54.3375 58.604 54.3375 59.696 63.39375 59.696"></polygon>
                    <polygon id="Path" fill-opacity="0.5" points="86.5774 54.6 85.491 54.6 85.491 63.7 86.5774 63.7"></polygon>
                    <polygon id="Path" fill-opacity="0.5" points="90.5625 58.604 81.5066 58.604 81.5066 59.696 90.5625 59.696"></polygon>
                    <polygon id="Path" fill-opacity="0.5" points="113.7465 54.6 112.6594 54.6 112.6594 63.7 113.7465 63.7"></polygon>
                    <polygon id="Path" fill-opacity="0.6" points="117.7316 58.604 108.675 58.604 108.675 59.696 117.7316 59.696"></polygon>
                    <polygon id="Path" fill-opacity="0.5" points="140.9149 54.6 139.8285 54.6 139.8285 63.7 140.9149 63.7"></polygon>
                    <polygon id="Path" fill-opacity="0.5" points="144.9 58.604 135.8434 58.604 135.8434 59.696 144.9 59.696"></polygon>
                    <polygon id="Path" fill-opacity="0.5" points="5.071416 81.9 3.984666 81.9 3.984666 91 5.071416 91"></polygon>
                    <polygon id="Path" fill-opacity="0.5" points="9.05625 85.904 0 85.904 0 86.996 9.05625 86.996"></polygon>
                    <polygon id="Path" fill-opacity="0.5" points="32.24018 81.9 31.15343 81.9 31.15343 91 32.24018 91"></polygon>
                    <polygon id="Path" fill-opacity="0.5" points="36.225 85.904 27.16875 85.904 27.16875 86.996 36.225 86.996"></polygon>
                    <polygon id="Path" fill-opacity="0.5" points="59.40893 81.9 58.32218 81.9 58.32218 91 59.40893 91"></polygon>
                    <polygon id="Path" fill-opacity="0.5" points="63.39375 85.904 54.3375 85.904 54.3375 86.996 63.39375 86.996"></polygon>
                    <polygon id="Path" fill-opacity="0.5" points="86.5774 81.9 85.491 81.9 85.491 91 86.5774 91"></polygon>
                    <polygon id="Path" fill-opacity="0.5" points="90.5625 85.904 81.5066 85.904 81.5066 86.996 90.5625 86.996"></polygon>
                    <polygon id="Path" fill-opacity="0.5" points="113.7465 81.9 112.6594 81.9 112.6594 91 113.7465 91"></polygon>
                    <polygon id="Path" fill-opacity="0.5" points="117.7316 85.904 108.675 85.904 108.675 86.996 117.7316 86.996"></polygon>
                    <polygon id="Path" fill-opacity="0.5" points="140.9149 81.9 139.8285 81.9 139.8285 91 140.9149 91"></polygon>
                    <polygon id="Path" fill-opacity="0.5" points="144.9 85.904 135.8434 85.904 135.8434 86.996 144.9 86.996"></polygon>
                </g>
                <g id="Frame-1-Copy" transform="translate(585.500000, 747.500000)" fill="#3F84FF">
                    <polygon id="Path" fill-opacity="0.5" points="6.85477108 0 5.38586723 0 5.38586723 12.3 6.85477108 12.3"></polygon>
                    <polygon id="Path" fill-opacity="0.5" points="12.2408654 5.412 0 5.412 0 6.888 12.2408654 6.888"></polygon>
                    <polygon id="Path" fill-opacity="0.5" points="43.5773862 0 42.1084823 0 42.1084823 12.3 43.5773862 12.3"></polygon>
                    <polygon id="Path" fill-opacity="0.5" points="48.9634615 5.412 36.7225962 5.412 36.7225962 6.888 48.9634615 6.888"></polygon>
                    <polygon id="Path" fill-opacity="0.5" points="80.2999823 0 78.8310785 0 78.8310785 12.3 80.2999823 12.3"></polygon>
                    <polygon id="Path" fill-opacity="0.5" points="85.6860577 5.412 73.4451923 5.412 73.4451923 6.888 85.6860577 6.888"></polygon>
                    <polygon id="Path" fill-opacity="0.5" points="117.0222 0 115.553769 0 115.553769 12.3 117.0222 12.3"></polygon>
                    <polygon id="Path" fill-opacity="0.5" points="122.408654 5.412 110.168262 5.412 110.168262 6.888 122.408654 6.888"></polygon>
                    <polygon id="Path" fill-opacity="0.5" points="153.745269 0 152.275892 0 152.275892 12.3 153.745269 12.3"></polygon>
                    <polygon id="Path" fill-opacity="0.5" points="159.131723 5.412 146.890385 5.412 146.890385 6.888 159.131723 6.888"></polygon>
                    <polygon id="Path" fill-opacity="0.5" points="190.467392 0 188.998962 0 188.998962 12.3 190.467392 12.3"></polygon>
                    <polygon id="Path" fill-opacity="0.5" points="195.853846 5.412 183.612508 5.412 183.612508 6.888 195.853846 6.888"></polygon>
                    <polygon id="Path" fill-opacity="0.5" points="6.85477108 36.9 5.38586723 36.9 5.38586723 49.2 6.85477108 49.2"></polygon>
                    <polygon id="Path" fill-opacity="0.5" points="12.2408654 42.312 0 42.312 0 43.788 12.2408654 43.788"></polygon>
                    <polygon id="Path" fill-opacity="0.5" points="43.5773862 36.9 42.1084823 36.9 42.1084823 49.2 43.5773862 49.2"></polygon>
                    <polygon id="Path" fill-opacity="0.5" points="48.9634615 42.312 36.7225962 42.312 36.7225962 43.788 48.9634615 43.788"></polygon>
                    <polygon id="Path" fill-opacity="0.5" points="80.2999823 36.9 78.8310785 36.9 78.8310785 49.2 80.2999823 49.2"></polygon>
                    <polygon id="Path" fill-opacity="0.5" points="85.6860577 42.312 73.4451923 42.312 73.4451923 43.788 85.6860577 43.788"></polygon>
                    <polygon id="Path" fill-opacity="0.5" points="117.0222 36.9 115.553769 36.9 115.553769 49.2 117.0222 49.2"></polygon>
                    <polygon id="Path" fill-opacity="0.5" points="122.408654 42.312 110.168262 42.312 110.168262 43.788 122.408654 43.788"></polygon>
                    <polygon id="Path" fill-opacity="0.5" points="153.745269 36.9 152.275892 36.9 152.275892 49.2 153.745269 49.2"></polygon>
                    <polygon id="Path" fill-opacity="0.5" points="159.131723 42.312 146.890385 42.312 146.890385 43.788 159.131723 43.788"></polygon>
                    <polygon id="Path" fill-opacity="0.5" points="190.467392 36.9 188.998962 36.9 188.998962 49.2 190.467392 49.2"></polygon>
                    <polygon id="Path" fill-opacity="0.5" points="195.853846 42.312 183.612508 42.312 183.612508 43.788 195.853846 43.788"></polygon>
                    <polygon id="Path" fill-opacity="0.5" points="6.85477108 73.8 5.38586723 73.8 5.38586723 86.1 6.85477108 86.1"></polygon>
                    <polygon id="Path" fill-opacity="0.5" points="12.2408654 79.212 0 79.212 0 80.688 12.2408654 80.688"></polygon>
                    <polygon id="Path" fill-opacity="0.5" points="43.5773862 73.8 42.1084823 73.8 42.1084823 86.1 43.5773862 86.1"></polygon>
                    <polygon id="Path" fill-opacity="0.5" points="48.9634615 79.212 36.7225962 79.212 36.7225962 80.688 48.9634615 80.688"></polygon>
                    <polygon id="Path" fill-opacity="0.5" points="80.2999823 73.8 78.8310785 73.8 78.8310785 86.1 80.2999823 86.1"></polygon>
                    <polygon id="Path" fill-opacity="0.5" points="85.6860577 79.212 73.4451923 79.212 73.4451923 80.688 85.6860577 80.688"></polygon>
                    <polygon id="Path" fill-opacity="0.5" points="117.0222 73.8 115.553769 73.8 115.553769 86.1 117.0222 86.1"></polygon>
                    <polygon id="Path" fill-opacity="0.5" points="122.408654 79.212 110.168262 79.212 110.168262 80.688 122.408654 80.688"></polygon>
                    <polygon id="Path" fill-opacity="0.5" points="153.745269 73.8 152.275892 73.8 152.275892 86.1 153.745269 86.1"></polygon>
                    <polygon id="Path" fill-opacity="0.6" points="159.131723 79.212 146.890385 79.212 146.890385 80.688 159.131723 80.688"></polygon>
                    <polygon id="Path" fill-opacity="0.5" points="190.467392 73.8 188.998962 73.8 188.998962 86.1 190.467392 86.1"></polygon>
                    <polygon id="Path" fill-opacity="0.5" points="195.853846 79.212 183.612508 79.212 183.612508 80.688 195.853846 80.688"></polygon>
                    <polygon id="Path" fill-opacity="0.5" points="6.85477108 110.7 5.38586723 110.7 5.38586723 123 6.85477108 123"></polygon>
                    <polygon id="Path" fill-opacity="0.5" points="12.2408654 116.112 0 116.112 0 117.588 12.2408654 117.588"></polygon>
                    <polygon id="Path" fill-opacity="0.5" points="43.5773862 110.7 42.1084823 110.7 42.1084823 123 43.5773862 123"></polygon>
                    <polygon id="Path" fill-opacity="0.5" points="48.9634615 116.112 36.7225962 116.112 36.7225962 117.588 48.9634615 117.588"></polygon>
                    <polygon id="Path" fill-opacity="0.5" points="80.2999823 110.7 78.8310785 110.7 78.8310785 123 80.2999823 123"></polygon>
                    <polygon id="Path" fill-opacity="0.5" points="85.6860577 116.112 73.4451923 116.112 73.4451923 117.588 85.6860577 117.588"></polygon>
                    <polygon id="Path" fill-opacity="0.5" points="117.0222 110.7 115.553769 110.7 115.553769 123 117.0222 123"></polygon>
                    <polygon id="Path" fill-opacity="0.5" points="122.408654 116.112 110.168262 116.112 110.168262 117.588 122.408654 117.588"></polygon>
                    <polygon id="Path" fill-opacity="0.5" points="153.745269 110.7 152.275892 110.7 152.275892 123 153.745269 123"></polygon>
                    <polygon id="Path" fill-opacity="0.5" points="159.131723 116.112 146.890385 116.112 146.890385 117.588 159.131723 117.588"></polygon>
                    <polygon id="Path" fill-opacity="0.5" points="190.467392 110.7 188.998962 110.7 188.998962 123 190.467392 123"></polygon>
                    <polygon id="Path" fill-opacity="0.5" points="195.853846 116.112 183.612508 116.112 183.612508 117.588 195.853846 117.588"></polygon>
                </g>
                <g id="Frame-1-Copy-2" transform="translate(1446.500000, 418.000000) rotate(90.000000) translate(-1446.500000, -418.000000) translate(1348.500000, 356.500000)" fill="#3F84FF">
                    <polygon id="Path" fill-opacity="0.5" points="6.85477108 0 5.38586723 0 5.38586723 12.3 6.85477108 12.3"></polygon>
                    <polygon id="Path" fill-opacity="0.5" points="12.2408654 5.412 0 5.412 0 6.888 12.2408654 6.888"></polygon>
                    <polygon id="Path" fill-opacity="0.5" points="43.5773862 0 42.1084823 0 42.1084823 12.3 43.5773862 12.3"></polygon>
                    <polygon id="Path" fill-opacity="0.5" points="48.9634615 5.412 36.7225962 5.412 36.7225962 6.888 48.9634615 6.888"></polygon>
                    <polygon id="Path" fill-opacity="0.5" points="80.2999823 0 78.8310785 0 78.8310785 12.3 80.2999823 12.3"></polygon>
                    <polygon id="Path" fill-opacity="0.5" points="85.6860577 5.412 73.4451923 5.412 73.4451923 6.888 85.6860577 6.888"></polygon>
                    <polygon id="Path" fill-opacity="0.5" points="117.0222 0 115.553769 0 115.553769 12.3 117.0222 12.3"></polygon>
                    <polygon id="Path" fill-opacity="0.5" points="122.408654 5.412 110.168262 5.412 110.168262 6.888 122.408654 6.888"></polygon>
                    <polygon id="Path" fill-opacity="0.5" points="153.745269 0 152.275892 0 152.275892 12.3 153.745269 12.3"></polygon>
                    <polygon id="Path" fill-opacity="0.5" points="159.131723 5.412 146.890385 5.412 146.890385 6.888 159.131723 6.888"></polygon>
                    <polygon id="Path" fill-opacity="0.5" points="190.467392 0 188.998962 0 188.998962 12.3 190.467392 12.3"></polygon>
                    <polygon id="Path" fill-opacity="0.5" points="195.853846 5.412 183.612508 5.412 183.612508 6.888 195.853846 6.888"></polygon>
                    <polygon id="Path" fill-opacity="0.5" points="6.85477108 36.9 5.38586723 36.9 5.38586723 49.2 6.85477108 49.2"></polygon>
                    <polygon id="Path" fill-opacity="0.5" points="12.2408654 42.312 0 42.312 0 43.788 12.2408654 43.788"></polygon>
                    <polygon id="Path" fill-opacity="0.5" points="43.5773862 36.9 42.1084823 36.9 42.1084823 49.2 43.5773862 49.2"></polygon>
                    <polygon id="Path" fill-opacity="0.5" points="48.9634615 42.312 36.7225962 42.312 36.7225962 43.788 48.9634615 43.788"></polygon>
                    <polygon id="Path" fill-opacity="0.5" points="80.2999823 36.9 78.8310785 36.9 78.8310785 49.2 80.2999823 49.2"></polygon>
                    <polygon id="Path" fill-opacity="0.5" points="85.6860577 42.312 73.4451923 42.312 73.4451923 43.788 85.6860577 43.788"></polygon>
                    <polygon id="Path" fill-opacity="0.5" points="117.0222 36.9 115.553769 36.9 115.553769 49.2 117.0222 49.2"></polygon>
                    <polygon id="Path" fill-opacity="0.5" points="122.408654 42.312 110.168262 42.312 110.168262 43.788 122.408654 43.788"></polygon>
                    <polygon id="Path" fill-opacity="0.5" points="153.745269 36.9 152.275892 36.9 152.275892 49.2 153.745269 49.2"></polygon>
                    <polygon id="Path" fill-opacity="0.5" points="159.131723 42.312 146.890385 42.312 146.890385 43.788 159.131723 43.788"></polygon>
                    <polygon id="Path" fill-opacity="0.5" points="190.467392 36.9 188.998962 36.9 188.998962 49.2 190.467392 49.2"></polygon>
                    <polygon id="Path" fill-opacity="0.5" points="195.853846 42.312 183.612508 42.312 183.612508 43.788 195.853846 43.788"></polygon>
                    <polygon id="Path" fill-opacity="0.5" points="6.85477108 73.8 5.38586723 73.8 5.38586723 86.1 6.85477108 86.1"></polygon>
                    <polygon id="Path" fill-opacity="0.5" points="12.2408654 79.212 0 79.212 0 80.688 12.2408654 80.688"></polygon>
                    <polygon id="Path" fill-opacity="0.5" points="43.5773862 73.8 42.1084823 73.8 42.1084823 86.1 43.5773862 86.1"></polygon>
                    <polygon id="Path" fill-opacity="0.5" points="48.9634615 79.212 36.7225962 79.212 36.7225962 80.688 48.9634615 80.688"></polygon>
                    <polygon id="Path" fill-opacity="0.5" points="80.2999823 73.8 78.8310785 73.8 78.8310785 86.1 80.2999823 86.1"></polygon>
                    <polygon id="Path" fill-opacity="0.5" points="85.6860577 79.212 73.4451923 79.212 73.4451923 80.688 85.6860577 80.688"></polygon>
                    <polygon id="Path" fill-opacity="0.5" points="117.0222 73.8 115.553769 73.8 115.553769 86.1 117.0222 86.1"></polygon>
                    <polygon id="Path" fill-opacity="0.5" points="122.408654 79.212 110.168262 79.212 110.168262 80.688 122.408654 80.688"></polygon>
                    <polygon id="Path" fill-opacity="0.5" points="153.745269 73.8 152.275892 73.8 152.275892 86.1 153.745269 86.1"></polygon>
                    <polygon id="Path" fill-opacity="0.6" points="159.131723 79.212 146.890385 79.212 146.890385 80.688 159.131723 80.688"></polygon>
                    <polygon id="Path" fill-opacity="0.5" points="190.467392 73.8 188.998962 73.8 188.998962 86.1 190.467392 86.1"></polygon>
                    <polygon id="Path" fill-opacity="0.5" points="195.853846 79.212 183.612508 79.212 183.612508 80.688 195.853846 80.688"></polygon>
                    <polygon id="Path" fill-opacity="0.5" points="6.85477108 110.7 5.38586723 110.7 5.38586723 123 6.85477108 123"></polygon>
                    <polygon id="Path" fill-opacity="0.5" points="12.2408654 116.112 0 116.112 0 117.588 12.2408654 117.588"></polygon>
                    <polygon id="Path" fill-opacity="0.5" points="43.5773862 110.7 42.1084823 110.7 42.1084823 123 43.5773862 123"></polygon>
                    <polygon id="Path" fill-opacity="0.5" points="48.9634615 116.112 36.7225962 116.112 36.7225962 117.588 48.9634615 117.588"></polygon>
                    <polygon id="Path" fill-opacity="0.5" points="80.2999823 110.7 78.8310785 110.7 78.8310785 123 80.2999823 123"></polygon>
                    <polygon id="Path" fill-opacity="0.5" points="85.6860577 116.112 73.4451923 116.112 73.4451923 117.588 85.6860577 117.588"></polygon>
                    <polygon id="Path" fill-opacity="0.5" points="117.0222 110.7 115.553769 110.7 115.553769 123 117.0222 123"></polygon>
                    <polygon id="Path" fill-opacity="0.5" points="122.408654 116.112 110.168262 116.112 110.168262 117.588 122.408654 117.588"></polygon>
                    <polygon id="Path" fill-opacity="0.5" points="153.745269 110.7 152.275892 110.7 152.275892 123 153.745269 123"></polygon>
                    <polygon id="Path" fill-opacity="0.5" points="159.131723 116.112 146.890385 116.112 146.890385 117.588 159.131723 117.588"></polygon>
                    <polygon id="Path" fill-opacity="0.5" points="190.467392 110.7 188.998962 110.7 188.998962 123 190.467392 123"></polygon>
                    <polygon id="Path" fill-opacity="0.5" points="195.853846 116.112 183.612508 116.112 183.612508 117.588 195.853846 117.588"></polygon>
                </g>
            </g>
        </g>
    </g>
</svg>