<?xml version="1.0" encoding="UTF-8"?>
<svg width="22px" height="21px" viewBox="0 0 22 21" version="1.1" xmlns="http://www.w3.org/2000/svg" xmlns:xlink="http://www.w3.org/1999/xlink">
    <title>chat</title>
    <g id="Landing-page" stroke="none" stroke-width="1" fill="none" fill-rule="evenodd">
        <g id="chat" transform="translate(1.000000, 0.000000)" fill="#FFFFFF" fill-rule="nonzero" stroke="#FFFFFF" stroke-width="0.5">
            <path d="M10,0.5 C4.48625,0.5 0,4.98625 0,10.5 C0,12.4225 0.53875,14.26875 1.56,15.86 L0.045,19.6425 C-0.0475,19.875 0.00625,20.14 0.18375,20.3175 C0.3025,20.43625 0.4625,20.5 0.625,20.5 C0.70375,20.5 0.78125,20.485 0.8575,20.455 L4.64,18.94 C6.23125,19.96125 8.0775,20.5 10,20.5 C15.51375,20.5 20,16.01375 20,10.5 C20,4.98625 15.51375,0.5 10,0.5 Z M10,19.25 C8.2175,19.25 6.51125,18.7225 5.0675,17.72375 C4.9625,17.65 4.8375,17.6125 4.7125,17.6125 C4.63375,17.6125 4.555,17.6275 4.48,17.6575 L1.7475,18.7525 L2.8425,16.02 C2.92,15.825 2.895,15.60375 2.77625,15.4325 C1.7775,13.98875 1.25,12.2825 1.25,10.5 C1.25,5.675 5.175,1.75 10,1.75 C14.825,1.75 18.75,5.675 18.75,10.5 C18.75,15.325 14.825,19.25 10,19.25 Z" id="Shape"></path>
        </g>
    </g>
</svg>