<svg height="15" viewBox="0 0 15 15" width="15" xmlns="http://www.w3.org/2000/svg"><path d="m7.498125 5c-4.140625 0-7.498125 3.358125-7.498125 7.5s3.3575 7.5 7.498125 7.5c4.14125 0 7.498125-3.358125 7.498125-7.5s-3.356875-7.5-7.498125-7.5zm2.7575 10.443125-.21875.21875c-.181875.181875-.48875.190625-.68.018125l-2.825-2.471875c-.1925-.171875-.338125-.52375-.325625-.78125l.261875-4.45875c.01375-.258125.235625-.468125.49375-.468125h.308125c.258125 0 .479375.21.491875.4675l.214375 3.70875c.013125.258125.16375.625.334375.818125l1.965 2.2675c.170625.193125.1625.499375-.02.68125z" fill="#fff" transform="translate(0 -5)"/></svg>