<svg viewBox="0 0 25 25" xmlns="http://www.w3.org/2000/svg"><path d="m1.61289944.20970461.09420734.08318861 10.79289322 10.79210678 10.7928932-10.79210678.0942074-.08318861c.3922912-.30502489.9595222-.27729535 1.3200062.08318861.3604839.36048396.3882135.92771502.0831886 1.32000622l-.0831886.09420734-10.7921068 10.79289322 10.7921068 10.7928932c.3905243.3905243.3905243 1.0236893 0 1.4142136-.360484.3604839-.927715.3882135-1.3200062.0831886l-.0942074-.0831886-10.7928932-10.7921068-10.79289322 10.7921068-.09420734.0831886c-.3922912.3050249-.95952226.2772953-1.32000622-.0831886-.36048396-.360484-.3882135-.927715-.08318861-1.3200062l.08318861-.0942074 10.79210678-10.7928932-10.79210678-10.79289322c-.39052429-.39052429-.39052429-1.02368927 0-1.41421356.36048396-.36048396.92771502-.3882135 1.32000622-.08318861z"/></svg>