<svg width="10" height="10" viewBox="0 0 10 10" fill="none" xmlns="http://www.w3.org/2000/svg">
<path fill-rule="evenodd" clip-rule="evenodd" d="M2.17192 0.756665C1.98428 0.569033 1.72979 0.463623 1.46442 0.463623C1.19906 0.463623 0.944564 0.569033 0.756923 0.756665C0.569283 0.944296 0.463867 1.19878 0.463867 1.46413C0.463867 1.59552 0.489747 1.72562 0.54003 1.84701C0.590313 1.96839 0.664013 2.07869 0.756923 2.1716L3.58592 4.99946L0.756923 7.82732C0.569283 8.01495 0.463867 8.26944 0.463867 8.53479C0.463867 8.80014 0.569283 9.05462 0.756923 9.24225C0.944564 9.42988 1.19906 9.5353 1.46442 9.5353C1.72979 9.5353 1.98428 9.42988 2.17192 9.24225L4.99992 6.41339L7.82892 9.24225C7.92183 9.33509 8.03212 9.40873 8.15349 9.45895C8.27486 9.50916 8.40493 9.53499 8.53628 9.53494C8.66762 9.53489 8.79768 9.50898 8.91901 9.45867C9.04034 9.40837 9.15058 9.33466 9.24342 9.24175C9.33627 9.14885 9.4099 9.03857 9.46012 8.9172C9.51035 8.79584 9.53617 8.66578 9.53613 8.53443C9.53608 8.40309 9.51016 8.27305 9.45986 8.15172C9.40955 8.03039 9.33583 7.92016 9.24292 7.82732L6.41392 4.99946L9.24292 2.1716C9.43056 1.9841 9.53603 1.72974 9.53613 1.46448C9.53622 1.19923 9.43093 0.944797 9.24342 0.757165C9.05592 0.569533 8.80155 0.46407 8.53628 0.463976C8.27101 0.463883 8.01656 0.569166 7.82892 0.756665L4.99992 3.58553L2.17192 0.756665Z" fill="white"/>
</svg>
