<?xml version="1.0" encoding="UTF-8"?>
<svg width="14px" height="14px" viewBox="0 0 14 14" version="1.1" xmlns="http://www.w3.org/2000/svg" xmlns:xlink="http://www.w3.org/1999/xlink">
    <title>Combined Shape</title>
    <g id="Identification" stroke="none" stroke-width="1" fill="none" fill-rule="evenodd">
        <g id="Sign-up-/-3-/-Mobile" transform="translate(-104.000000, -853.000000)" fill="#B3B3B3" fill-rule="nonzero">
            <g id="Group-3-Copy" transform="translate(20.000000, 822.000000)">
                <path d="M96.8417911,31.4312162 C97.1153369,31.2343919 97.4989444,31.2589949 97.7449747,31.5050253 C98.0183418,31.7783923 98.0183418,32.2216077 97.7449747,32.4949747 L97.7449747,32.4949747 L92.239,38 L97.7449747,43.5050253 C98.0183418,43.7783923 98.0183418,44.2216077 97.7449747,44.4949747 C97.4989444,44.7410051 97.1153369,44.7656081 96.8417911,44.5687838 L96.7550253,44.4949747 L91.25,38.989 L85.7449747,44.4949747 L85.6582089,44.5687838 C85.3846631,44.7656081 85.0010556,44.7410051 84.7550253,44.4949747 C84.4816582,44.2216077 84.4816582,43.7783923 84.7550253,43.5050253 L84.7550253,43.5050253 L90.261,38 L84.7550253,32.4949747 C84.4816582,32.2216077 84.4816582,31.7783923 84.7550253,31.5050253 C85.0010556,31.2589949 85.3846631,31.2343919 85.6582089,31.4312162 L85.7449747,31.5050253 L91.25,37.011 L96.7550253,31.5050253 Z" id="Combined-Shape"></path>
            </g>
        </g>
    </g>
</svg>