<svg width="11" height="18" viewBox="0 0 11 18" fill="none" xmlns="http://www.w3.org/2000/svg">
<path d="M10.5 11.7766C10.5 12.8234 10.1564 13.7234 9.46907 14.4766C8.78179 15.217 7.79095 15.6766 6.49656 15.8553V18H4.77835V15.9128C3.9307 15.8617 3.12314 15.6957 2.35567 15.4149C1.5882 15.134 0.969645 14.7894 0.5 14.3809L1.44502 12.0447C1.8803 12.4021 2.39003 12.7021 2.97423 12.9447C3.55842 13.1872 4.15979 13.3404 4.77835 13.4043V10.2064C3.96506 9.98936 3.27778 9.74681 2.71649 9.47872C2.15521 9.21064 1.68557 8.82128 1.30756 8.31064C0.929553 7.78723 0.74055 7.09787 0.74055 6.24255C0.74055 5.18298 1.08419 4.2766 1.77148 3.5234C2.47022 2.75745 3.47251 2.29149 4.77835 2.12553V0H6.49656V2.08723C7.9055 2.21489 9.06816 2.60426 9.98454 3.25532L9.12543 5.61064C8.26632 5.0617 7.39003 4.72979 6.49656 4.61489V7.87021C7.2984 8.07447 7.97423 8.31064 8.52405 8.57872C9.08534 8.83404 9.55498 9.2234 9.93299 9.74681C10.311 10.2574 10.5 10.934 10.5 11.7766ZM3.50687 6.08936C3.50687 6.40851 3.61569 6.67021 3.83333 6.87447C4.05097 7.07872 4.36598 7.25106 4.77835 7.39149V4.67234C4.34307 4.78723 4.02234 4.97234 3.81615 5.22766C3.60997 5.47021 3.50687 5.75745 3.50687 6.08936ZM6.49656 13.3277C6.90893 13.2255 7.21821 13.0596 7.4244 12.8298C7.63058 12.6 7.73368 12.3255 7.73368 12.0064C7.73368 11.6872 7.62486 11.4255 7.40722 11.2213C7.20103 11.017 6.89748 10.8383 6.49656 10.6851V13.3277Z" fill="#9494B2"/>
</svg>
