<svg width="218" height="28" viewBox="0 0 218 28" fill="none" xmlns="http://www.w3.org/2000/svg">
<path d="M0.357773 7.208C0.357773 6.524 0.471773 5.916 0.623773 5.308C1.38377 2.762 3.66377 0.937998 6.32377 0.899998H6.36177C9.62977 0.899998 12.3278 3.75 12.3278 7.208C12.3278 7.436 12.2518 7.664 12.1758 7.854C11.9098 8.386 11.4158 8.728 10.8078 8.728C10.1998 8.728 9.70577 8.386 9.43977 7.854C9.32577 7.664 9.28777 7.436 9.28777 7.208C9.28777 6.334 8.94577 5.498 8.37577 4.89C7.84377 4.282 7.12177 3.94 6.36177 3.94C5.60177 3.94 4.84177 4.282 4.30977 4.89C3.73977 5.498 3.39777 6.334 3.39777 7.208C3.39777 7.436 3.35977 7.664 3.24577 7.854C2.97977 8.386 2.48577 8.728 1.87777 8.728C1.26977 8.728 0.775773 8.386 0.509774 7.854C0.433773 7.664 0.357773 7.436 0.357773 7.208ZM3.39777 26.094C3.39777 26.284 3.35977 26.474 3.32177 26.626C3.09377 27.196 2.52377 27.614 1.87777 27.614C1.04177 27.614 0.357773 26.93 0.357773 26.094V8.728C0.737774 9.108 1.30777 9.374 1.87777 9.374C2.48577 9.374 3.01777 9.108 3.39777 8.728V26.094ZM12.3278 21.23C12.3278 24.688 9.62977 27.5 6.36177 27.5C5.48777 27.5 4.65177 27.272 3.89177 26.93C4.00577 26.664 4.04377 26.398 4.04377 26.094V23.244C4.11977 23.358 4.23377 23.434 4.30977 23.548C4.84177 24.118 5.60177 24.46 6.36177 24.46C7.12177 24.46 7.84377 24.118 8.37577 23.548C8.94577 22.902 9.28777 22.104 9.28777 21.23V8.728C9.66777 9.108 10.1998 9.374 10.8078 9.374C11.3778 9.374 11.9478 9.108 12.3278 8.728V21.23ZM18.6078 7.132C18.6078 6.486 18.7218 5.84 18.8738 5.27C19.6338 2.724 21.9138 0.899998 24.5358 0.861999H24.5738C27.8798 0.861999 30.5778 3.674 30.5778 7.132C30.5778 7.398 30.5018 7.626 30.4258 7.816C30.1598 8.31 29.6278 8.652 29.0578 8.652C28.4498 8.652 27.9178 8.31 27.6898 7.816C27.5758 7.626 27.5378 7.398 27.5378 7.132C27.5378 6.258 27.1958 5.46 26.6258 4.814C26.0558 4.244 25.3338 3.902 24.5738 3.902C23.8138 3.902 23.0918 4.244 22.5598 4.814C21.9518 5.46 21.6478 6.258 21.6478 7.132C21.6478 7.398 21.6098 7.626 21.4958 7.816C21.2298 8.31 20.7358 8.652 20.1278 8.652C19.5198 8.652 19.0258 8.31 18.7598 7.816C18.6838 7.626 18.6078 7.398 18.6078 7.132ZM29.9698 25.22C30.3878 25.942 30.1218 26.892 29.3998 27.31C29.1718 27.424 28.9058 27.5 28.6398 27.5C28.1078 27.5 27.6138 27.234 27.3478 26.74L22.7498 18.798C22.3698 18.684 21.9898 18.494 21.6478 18.304V25.98C21.6478 26.816 20.9638 27.5 20.1278 27.5C19.2918 27.5 18.6078 26.816 18.6078 25.98V8.766C18.9878 9.146 19.5198 9.374 20.1278 9.374C20.7358 9.374 21.2678 9.146 21.6478 8.766V12.832C21.6478 13.706 21.9518 14.542 22.5598 15.15C23.0918 15.758 23.8138 16.062 24.5738 16.062C25.3338 16.062 26.0558 15.758 26.6258 15.15C27.1958 14.542 27.5378 13.706 27.5378 12.832V8.766C27.9178 9.146 28.4498 9.374 29.0578 9.374C29.6278 9.374 30.1598 9.146 30.5778 8.766V12.832C30.5778 15.682 28.7538 18.076 26.2838 18.836L29.9698 25.22ZM48.8278 7.17C48.8278 8.044 48.1438 8.728 47.3078 8.728C46.4718 8.728 45.7878 8.044 45.7878 7.17C45.7878 5.384 44.4578 3.94 42.8618 3.94C41.2658 3.94 40.0118 5.308 39.8978 7.018V7.17C39.8978 8.044 39.2138 8.728 38.3778 8.728C37.6178 8.728 36.9718 8.158 36.8578 7.436V7.17C36.8578 3.712 39.5558 0.899998 42.8618 0.899998C46.1298 0.899998 48.8278 3.712 48.8278 7.17ZM44.3818 14.238C44.3818 15.074 43.6978 15.758 42.8618 15.758H39.8978V19.672C39.5178 19.292 38.9858 19.064 38.3778 19.064C37.8078 19.064 37.2758 19.292 36.8578 19.672V8.728C37.2758 9.108 37.8078 9.374 38.3778 9.374C38.9858 9.374 39.5178 9.108 39.8978 8.728V12.718H42.8618C43.6978 12.718 44.3818 13.402 44.3818 14.238ZM48.8278 21.23C48.8278 21.876 48.7138 22.522 48.5618 23.092C47.8018 25.638 45.5218 27.5 42.8618 27.5C39.5558 27.5 36.8578 24.688 36.8578 21.23C36.8578 20.964 36.9338 20.736 37.0098 20.546C37.2758 20.052 37.7698 19.71 38.3778 19.71C38.9858 19.71 39.4798 20.052 39.7458 20.546C39.8598 20.736 39.8978 20.964 39.8978 21.23C39.8978 22.104 40.2398 22.94 40.8098 23.548C41.3418 24.118 42.0638 24.46 42.8618 24.46C43.6218 24.46 44.3438 24.118 44.8758 23.548C45.4458 22.94 45.7878 22.104 45.7878 21.23C45.7878 20.964 45.8258 20.736 45.9398 20.546C46.2058 20.052 46.6998 19.71 47.3078 19.71C47.9158 19.71 48.4098 20.052 48.6758 20.546C48.7518 20.736 48.8278 20.964 48.8278 21.23ZM67.0778 7.322C67.0018 8.12 66.3558 8.728 65.5578 8.728C64.7598 8.728 64.0758 8.12 64.0378 7.322V7.208C64.0378 6.334 63.6958 5.498 63.1258 4.89C62.5558 4.282 61.8338 3.978 61.0738 3.978C60.3138 3.978 59.5918 4.282 59.0598 4.89C58.4518 5.498 58.1478 6.334 58.1478 7.208V7.322C58.0718 8.12 57.4258 8.728 56.6278 8.728C55.8298 8.728 55.1838 8.12 55.1078 7.322V7.208C55.1078 3.75 57.8058 0.937998 61.0738 0.937998C64.3798 0.937998 67.0778 3.75 67.0778 7.208V7.322ZM67.0778 25.98C67.0778 26.816 66.3938 27.5 65.5578 27.5C64.7218 27.5 64.0378 26.816 64.0378 25.98V18.228H58.1478V25.98C58.1478 26.816 57.4638 27.5 56.6278 27.5C55.7918 27.5 55.1078 26.816 55.1078 25.98V8.766C55.4878 9.146 56.0198 9.374 56.6278 9.374C57.2358 9.374 57.7678 9.146 58.1478 8.766V15.188H64.0378V8.766C64.4178 9.146 64.9498 9.374 65.5578 9.374C66.1278 9.374 66.6598 9.146 67.0778 8.766V25.98ZM94.2578 25.98C94.2578 26.816 93.5738 27.5 92.7378 27.5C91.9018 27.5 91.2178 26.816 91.2178 25.98V7.208C91.2178 6.334 90.8758 5.498 90.3058 4.89C89.7358 4.32 89.0138 3.978 88.2538 3.978C87.4938 3.978 86.7718 4.32 86.2398 4.89C86.0498 5.08 85.8978 5.308 85.7838 5.536C85.4798 4.396 84.9478 3.408 84.2258 2.572C85.2898 1.546 86.6958 0.937998 88.2538 0.937998C91.5598 0.937998 94.2578 3.75 94.2578 7.208V25.98ZM85.3278 7.246V7.398C85.2518 8.196 84.6058 8.804 83.8078 8.804C83.0098 8.804 82.3638 8.196 82.2878 7.398V7.246C82.2878 5.46 80.9578 4.016 79.3618 4.016C77.7278 4.016 76.3978 5.46 76.3978 7.246V7.398C76.3218 8.196 75.6758 8.804 74.8778 8.804C74.0798 8.804 73.4338 8.196 73.3578 7.398V7.246C73.3578 3.788 76.0558 0.975999 79.3618 0.975999C81.1098 0.975999 82.7058 1.774 83.8078 3.066C84.7198 4.13 85.2898 5.536 85.3278 7.056V7.246ZM74.8778 9.45C75.4858 9.45 76.0178 9.184 76.3978 8.804V25.98C76.3978 26.816 75.7138 27.5 74.8778 27.5C74.0418 27.5 73.3578 26.816 73.3578 25.98V8.804C73.7758 9.184 74.3078 9.45 74.8778 9.45ZM85.3278 25.98C85.3278 26.816 84.6438 27.5 83.8078 27.5C82.9718 27.5 82.2878 26.816 82.2878 25.98V8.804C82.6678 9.184 83.1998 9.45 83.8078 9.45C84.3778 9.45 84.9478 9.184 85.3278 8.804V25.98ZM126.392 7.208C126.392 8.044 125.708 8.728 124.872 8.728C124.036 8.728 123.352 8.044 123.352 7.208C123.352 6.334 123.01 5.498 122.44 4.89C121.908 4.282 121.186 3.978 120.426 3.978C119.628 3.978 118.906 4.282 118.374 4.89C117.804 5.498 117.462 6.334 117.462 7.208V19.672C117.082 19.292 116.55 19.064 115.942 19.064C115.372 19.064 114.802 19.292 114.422 19.672V7.208C114.422 3.75 117.12 0.937998 120.426 0.937998C123.694 0.937998 126.392 3.75 126.392 7.208ZM120.388 27.5C117.12 27.5 114.422 24.688 114.422 21.23C114.422 20.394 115.106 19.71 115.942 19.71C116.778 19.71 117.462 20.394 117.462 21.23C117.462 22.104 117.766 22.94 118.374 23.548C118.906 24.156 119.628 24.46 120.388 24.46C121.148 24.46 121.87 24.156 122.44 23.548C123.01 22.94 123.352 22.104 123.352 21.23C123.352 20.394 124.036 19.71 124.872 19.71C125.708 19.71 126.392 20.394 126.392 21.23C126.392 24.688 123.694 27.5 120.388 27.5ZM135.712 2.458C135.712 1.622 135.028 0.937998 134.192 0.937998C133.356 0.937998 132.672 1.622 132.672 2.458V13.63C133.318 12.262 134.382 11.122 135.712 10.438V2.458ZM143.122 0.937998C142.248 0.937998 141.602 1.622 141.602 2.458V10.438C142.894 11.122 143.996 12.262 144.642 13.63V2.458C144.642 1.622 143.958 0.937998 143.122 0.937998ZM141.602 11.16C140.728 10.666 139.702 10.362 138.638 10.362C137.574 10.362 136.586 10.666 135.712 11.16C134.002 12.186 132.824 14.086 132.672 16.252V16.822C132.786 17.582 133.432 18.152 134.192 18.152C135.028 18.152 135.712 17.468 135.712 16.632V16.366C135.788 15.606 136.092 14.884 136.624 14.314C137.156 13.744 137.878 13.402 138.638 13.402C139.398 13.402 140.12 13.744 140.69 14.314C141.222 14.884 141.526 15.644 141.602 16.442V16.632C141.602 17.468 142.286 18.152 143.122 18.152C143.92 18.152 144.566 17.544 144.642 16.784V16.366C144.528 14.124 143.312 12.224 141.602 11.16ZM132.672 25.98C132.672 26.816 133.356 27.5 134.192 27.5C135.028 27.5 135.712 26.816 135.712 25.98V18.19C135.332 18.57 134.8 18.798 134.192 18.798C133.622 18.798 133.09 18.57 132.672 18.19V25.98ZM141.602 25.98C141.602 26.816 142.248 27.5 143.122 27.5C143.958 27.5 144.642 26.816 144.642 25.98V18.19C144.224 18.57 143.692 18.798 143.122 18.798C142.514 18.798 141.982 18.57 141.602 18.19V25.98ZM162.892 7.322C162.816 8.12 162.17 8.728 161.372 8.728C160.574 8.728 159.89 8.12 159.852 7.322V7.208C159.852 6.334 159.51 5.498 158.94 4.89C158.37 4.282 157.648 3.978 156.888 3.978C156.128 3.978 155.406 4.282 154.874 4.89C154.266 5.498 153.962 6.334 153.962 7.208V7.322C153.886 8.12 153.24 8.728 152.442 8.728C151.644 8.728 150.998 8.12 150.922 7.322V7.208C150.922 3.75 153.62 0.937998 156.888 0.937998C160.194 0.937998 162.892 3.75 162.892 7.208V7.322ZM162.892 25.98C162.892 26.816 162.208 27.5 161.372 27.5C160.536 27.5 159.852 26.816 159.852 25.98V18.228H153.962V25.98C153.962 26.816 153.278 27.5 152.442 27.5C151.606 27.5 150.922 26.816 150.922 25.98V8.766C151.302 9.146 151.834 9.374 152.442 9.374C153.05 9.374 153.582 9.146 153.962 8.766V15.188H159.852V8.766C160.232 9.146 160.764 9.374 161.372 9.374C161.942 9.374 162.474 9.146 162.892 8.766V25.98ZM169.172 7.208C169.172 6.524 169.286 5.916 169.438 5.308C170.198 2.762 172.478 0.937998 175.1 0.899998H175.138C178.444 0.899998 181.142 3.75 181.142 7.208C181.142 7.436 181.066 7.664 180.99 7.854C180.724 8.386 180.192 8.728 179.622 8.728C179.014 8.728 178.482 8.386 178.254 7.854C178.14 7.664 178.102 7.436 178.102 7.208C178.102 6.334 177.76 5.498 177.19 4.89C176.62 4.282 175.898 3.94 175.138 3.94C174.378 3.94 173.656 4.282 173.124 4.89C172.516 5.498 172.212 6.334 172.212 7.208C172.212 7.436 172.174 7.664 172.06 7.854C171.794 8.386 171.3 8.728 170.692 8.728C170.084 8.728 169.59 8.386 169.324 7.854C169.248 7.664 169.172 7.436 169.172 7.208ZM179.622 19.064C178.634 19.064 177.798 19.71 177.532 20.584L170.122 9.336C170.312 9.412 170.502 9.412 170.692 9.412C171.68 9.412 172.516 8.766 172.782 7.854L180.192 19.14C180.002 19.064 179.812 19.064 179.622 19.064ZM181.142 21.23C181.142 21.876 181.028 22.522 180.838 23.092C180.078 25.638 177.836 27.5 175.176 27.5H175.138C171.87 27.5 169.172 24.688 169.172 21.23C169.172 20.964 169.248 20.736 169.324 20.546C169.59 20.052 170.084 19.71 170.692 19.71C171.3 19.71 171.794 20.052 172.06 20.546C172.174 20.736 172.212 20.964 172.212 21.23C172.212 22.104 172.516 22.94 173.124 23.548C173.656 24.118 174.378 24.46 175.138 24.46C175.898 24.46 176.62 24.118 177.19 23.548C177.76 22.94 178.102 22.104 178.102 21.23C178.102 20.964 178.14 20.736 178.254 20.546C178.482 20.052 179.014 19.71 179.622 19.71C180.192 19.71 180.724 20.052 180.99 20.546C181.066 20.736 181.142 20.964 181.142 21.23ZM199.392 7.17C199.392 8.044 198.708 8.728 197.872 8.728C197.036 8.728 196.352 8.044 196.352 7.17C196.352 5.384 195.022 3.94 193.426 3.94C191.83 3.94 190.576 5.308 190.462 7.018V7.17C190.462 8.044 189.778 8.728 188.942 8.728C188.182 8.728 187.536 8.158 187.422 7.436V7.17C187.422 3.712 190.12 0.899998 193.426 0.899998C196.694 0.899998 199.392 3.712 199.392 7.17ZM194.946 14.238C194.946 15.074 194.262 15.758 193.426 15.758H190.462V19.672C190.082 19.292 189.55 19.064 188.942 19.064C188.372 19.064 187.84 19.292 187.422 19.672V8.728C187.84 9.108 188.372 9.374 188.942 9.374C189.55 9.374 190.082 9.108 190.462 8.728V12.718H193.426C194.262 12.718 194.946 13.402 194.946 14.238ZM199.392 21.23C199.392 21.876 199.278 22.522 199.126 23.092C198.366 25.638 196.086 27.5 193.426 27.5C190.12 27.5 187.422 24.688 187.422 21.23C187.422 20.964 187.498 20.736 187.574 20.546C187.84 20.052 188.334 19.71 188.942 19.71C189.55 19.71 190.044 20.052 190.31 20.546C190.424 20.736 190.462 20.964 190.462 21.23C190.462 22.104 190.804 22.94 191.374 23.548C191.906 24.118 192.628 24.46 193.426 24.46C194.186 24.46 194.908 24.118 195.44 23.548C196.01 22.94 196.352 22.104 196.352 21.23C196.352 20.964 196.39 20.736 196.504 20.546C196.77 20.052 197.264 19.71 197.872 19.71C198.48 19.71 198.974 20.052 199.24 20.546C199.316 20.736 199.392 20.964 199.392 21.23ZM205.672 7.132C205.672 6.486 205.786 5.84 205.938 5.27C206.698 2.724 208.978 0.899998 211.6 0.861999H211.638C214.944 0.861999 217.642 3.674 217.642 7.132C217.642 7.398 217.566 7.626 217.49 7.816C217.224 8.31 216.692 8.652 216.122 8.652C215.514 8.652 214.982 8.31 214.754 7.816C214.64 7.626 214.602 7.398 214.602 7.132C214.602 6.258 214.26 5.46 213.69 4.814C213.12 4.244 212.398 3.902 211.638 3.902C210.878 3.902 210.156 4.244 209.624 4.814C209.016 5.46 208.712 6.258 208.712 7.132C208.712 7.398 208.674 7.626 208.56 7.816C208.294 8.31 207.8 8.652 207.192 8.652C206.584 8.652 206.09 8.31 205.824 7.816C205.748 7.626 205.672 7.398 205.672 7.132ZM217.034 25.22C217.452 25.942 217.186 26.892 216.464 27.31C216.236 27.424 215.97 27.5 215.704 27.5C215.172 27.5 214.678 27.234 214.412 26.74L209.814 18.798C209.434 18.684 209.054 18.494 208.712 18.304V25.98C208.712 26.816 208.028 27.5 207.192 27.5C206.356 27.5 205.672 26.816 205.672 25.98V8.766C206.052 9.146 206.584 9.374 207.192 9.374C207.8 9.374 208.332 9.146 208.712 8.766V12.832C208.712 13.706 209.016 14.542 209.624 15.15C210.156 15.758 210.878 16.062 211.638 16.062C212.398 16.062 213.12 15.758 213.69 15.15C214.26 14.542 214.602 13.706 214.602 12.832V8.766C214.982 9.146 215.514 9.374 216.122 9.374C216.692 9.374 217.224 9.146 217.642 8.766V12.832C217.642 15.682 215.818 18.076 213.348 18.836L217.034 25.22Z" fill="white"/>
</svg>
