<svg viewBox="0 0 15 15" xmlns="http://www.w3.org/2000/svg"><path d="m214.069318 18.6586364c-.318409-.5263637-.711136-1.0418182-1.191818-1.5197728-.486136-.4827272-1.010455-.8781818-1.547045-1.1959091l.942272-.9429545s1.363637 0 2.045455.6818182.681818 2.0454545.681818 2.0454545zm-7.932954 7.9322727h-2.727273v-2.7272727l.327273-.3272728c.554318.2625 1.105227.6313637 1.600909 1.1263637.496363.4970454.864545 1.0465909 1.126363 1.6009091zm7.145454-7.1454546-6.031363 6.0306819c-.31841-.5256819-.711137-1.0425-1.191819-1.5197728-.485454-.4834091-1.010454-.8781818-1.547045-1.1959091l6.042954-6.0422727c.554319.2611364 1.105228.63 1.60091 1.1256818.497045.4963637.865227 1.0472728 1.126363 1.6015909zm-11.236363-2.4v10.909091h10.90909v-4.7727273l2.045455-2.0713637v7.5259091c0 .7534091-.610909 1.3636364-1.363636 1.3636364h-12.272728c-.752727 0-1.363636-.6102273-1.363636-1.3636364v-12.2727272c0-.7527273.610909-1.3636364 1.363636-1.3636364h7.506819l-2.046137 2.0454545z" fill="#fff" transform="translate(-200 -15)"/></svg>