<?xml version="1.0" encoding="UTF-8"?>
<svg viewBox="0 0 15 16" version="1.1" xmlns="http://www.w3.org/2000/svg" xmlns:xlink="http://www.w3.org/1999/xlink">
    <title>Exit game</title>
    <g id="Symbols" stroke="none" stroke-width="1" fill="none" fill-rule="evenodd">
        <g id="Game-top-bar" transform="translate(-20.000000, -7.000000)" fill="#FFFFFF" fill-rule="nonzero">
            <path d="M21.6128994,7.70970461 L21.7071068,7.79289322 L27.5,13.585 L33.2928932,7.79289322 C33.6834175,7.40236893 34.3165825,7.40236893 34.7071068,7.79289322 C35.0675907,8.15337718 35.0953203,8.72060824 34.7902954,9.11289944 L34.7071068,9.20710678 L28.915,15 L34.7071068,20.7928932 C35.0976311,21.1834175 35.0976311,21.8165825 34.7071068,22.2071068 C34.3466228,22.5675907 33.7793918,22.5953203 33.3871006,22.2902954 L33.2928932,22.2071068 L27.5,16.415 L21.7071068,22.2071068 C21.3165825,22.5976311 20.6834175,22.5976311 20.2928932,22.2071068 C19.9324093,21.8466228 19.9046797,21.2793918 20.2097046,20.8871006 L20.2928932,20.7928932 L26.085,15 L20.2928932,9.20710678 C19.9023689,8.81658249 19.9023689,8.18341751 20.2928932,7.79289322 C20.6233369,7.46244959 21.1275055,7.41161211 21.5114029,7.64038077 L21.6128994,7.70970461 Z" id="Exit-game"></path>
        </g>
    </g>
</svg>
