<?xml version="1.0" encoding="UTF-8"?>
<svg viewBox="0 0 15 15" version="1.1" xmlns="http://www.w3.org/2000/svg" xmlns:xlink="http://www.w3.org/1999/xlink">
    <title>Group</title>
    <g id="Symbols" stroke="none" stroke-width="1" fill="none" fill-rule="evenodd">
        <g id="Game-top-bar" transform="translate(-36.000000, -8.000000)">
            <g id="Group" transform="translate(36.000000, 8.000000)">
                <circle id="Oval" fill="#FF3636" cx="7.5" cy="7.5" r="7.5"></circle>
                <path d="M4.2843055,3.58859116 L4.35355339,3.64644661 L7.5,6.793 L10.6464466,3.64644661 C10.8417088,3.45118446 11.1582912,3.45118446 11.3535534,3.64644661 C11.5271197,3.82001296 11.5464049,4.08943736 11.4114088,4.2843055 L11.3535534,4.35355339 L8.207,7.5 L11.3535534,10.6464466 C11.5488155,10.8417088 11.5488155,11.1582912 11.3535534,11.3535534 C11.179987,11.5271197 10.9105626,11.5464049 10.7156945,11.4114088 L10.6464466,11.3535534 L7.5,8.207 L4.35355339,11.3535534 C4.15829124,11.5488155 3.84170876,11.5488155 3.64644661,11.3535534 C3.47288026,11.179987 3.45359511,10.9105626 3.58859116,10.7156945 L3.64644661,10.6464466 L6.793,7.5 L3.64644661,4.35355339 C3.45118446,4.15829124 3.45118446,3.84170876 3.64644661,3.64644661 C3.79831717,3.49457605 4.02357904,3.46082704 4.20806797,3.54519957 L4.2843055,3.58859116 Z" id="Combined-Shape" fill="#FFFFFF" fill-rule="nonzero"></path>
            </g>
        </g>
    </g>
</svg>
