<svg width="34" height="27" viewBox="0 0 34 27" fill="none" xmlns="http://www.w3.org/2000/svg">
<path d="M4.78519 0C2.13548 0 0 2.07791 0 4.65423V9.30847C0 11.222 1.18717 12.8631 2.8823 13.5817V18.6442L7.19177 13.9899V9.30847C7.19177 5.18618 10.6219 1.85081 14.8593 1.85081H19.9802C19.1054 0.728129 17.7353 0 16.1745 0H4.78519ZM14.8033 3.75605C11.6253 3.75605 9.03868 6.24549 9.03868 9.33569V15.8407C9.03868 18.9318 11.6262 21.4476 14.8033 21.4476H25.465L30.53 27V20.9849C32.5726 20.1261 34 18.1444 34 15.8407V9.33569C34 6.24549 31.4405 3.75605 28.2634 3.75605H14.8033ZM21.5193 5.85181C21.9021 5.85574 22.2903 5.886 22.6667 5.96069C24.1741 6.26876 25.938 7.69473 25.9407 9.77117C25.9381 11.8555 24.2303 12.6459 23.6181 13.0373C23.0069 13.4258 22.8012 13.8945 22.8066 14.371V16.1129L20.456 16.1401V13.5272C20.4578 12.7512 20.7297 12.211 21.4914 11.7308L22.8066 10.8599C23.6464 10.3031 23.6349 9.18389 23.1144 8.68246C22.6528 8.24954 21.8717 8.00784 21.0436 8.16532C19.5383 8.4663 19.416 9.53453 19.4206 10.5605V11.0232H17.0979C17.1022 9.09531 17.3178 8.20377 18.3572 7.10383C19.2241 6.17445 20.3709 5.84001 21.5193 5.85181ZM20.456 17.0111H22.8066V19.3518H20.456V17.0111Z" fill="url(#paint0_linear)"/>
<defs>
<linearGradient id="paint0_linear" x1="-6.69674e-07" y1="2.58511" x2="34.5483" y2="23.0142" gradientUnits="userSpaceOnUse">
<stop offset="0.00520833" stop-color="#D7AF58"/>
<stop offset="0.588805" stop-color="#FFDE95"/>
<stop offset="1" stop-color="#D7AF58"/>
</linearGradient>
</defs>
</svg>
