<svg viewBox="0 0 21 21" xmlns="http://www.w3.org/2000/svg"><g fill="none" transform="translate(.700642 .5)"><path d="m19.5973977 10.2208565c0-.82210452-.0667088-1.42202486-.2110788-2.04415596h-9.38764659v3.71057586h5.51033689c-.1110538.9221295-.7109742 2.3108383-2.044156 3.2439966l-.0186877.1242271 2.9682003 2.2994266.205641.0205258c1.8886041-1.7442341 2.9773909-4.3105728 2.9773909-7.354596" fill="#4285f4"/><path d="m9.99867231 19.9973446c2.69960319 0 4.96594339-.8888134 6.62133449-2.4218921l-3.1551536-2.4441795c-.8443153.588815-1.9775237.9998673-3.46618089.9998673-2.64407632 0-4.88820575-1.7441575-5.68817613-4.1549443l-.1172575.0099566-3.08637685 2.3885759-.04036231.1122027c1.64420909 3.2662074 5.02154692 5.5104134 8.93217279 5.5104134" fill="#34a853"/><path d="m4.31049618 11.976196c-.21107883-.6221311-.33323802-1.2887603-.33323802-1.97752369 0-.68883997.12215919-1.3553926.32213264-1.9775237l-.00559098-.13249868-3.12505421-2.42694698-.10224609.04863391c-.67765801 1.3553926-1.06649952 2.8774425-1.06649952 4.48833545 0 1.61089299.38884151 3.13286629 1.06649952 4.48825889z" fill="#fbbc05"/><path d="m9.99867231 3.86612777c1.87749869 0 3.14397169.81099916 3.86612779 1.48873376l2.821839-2.75520673c-1.7330522-1.61089295-3.9883636-2.5996548-6.68796679-2.5996548-3.91062587 0-7.2879637 2.24412943-8.93217279 5.51033686l3.23289128 2.51081175c.81107576-2.41078673 3.05520519-4.15502084 5.69928151-4.15502084" fill="#eb4335"/></g></svg>