<svg height="22" viewBox="0 0 22 22" width="22" xmlns="http://www.w3.org/2000/svg"><path d="m22 11c0 1.4895833-.2912326 2.9123264-.8736979 4.2682292-.5824653 1.3559027-1.3654514 2.5256076-2.3489583 3.5091146-.983507.9835069-2.1532119 1.766493-3.5091146 2.3489583-1.3559028.5824653-2.7786459.8736979-4.2682292.8736979-1.64236111 0-3.20355903-.3461372-4.68359375-1.0384115s-2.74045139-1.6686197-3.78125-2.9290364c-.06684028-.0954861-.09787326-.202908-.09309896-.3222656.00477431-.1193577.0453559-.2172309.12174479-.2936198l1.96223959-1.9765625c.09548611-.0859375.21484375-.1289063.35807291-.1289063.15277778.0190972.26258681.0763889.32942709.171875.69704861.9071181 1.5516493 1.608941 2.56380208 2.1054688 1.01215278.4965277 2.08637153.7447916 3.22265625.7447916.9930556 0 1.9407552-.1933593 2.843099-.5800781.9023437-.3867187 1.6829427-.9095052 2.3417968-1.5683594.6588542-.6588541 1.1816407-1.4394531 1.5683594-2.3417968.3867188-.9023438.5800781-1.8500434.5800781-2.843099s-.1933593-1.94075521-.5800781-2.84309896c-.3867187-.90234375-.9095052-1.68294271-1.5683594-2.34179687-.6588541-.65885417-1.4394531-1.18164063-2.3417968-1.56835938-.9023438-.38671875-1.8500434-.58007812-2.843099-.58007812-.9357639 0-1.83333333.16948784-2.69270833.50846354-.859375.33897569-1.62326389.82356771-2.29166667 1.45377604l1.96223958 1.9765625c.29600695.28645833.36284723.61588542.20052084.98828125-.16232639.38194444-.44401042.57291667-.84505209.57291667h-6.41666666c-.24826389 0-.46310764-.09071181-.64453125-.27213542s-.27213542-.39626736-.27213542-.64453125v-6.41666667c0-.40104166.19097222-.68272569.57291667-.84505208.37239583-.16232639.70182291-.09548611.98828125.20052083l1.86197916 1.84765625c1.02170139-.96440972 2.1890191-1.71158854 3.50195313-2.24153645 1.31293403-.52994792 2.67122396-.79492188 4.07486979-.79492188 1.4895833 0 2.9123264.29123264 4.2682292.87369792 1.3559027.58246527 2.5256076 1.36545139 3.5091146 2.34895833.9835069.98350694 1.766493 2.15321181 2.3489583 3.50911458.5824653 1.35590278.8736979 2.77864584.8736979 4.26822917zm-9.1666667-4.125v6.4166667c0 .1336805-.0429687.2434895-.1289062.3294271-.0859375.0859374-.1957465.1289062-.3294271.1289062h-4.58333333c-.13368056 0-.24348959-.0429688-.32942709-.1289062-.0859375-.0859376-.12890625-.1957466-.12890625-.3294271v-.9166667c0-.1336806.04296875-.2434896.12890625-.3294271s.19574653-.1289062.32942709-.1289062h3.20833333v-5.0416667c0-.13368056.0429688-.24348958.1289063-.32942708s.1957465-.12890625.329427-.12890625h.9166667c.1336806 0 .2434896.04296875.3294271.12890625s.1289062.19574652.1289062.32942708z"/></svg>