<svg height="22" viewBox="0 0 22 22" width="22" xmlns="http://www.w3.org/2000/svg"><path d="m21.24375 9.625-1.99375-1.992375v-4.882625c0-.75625-.61875-1.375-1.375-1.375h-1.375c-.75625 0-1.375.61875-1.375 1.375v.760375l-2.75-2.74725c-.375375-.35475-.719125-.763125-1.375-.763125s-.999625.408375-1.375.763125l-8.86875 8.861875c-.429.446875-.75625.77275-.75625 1.375 0 .774125.594 1.375 1.375 1.375h1.375v8.25c0 .75625.61875 1.375 1.375 1.375h4.125v-6.875c0-.75625.61875-1.375 1.375-1.375h2.75c.75625 0 1.375.61875 1.375 1.375v6.875h4.125c.75625 0 1.375-.61875 1.375-1.375v-8.25h1.375c.781 0 1.375-.600875 1.375-1.375 0-.60225-.32725-.928125-.75625-1.375z"/></svg>