<svg width="175" height="109" viewBox="0 0 175 109" fill="none" xmlns="http://www.w3.org/2000/svg">
<g opacity="0.1">
<path d="M6.125 0H4.8125V10.9H6.125V0Z" fill="white"/>
<path d="M10.9375 4.7959H0V6.1039H10.9375V4.7959Z" fill="white"/>
<path d="M38.9375 0H37.625V10.9H38.9375V0Z" fill="white"/>
<path d="M43.75 4.7959H32.8125V6.1039H43.75V4.7959Z" fill="white"/>
<path d="M71.75 0H70.4375V10.9H71.75V0Z" fill="white"/>
<path d="M76.5625 4.7959H65.625V6.1039H76.5625V4.7959Z" fill="white"/>
<path d="M104.563 0H103.25V10.9H104.563V0Z" fill="white"/>
<path d="M109.375 4.7959H98.4375V6.1039H109.375V4.7959Z" fill="white"/>
<path d="M137.375 0H136.062V10.9H137.375V0Z" fill="white"/>
<path d="M142.188 4.7959H131.25V6.1039H142.188V4.7959Z" fill="white"/>
<path d="M170.188 0H168.875V10.9H170.188V0Z" fill="white"/>
<path d="M175 4.7959H164.062V6.1039H175V4.7959Z" fill="white"/>
<path d="M6.125 32.7H4.8125V43.5999H6.125V32.7Z" fill="white"/>
<path d="M10.9375 37.4961H0V38.8041H10.9375V37.4961Z" fill="white"/>
<path d="M38.9375 32.7H37.625V43.5999H38.9375V32.7Z" fill="white"/>
<path d="M43.75 37.4961H32.8125V38.8041H43.75V37.4961Z" fill="white"/>
<path d="M71.75 32.7H70.4375V43.5999H71.75V32.7Z" fill="white"/>
<path d="M76.5625 37.4961H65.625V38.8041H76.5625V37.4961Z" fill="white"/>
<path d="M104.563 32.7H103.25V43.5999H104.563V32.7Z" fill="white"/>
<path d="M109.375 37.4961H98.4375V38.8041H109.375V37.4961Z" fill="white"/>
<path d="M137.375 32.7H136.062V43.5999H137.375V32.7Z" fill="white"/>
<path d="M142.188 37.4961H131.25V38.8041H142.188V37.4961Z" fill="white"/>
<path d="M170.188 32.7H168.875V43.5999H170.188V32.7Z" fill="white"/>
<path d="M175 37.4961H164.062V38.8041H175V37.4961Z" fill="white"/>
<path d="M6.125 65.4001H4.8125V76.3001H6.125V65.4001Z" fill="white"/>
<path d="M10.9375 70.196H0V71.5041H10.9375V70.196Z" fill="white"/>
<path d="M38.9375 65.4001H37.625V76.3001H38.9375V65.4001Z" fill="white"/>
<path d="M43.75 70.196H32.8125V71.5041H43.75V70.196Z" fill="white"/>
<path d="M71.75 65.4001H70.4375V76.3001H71.75V65.4001Z" fill="white"/>
<path d="M76.5625 70.196H65.625V71.5041H76.5625V70.196Z" fill="white"/>
<path d="M104.563 65.4001H103.25V76.3001H104.563V65.4001Z" fill="white"/>
<path d="M109.375 70.196H98.4375V71.5041H109.375V70.196Z" fill="white"/>
<path d="M137.375 65.4001H136.062V76.3001H137.375V65.4001Z" fill="white"/>
<path d="M142.188 70.196H131.25V71.5041H142.188V70.196Z" fill="white"/>
<path d="M170.188 65.4001H168.875V76.3001H170.188V65.4001Z" fill="white"/>
<path d="M175 70.196H164.062V71.5041H175V70.196Z" fill="white"/>
<path d="M6.125 98.0999H4.8125V109H6.125V98.0999Z" fill="white"/>
<path d="M10.9375 102.896H0V104.204H10.9375V102.896Z" fill="white"/>
<path d="M38.9375 98.0999H37.625V109H38.9375V98.0999Z" fill="white"/>
<path d="M43.75 102.896H32.8125V104.204H43.75V102.896Z" fill="white"/>
<path d="M71.75 98.0999H70.4375V109H71.75V98.0999Z" fill="white"/>
<path d="M76.5625 102.896H65.625V104.204H76.5625V102.896Z" fill="white"/>
<path d="M104.563 98.0999H103.25V109H104.563V98.0999Z" fill="white"/>
<path d="M109.375 102.896H98.4375V104.204H109.375V102.896Z" fill="white"/>
<path d="M137.375 98.0999H136.062V109H137.375V98.0999Z" fill="white"/>
<path d="M142.188 102.896H131.25V104.204H142.188V102.896Z" fill="white"/>
<path d="M170.188 98.0999H168.875V109H170.188V98.0999Z" fill="white"/>
<path d="M175 102.896H164.062V104.204H175V102.896Z" fill="white"/>
</g>
</svg>
