<svg width="148" height="301" viewBox="0 0 148 301" fill="none" xmlns="http://www.w3.org/2000/svg">
<g opacity="0.1">
<path d="M101 226.372C86.5857 226.372 74.8148 214.63 74.8148 200.252V100.748C74.8148 86.3695 86.5857 74.6281 101 74.6281C115.414 74.6281 127.185 86.3695 127.185 100.748V200.252C127.185 214.63 115.414 226.372 101 226.372ZM101 77.1157C87.9323 77.1157 77.3086 87.7128 77.3086 100.748V200.252C77.3086 213.287 87.9323 223.884 101 223.884C114.068 223.884 124.691 213.287 124.691 200.252V100.748C124.691 87.7128 114.068 77.1157 101 77.1157Z" fill="#529CFF"/>
<path d="M101 238.81C79.7028 238.81 62.3458 221.496 62.3458 200.252V100.748C62.3458 79.5038 79.7028 62.1901 101 62.1901C122.297 62.1901 139.654 79.5038 139.654 100.748V200.252C139.654 221.496 122.297 238.81 101 238.81ZM101 64.6777C81.0495 64.6777 64.8396 80.8471 64.8396 100.748V200.252C64.8396 220.153 81.0495 236.322 101 236.322C120.951 236.322 137.161 220.153 137.161 200.252V100.748C137.161 80.8471 120.951 64.6777 101 64.6777Z" fill="#529CFF"/>
<path d="M101 251.248C72.8197 251.248 49.8765 228.362 49.8765 200.252V100.748C49.8765 72.638 72.8197 49.7521 101 49.7521C129.18 49.7521 152.123 72.638 152.123 100.748V200.252C152.123 228.362 129.18 251.248 101 251.248ZM101 52.2397C74.1664 52.2397 52.3704 73.9813 52.3704 100.748V200.252C52.3704 227.019 74.1664 248.76 101 248.76C127.834 248.76 149.63 227.019 149.63 200.252V100.748C149.63 73.9813 127.834 52.2397 101 52.2397Z" fill="#529CFF"/>
<path d="M101 263.686C65.9369 263.686 37.4075 235.228 37.4075 200.252V100.748C37.4075 65.7722 65.9369 37.314 101 37.314C136.063 37.314 164.593 65.7722 164.593 100.748V200.252C164.593 235.228 136.063 263.686 101 263.686ZM101 39.8016C67.3335 39.8016 39.9014 67.1653 39.9014 100.748V200.252C39.9014 233.835 67.3335 261.198 101 261.198C134.667 261.198 162.099 233.835 162.099 200.252V100.748C162.099 67.1653 134.667 39.8016 101 39.8016Z" fill="#529CFF"/>
<path d="M101 276.124C59.0538 276.124 24.9383 242.094 24.9383 200.252V100.748C24.9383 58.9065 59.0538 24.876 101 24.876C142.946 24.876 177.062 58.9065 177.062 100.748V200.252C177.062 242.094 142.946 276.124 101 276.124ZM101 27.3636C60.4504 27.3636 27.4321 60.2995 27.4321 100.748V200.252C27.4321 240.701 60.4504 273.636 101 273.636C141.55 273.636 174.568 240.701 174.568 200.252V100.748C174.568 60.2995 141.55 27.3636 101 27.3636Z" fill="#529CFF"/>
<path d="M101 288.562C52.171 288.562 12.4692 248.959 12.4692 200.252V100.748C12.4692 52.0406 52.171 12.438 101 12.438C149.829 12.438 189.531 52.0406 189.531 100.748V200.252C189.531 248.959 149.829 288.562 101 288.562ZM101 14.9256C53.5675 14.9256 14.9631 53.4337 14.9631 100.748V200.252C14.9631 247.566 53.5675 286.074 101 286.074C148.433 286.074 187.037 247.566 187.037 200.252V100.748C187.037 53.4337 148.433 14.9256 101 14.9256Z" fill="#529CFF"/>
<path d="M101 301C45.2879 301 0 255.825 0 200.252V100.748C0 45.1749 45.2879 0 101 0C156.712 0 202 45.1749 202 100.748V200.252C202 255.825 156.712 301 101 301ZM101 2.4876C46.6844 2.4876 2.49383 46.5679 2.49383 100.748V200.252C2.49383 254.432 46.6844 298.512 101 298.512C155.316 298.512 199.506 254.432 199.506 200.252V100.748C199.506 46.5679 155.316 2.4876 101 2.4876Z" fill="#529CFF"/>
</g>
</svg>
