<svg width="870" height="495" viewBox="0 0 870 495" fill="none" xmlns="http://www.w3.org/2000/svg">
<path d="M629.052 253.422L595.902 348.896C593.476 355.369 589.433 359.414 583.773 361.032L426.106 395.823C424.489 395.823 422.063 396.633 420.446 395.823L260.353 361.032C254.693 360.223 249.842 355.369 248.225 348.896L215.074 253.422C213.457 248.568 213.457 242.904 215.074 238.05L248.225 142.576C250.65 136.103 255.502 131.249 260.353 130.44L422.063 98.0757C422.872 98.0757 423.68 98.0757 424.489 98.0757C425.297 98.0757 426.106 98.0757 426.915 98.0757L582.965 130.44C588.625 131.249 593.476 136.103 595.093 142.576L628.244 238.05C630.669 242.904 630.669 248.568 629.052 253.422Z" fill="url(#paint0_linear)"/>
<path d="M650.883 229.149L618.541 136.103C612.881 120.73 600.753 109.402 585.39 106.166L432.574 74.6112C426.914 73.8021 421.254 73.8021 416.403 74.6112L258.736 106.166C243.373 109.402 230.436 120.73 225.585 136.103L193.243 229.149C189.2 239.667 189.2 251.803 193.243 262.322L225.585 355.368C231.245 370.741 243.373 382.068 257.927 385.305L413.977 419.287C417.212 420.096 419.637 420.096 422.872 420.096C426.106 420.096 428.531 420.096 431.766 419.287L586.199 385.305C601.561 382.068 613.69 370.741 618.541 355.368L650.883 262.322C654.926 251.803 654.926 239.667 650.883 229.149ZM624.201 253.422L591.859 346.468C589.433 352.941 585.39 356.986 579.73 358.604L425.297 392.586C423.68 392.586 422.063 392.586 419.637 392.586L263.587 358.604C257.927 357.795 253.884 352.941 251.459 346.468L219.117 253.422C217.5 248.567 217.5 242.903 219.117 238.049L251.459 145.003C253.884 138.53 257.927 134.484 263.587 132.866L421.254 101.311C422.063 101.311 422.872 101.311 423.68 101.311C424.489 101.311 425.297 101.311 426.106 101.311L578.922 132.866C584.582 133.675 588.624 138.53 591.05 145.003L623.392 238.049C625.818 243.713 625.818 248.567 624.201 253.422Z" fill="url(#paint1_radial)"/>
<path d="M203.755 69.7578L266.822 197.595L407.51 217.823L305.632 317.342L329.889 458.124L203.755 391.779L77.6209 458.124L101.877 317.342L0 217.823L140.688 197.595L203.755 69.7578Z" fill="url(#paint2_linear)"/>
<path fill-rule="evenodd" clip-rule="evenodd" d="M142.305 226.722H132.603C127.751 226.722 123.709 230.767 123.709 235.622C123.709 255.849 129.369 267.986 147.965 279.313C154.434 293.068 165.753 304.395 178.69 311.677L175.456 318.15H194.053L190.818 311.677C203.755 304.395 215.075 293.068 221.543 279.313C239.332 267.986 245.8 256.658 245.8 235.622C245.8 230.767 241.757 226.722 236.906 226.722H226.395C226.395 206.494 142.305 206.494 142.305 226.722ZM184.35 267.177L168.988 278.504L174.647 259.895L159.285 249.377H178.69L184.35 230.767L190.01 249.377H209.415L194.053 259.895L199.713 278.504L184.35 267.177ZM194.053 319.768C197.287 319.768 198.095 323.814 198.095 326.241H169.796C169.796 323.814 170.605 319.768 173.839 319.768H194.053ZM201.33 327.05C203.755 327.05 206.181 331.904 206.989 333.523H160.902C161.711 331.904 164.136 327.05 166.562 327.05H201.33ZM207.798 334.332C208.607 334.332 208.607 335.141 208.607 335.141V353.75C208.607 354.559 206.181 356.986 205.372 356.986H161.711C160.902 356.986 158.476 354.559 158.476 353.75V335.141C158.476 335.141 158.476 334.332 159.285 334.332H207.798ZM226.395 233.195H236.097C236.906 233.195 238.523 234.004 238.523 235.622C238.523 249.377 236.906 259.086 224.778 267.986C224.778 267.986 226.395 236.431 226.395 233.195ZM142.305 233.195H132.603C131.794 233.195 130.177 234.004 130.177 235.622C130.177 249.377 131.794 259.086 143.923 267.986C143.923 267.986 142.305 236.431 142.305 233.195Z" fill="white"/>
<path d="M666.246 69.7578L729.312 197.595L870 217.823L768.123 317.342L791.571 458.124L666.246 391.779L540.112 458.124L564.368 317.342L462.491 217.823L603.179 197.595L666.246 69.7578Z" fill="url(#paint3_linear)"/>
<path d="M704.248 335.14H710.716V306.013H742.25C744.675 306.013 746.292 307.631 746.292 310.058V335.14H752.761C753.569 335.14 755.186 335.949 755.186 337.567V341.613C755.186 342.422 754.378 344.04 752.761 344.04H614.498C613.69 344.04 612.073 343.231 612.073 341.613V337.567C612.073 336.758 612.881 335.14 614.498 335.14H620.967V299.54C620.967 297.112 622.584 295.494 625.01 295.494H656.543V335.14H663.012V280.93C663.012 278.503 664.629 276.885 667.054 276.885H700.205C702.631 276.885 704.248 278.503 704.248 280.93V335.14ZM673.523 253.421C669.48 255.848 665.437 252.612 666.246 247.757L667.863 237.239L659.777 229.957C656.543 226.721 658.16 221.866 663.012 221.057L673.523 219.439L679.183 209.73C681.608 205.684 686.459 205.684 688.885 209.73L693.736 219.439L704.248 221.057C709.099 221.866 710.716 226.721 707.482 229.957L699.396 237.239L701.013 247.757C701.822 252.612 697.779 255.039 693.736 253.421L684.034 248.567L673.523 253.421Z" fill="white"/>
<path d="M436.617 0.174316L516.663 162.803L696.162 188.694L566.794 315.722L597.519 494.533L436.617 409.578L275.715 494.533L306.44 315.722L177.072 188.694L356.57 162.803L436.617 0.174316Z" fill="url(#paint4_linear)"/>
<path d="M509.388 254.231C506.153 234.813 494.834 217.822 478.663 210.54L467.343 205.685H418.021L406.701 210.54C390.53 217.822 378.402 234.003 375.977 254.231L366.274 318.15C364.657 327.859 371.125 335.95 380.019 335.95H443.086H506.153C514.239 335.95 520.707 327.05 519.899 318.15L509.388 254.231ZM442.278 315.722C418.83 315.722 400.233 297.113 400.233 273.649C400.233 250.185 418.83 231.576 442.278 231.576C465.726 231.576 484.322 250.185 484.322 273.649C484.322 297.113 465.726 315.722 442.278 315.722Z" fill="white"/>
<path d="M419.638 194.358H464.917L475.428 174.939C476.237 172.512 474.619 170.085 472.194 170.894L456.831 177.367C456.023 177.367 454.406 177.367 453.597 176.558L444.703 164.421C443.895 162.803 441.469 162.803 440.66 164.421L430.958 175.749C430.149 177.367 428.532 177.367 427.724 177.367L412.361 171.703C409.935 170.894 408.318 173.321 409.127 175.749L419.638 194.358Z" fill="white"/>
<path d="M446.321 268.793C440.661 266.366 438.235 264.748 438.235 263.13C438.235 261.512 439.852 259.084 443.895 259.084C448.746 259.084 451.981 260.702 453.598 261.512L455.215 253.421C452.789 252.611 449.555 250.993 445.512 250.993V244.521H439.044V250.993C431.767 252.611 426.916 257.466 426.916 263.13C426.916 269.603 431.767 273.648 439.852 276.075C444.704 277.694 447.129 279.312 447.129 281.739C447.129 284.166 444.704 285.784 440.661 285.784C435.81 285.784 431.767 284.166 429.341 282.548L426.916 290.639C429.341 292.257 434.192 293.066 439.044 293.875V300.348H445.512V293.066C453.598 291.448 457.64 286.594 457.64 280.121C457.64 276.075 454.406 272.03 446.321 268.793Z" fill="white"/>
<defs>
<linearGradient id="paint0_linear" x1="422.382" y1="-75.0517" x2="422.382" y2="441.745" gradientUnits="userSpaceOnUse">
<stop stop-color="#0081FF"/>
<stop offset="0.0500933" stop-color="#0379EF"/>
<stop offset="0.2342" stop-color="#0D5FB7"/>
<stop offset="0.4134" stop-color="#154A89"/>
<stop offset="0.5836" stop-color="#1B3966"/>
<stop offset="0.7426" stop-color="#1F2D4C"/>
<stop offset="0.8859" stop-color="#22263C"/>
<stop offset="1" stop-color="#232337"/>
</linearGradient>
<radialGradient id="paint1_radial" cx="0" cy="0" r="1" gradientUnits="userSpaceOnUse" gradientTransform="translate(422.389 247.104) scale(314.987 315.2)">
<stop stop-color="#0081FF"/>
<stop offset="0.3153" stop-color="#0080FD"/>
<stop offset="0.4616" stop-color="#027CF5"/>
<stop offset="0.5731" stop-color="#0476E9"/>
<stop offset="0.6669" stop-color="#076ED6"/>
<stop offset="0.7496" stop-color="#0B63BF"/>
<stop offset="0.8245" stop-color="#1055A1"/>
<stop offset="0.8935" stop-color="#16457F"/>
<stop offset="0.9561" stop-color="#1D3257"/>
<stop offset="1" stop-color="#232337"/>
</radialGradient>
<linearGradient id="paint2_linear" x1="203.736" y1="62.7866" x2="203.736" y2="772.003" gradientUnits="userSpaceOnUse">
<stop stop-color="#0081FF"/>
<stop offset="0.2024" stop-color="#0969CC"/>
<stop offset="0.4808" stop-color="#144B8D"/>
<stop offset="0.7162" stop-color="#1C355E"/>
<stop offset="0.8964" stop-color="#212842"/>
<stop offset="1" stop-color="#232337"/>
</linearGradient>
<linearGradient id="paint3_linear" x1="666.03" y1="73.1641" x2="666.03" y2="927.528" gradientUnits="userSpaceOnUse">
<stop stop-color="#0081FF"/>
<stop offset="0.1905" stop-color="#0969CC"/>
<stop offset="0.4526" stop-color="#144B8D"/>
<stop offset="0.6742" stop-color="#1C355E"/>
<stop offset="0.8438" stop-color="#212842"/>
<stop offset="0.9413" stop-color="#232337"/>
</linearGradient>
<linearGradient id="paint4_linear" x1="436.604" y1="-170.193" x2="436.604" y2="910.418" gradientUnits="userSpaceOnUse">
<stop stop-color="#0081FF"/>
<stop offset="0.2024" stop-color="#0969CC"/>
<stop offset="0.4808" stop-color="#144B8D"/>
<stop offset="0.7162" stop-color="#1C355E"/>
<stop offset="0.8964" stop-color="#212842"/>
<stop offset="1" stop-color="#232337"/>
</linearGradient>
</defs>
</svg>
