<svg width="20" height="15" viewBox="0 0 20 15" fill="none" xmlns="http://www.w3.org/2000/svg">
<g clip-path="url(#clip0)">
<path d="M15.5318 1.99816L15.6474 2.1114L15.8075 2.13538L17.0464 2.32093L17.0664 2.32392L17.0865 2.32529L17.2784 2.33835L18.8907 6.81116L18.1883 7.35812L18.0713 7.44917L18.0229 7.58923L17.6356 8.70919L17.6034 8.80246L17.609 8.90099L17.6358 9.37278L5.78445 13.914L4.84576 12.9302L4.7001 12.7775L4.4891 12.7754L2.9659 12.7599L1.29622 8.0499L2.10991 7.60524L2.32719 7.48651L2.36445 7.24171L2.55285 6.00376L2.56078 5.95165L2.55767 5.89904L2.53003 5.4313L14.3457 1.05126L14.8924 1.37213L15.5318 1.99816Z" stroke="white"/>
<path d="M6.06727 12.5379C6.22523 12.5664 6.38984 12.5503 6.54114 12.4941L16.0936 8.96963C16.207 8.9277 16.311 8.86373 16.3995 8.78142C16.488 8.69911 16.5593 8.60008 16.6094 8.49005C16.6605 8.38042 16.6894 8.26172 16.6943 8.14084C16.6992 8.01997 16.68 7.89932 16.6379 7.78591L14.8738 3.00443C14.8171 2.85312 14.7219 2.71926 14.5975 2.6161C14.4732 2.51295 14.324 2.4441 14.1649 2.41637C14.0058 2.38898 13.8424 2.40408 13.691 2.46015L4.13755 5.9856C4.02447 6.02757 3.92078 6.09145 3.83244 6.17359C3.7441 6.25572 3.67285 6.35449 3.62277 6.46422C3.57162 6.57385 3.54276 6.69255 3.53786 6.81343C3.53296 6.9343 3.55212 7.05495 3.59422 7.16836L5.35838 11.9508C5.41484 12.1021 5.51002 12.236 5.63442 12.339C5.75882 12.442 5.90807 12.5106 6.06727 12.5379ZM4.37734 6.63645L13.9308 3.111C13.9678 3.09829 14.0072 3.09438 14.0459 3.09958C14.0851 3.10623 14.1218 3.12299 14.1525 3.14819C14.1832 3.17338 14.2068 3.20615 14.221 3.24326L15.9842 8.0257C15.9945 8.05362 15.9992 8.0833 15.998 8.11303C15.9967 8.14277 15.9896 8.17196 15.9771 8.19894C15.9645 8.22592 15.9467 8.25015 15.9248 8.27022C15.9028 8.2903 15.8771 8.30583 15.8491 8.31592L6.29945 11.8433C6.26218 11.8561 6.22242 11.86 6.18336 11.8547C6.1442 11.848 6.10746 11.8313 6.07675 11.8061C6.04605 11.7809 6.02245 11.7481 6.00828 11.711L4.24603 6.92857C4.22532 6.87215 4.2277 6.80984 4.25263 6.75515C4.27757 6.70047 4.32306 6.65782 4.37924 6.63645H4.37734Z" fill="white"/>
<path d="M8.40111 7.67697L9.6581 8.09089C9.68131 8.10113 9.70168 8.11689 9.71743 8.13679C9.73318 8.15669 9.74384 8.18012 9.74849 8.20507L9.84365 9.50392C9.84837 9.52954 9.85866 9.5538 9.8738 9.57501C9.88893 9.59621 9.90853 9.61383 9.93122 9.62663C9.95391 9.63942 9.97913 9.64708 10.0051 9.64906C10.0311 9.65104 10.0572 9.6473 10.0815 9.63809C10.1086 9.62846 10.1326 9.61169 10.151 9.58956L10.9246 8.5343C10.942 8.5157 10.9635 8.50137 10.9874 8.49244C11.0102 8.48292 11.0359 8.48102 11.0616 8.48292L12.3348 8.78075C12.3678 8.78482 12.4013 8.77967 12.4315 8.76585C12.4617 8.75204 12.4876 8.73012 12.5061 8.70251C12.5246 8.67491 12.5352 8.64271 12.5365 8.60949C12.5378 8.57627 12.5299 8.54332 12.5137 8.51432L11.7429 7.46287C11.7303 7.4412 11.7232 7.41671 11.7224 7.39163C11.7216 7.36655 11.727 7.34165 11.7382 7.31919L12.4233 6.18686C12.4347 6.162 12.4404 6.13485 12.4398 6.10747C12.4392 6.0801 12.4323 6.05323 12.4197 6.02891C12.4072 6.00459 12.3892 5.98346 12.3672 5.96713C12.3452 5.9508 12.3198 5.93971 12.2929 5.9347C12.2708 5.93081 12.2481 5.93146 12.2263 5.9366L10.9798 6.35909C10.961 6.36361 10.9415 6.36361 10.9227 6.35909C10.8922 6.35447 10.8637 6.34089 10.8409 6.32007L9.98542 5.30668C9.96118 5.28357 9.93087 5.26782 9.89803 5.26125C9.86518 5.25468 9.83114 5.25757 9.79987 5.26957C9.76845 5.28077 9.74085 5.30067 9.7203 5.32695C9.69974 5.35323 9.68708 5.38481 9.68379 5.41801L9.6933 6.74541C9.69071 6.77075 9.68187 6.79504 9.66759 6.81613C9.65331 6.83722 9.63403 6.85444 9.61147 6.86626L8.3916 7.3544C8.36165 7.37002 8.33671 7.39375 8.31962 7.42289C8.30254 7.45202 8.29401 7.48538 8.295 7.51914C8.29599 7.5529 8.30647 7.5857 8.32524 7.61378C8.34401 7.64186 8.3703 7.66409 8.40111 7.67792V7.67697Z" fill="white"/>
</g>
<defs>
<clipPath id="clip0">
<rect width="18.8015" height="14" fill="white" transform="translate(0.682617 0.5)"/>
</clipPath>
</defs>
</svg>
