<svg width="18" height="19" viewBox="0 0 18 19" fill="none" xmlns="http://www.w3.org/2000/svg">
<path d="M16.7691 11.408C17.0197 10.3878 17.0669 9.32813 16.9079 8.28965C16.749 7.25117 16.387 6.25416 15.8428 5.35556C15.2985 4.45695 14.5826 3.67434 13.7359 3.05242C12.8892 2.43049 11.9283 1.98143 10.908 1.73086C9.88775 1.4803 8.82813 1.43314 7.78965 1.59209C6.75117 1.75103 5.75416 2.11297 4.85556 2.65722C3.95695 3.20148 3.17434 3.9174 2.55242 4.76411C1.93049 5.61082 1.48143 6.57173 1.23086 7.59199C0.980299 8.61225 0.933144 9.67187 1.09209 10.7104C1.25103 11.7488 1.61297 12.7458 2.15722 13.6444C2.70148 14.5431 3.4174 15.3257 4.26411 15.9476C5.11082 16.5695 6.07173 17.0186 7.09199 17.2691C8.11225 17.5197 9.17187 17.5669 10.2104 17.4079C11.2488 17.249 12.2458 16.887 13.1444 16.3428C14.0431 15.7985 14.8257 15.0826 15.4476 14.2359C16.0695 13.3892 16.5186 12.4283 16.7691 11.408L16.7691 11.408Z" stroke="#5788FF" stroke-width="2"/>
<path d="M9 1.5C7.68439 1.5 6.38909 1.82446 5.22883 2.44463C4.06856 3.0648 3.07916 3.96155 2.34824 5.05544C1.61733 6.14933 1.16747 7.40659 1.03852 8.71586C0.90957 10.0251 1.1055 11.346 1.60896 12.5615C2.11242 13.7769 2.90788 14.8495 3.92485 15.6841C4.94183 16.5187 6.14895 17.0896 7.43928 17.3463C8.72961 17.6029 10.0633 17.5374 11.3223 17.1555C12.5812 16.7736 13.7266 16.0871 14.6569 15.1569" stroke="white" stroke-width="2"/>
<path fill-rule="evenodd" clip-rule="evenodd" d="M3.8667 9.50132C3.8667 6.66572 6.1653 4.3667 9.00003 4.3667C11.8352 4.3667 14.1334 6.66572 14.1334 9.50132C14.1334 12.3369 11.8352 14.6359 9.00003 14.6359C6.1653 14.6359 3.8667 12.3369 3.8667 9.50132ZM10.7381 11.666L10.8879 11.5162C11.0128 11.3917 11.0184 11.182 10.9016 11.0498L9.55629 9.49744C9.43948 9.36523 9.33636 9.11406 9.32737 8.93734L9.18061 6.39827C9.17205 6.22199 9.02058 6.07822 8.84386 6.07822H8.63291C8.4562 6.07822 8.3043 6.22199 8.29489 6.3987L8.1156 9.45123C8.10704 9.62752 8.20674 9.86842 8.33853 9.98609L10.2726 11.6784C10.4035 11.7965 10.6136 11.7905 10.7381 11.666Z" fill="white"/>
</svg>
