<svg viewBox="0 0 25 25" xmlns="http://www.w3.org/2000/svg"><path d="m12.5-.00378904c6.903566 0 12.5 5.59728884 12.5 12.50189454s-5.596434 12.5018945-12.5 12.5018945c-6.90355745 0-12.5-5.5972888-12.5-12.5018945s5.59644255-12.50189454 12.5-12.50189454zm0 2c-5.7989208 0-10.5 4.7017912-10.5 10.50189454 0 5.8001033 4.7010792 10.5018945 10.5 10.5018945 5.7989262 0 10.5-4.701788 10.5-10.5018945 0-5.80010652-4.7010738-10.50189454-10.5-10.50189454zm0 15.50378904c.8284271 0 1.5.6715729 1.5 1.5s-.6715729 1.5-1.5 1.5-1.5-.6715729-1.5-1.5.6715729-1.5 1.5-1.5zm-.0000043-13c.5128358 0 .9355072.38604019.9932723.88337887l.0067277.11662113v9c0 .5522847-.4477153 1-1 1-.5128358 0-.9355072-.3860402-.9932723-.8833789l-.0067277-.1166211v-9c0-.55228475.4477153-1 1-1z" fill-rule="evenodd"/></svg>