<svg viewBox="0 0 22 23" xmlns="http://www.w3.org/2000/svg" xmlns:xlink="http://www.w3.org/1999/xlink"><radialGradient id="a" cx="42.136542%" cy="107.742086%" r="119.669089%"><stop offset="0" stop-color="#ffd87a"/><stop offset=".1426" stop-color="#fcce78"/><stop offset=".2263" stop-color="#f5b471"/><stop offset=".3378" stop-color="#eb8d65"/><stop offset=".449" stop-color="#e36058"/><stop offset=".6786" stop-color="#cd3694"/><stop offset="1" stop-color="#6668b0"/></radialGradient><g fill="none" fill-rule="evenodd" transform="translate(0 .04)"><path d="m.000009 0h22v22h-22z" fill="#fff" opacity="0"/><path d="m15.2303128 0c3.7437972 0 6.7756203 3.03182309 6.7696872 6.7815534v8.4428263c0 3.7437972-3.0318231 6.7756203-6.7756203 6.7756203h-8.4428263c-3.74973031 0-6.7815534-3.0318231-6.7815534-6.7756203v-8.4428263c0-3.7437972 3.0377562-6.7815534 6.7815534-6.7815534zm-.8128371 2.11218986h-6.82308519c-3.02588997 0-5.47626753 2.45037756-5.47626753 5.47626753v6.82308521c0 3.02589 2.45037756 5.4762675 5.47626753 5.4762675h6.82308519c3.02589 0 5.4762676-2.4503775 5.4762676-5.4762675v-6.82308521c0-3.01995685-2.4503776-5.47626753-5.4762676-5.47626753zm-3.1148867 3.13268608c3.1979504 0 5.7907228 2.59277239 5.7966559 5.79665586 0 3.2038835-2.5987055 5.7966559-5.7966559 5.7966559-3.2038835 0-5.79665588-2.5987055-5.79665588-5.7966559 0-3.20388347 2.59277238-5.79665586 5.79665588-5.79665586zm0 2.30204963c-1.92826322 0-3.48867314 1.56040992-3.48867314 3.48867313 0 1.9282632 1.56040992 3.4886731 3.48867314 3.4886731 1.9223301 0 3.48274-1.5604099 3.4886731-3.4886731 0-1.92826321-1.566343-3.48867313-3.4886731-3.48867313zm5.3932039-3.86839267c.8128371 0 1.4714131.65857605 1.4714131 1.47734628 0 .81283711-.658576 1.47141316-1.4714131 1.47141316s-1.4714132-.65857605-1.4714132-1.47141316.6585761-1.47734628 1.4714132-1.47734628z" fill="url(#a)" fill-rule="nonzero"/></g></svg>