<svg height="21" viewBox="0 0 22 21" width="22" xmlns="http://www.w3.org/2000/svg"><path d="m6.05528846 9.98197115c-.65224359-1.42788461-.97836538-3.06290064-.97836538-4.90504807h-3.38461539v1.26923077c0 .6875.41646635 1.4014423 1.24939904 2.14182692.83293269.74038461 1.87079327 1.23838141 3.11358173 1.49399038zm14.25240384-3.6358173v-1.26923077h-3.3846154c0 1.84214743-.3261218 3.47716346-.9783654 4.90504807 1.2427885-.25560897 2.2806491-.75360577 3.1135818-1.49399038.8329327-.74038462 1.249399-1.45432692 1.249399-2.14182692zm1.6923077-1.6923077v1.6923077c0 .62580128-.1828926 1.25600961-.5486779 1.890625-.3657852.63461538-.859375 1.20753205-1.4807692 1.71875s-1.3838141.94090545-2.2872596 1.28906245c-.9034455.3481571-1.8531651.5442709-2.8491587.5883414-.3701923.4759615-.7888622.8946314-1.2560096 1.2560096-.3349359.2996795-.5663061.6191907-.6941106.9585337-.1278045.3393429-.1917067.733774-.1917067 1.1832932 0 .4759616.1344151.8770032.4032452 1.203125s.6985176.4891827 1.2890625.4891827c.6610577 0 1.249399.2005209 1.765024.6015625.515625.4010417.7734375.9056491.7734375 1.5138221v.8461539c0 .1233974-.0396634.2247596-.1189904.3040865-.0793269.0793269-.1806891.1189904-.3040865.1189904h-11c-.12339744 0-.22475962-.0396635-.30408654-.1189904s-.11899038-.1806891-.11899038-.3040865v-.8461539c0-.608173.2578125-1.1127804.7734375-1.5138221.515625-.4010416 1.10396634-.6015625 1.76502404-.6015625.59054487 0 1.02023237-.1630609 1.2890625-.4891827.26883012-.3261218.40324519-.7271634.40324519-1.203125 0-.4495192-.06390225-.8439503-.19170673-1.1832932-.12780449-.339343-.35917468-.6588542-.69411058-.9585337-.46714744-.3613782-.88581731-.7800481-1.25600962-1.2560096-.99599359-.0440705-1.94571314-.2401843-2.84915865-.5883414-.90344551-.348157-1.66586538-.7778445-2.28725961-1.28906245-.62139424-.51121795-1.11498398-1.08413462-1.48076923-1.71875-.36578526-.63461539-.54867789-1.26482372-.54867789-1.890625v-1.6923077c0-.3525641.12339744-.65224359.37019231-.89903846s.54647436-.37019231.89903846-.37019231h3.80769231v-1.26923076c0-.58173077.20713141-1.07972757.62139423-1.49399039.41426282-.41426282.91225961-.62139423 1.49399038-.62139423h7.61538461c.5817308 0 1.0797276.20713141 1.4939904.62139423s.6213942.91225962.6213942 1.49399039v1.26923076h3.8076923c.3525641 0 .6522436.12339744.8990385.37019231s.3701923.54647436.3701923.89903846z"/></svg>