<svg xmlns="http://www.w3.org/2000/svg" viewBox="0 0 36.93 34.66"><defs><style>.cls-1{fill:#4bae4a;}</style></defs><g id="Layer_2" data-name="Layer 2"><g id="Layer_1-2" data-name="Layer 1"><path class="cls-1" d="M35.89,21.18h0a3.57,3.57,0,0,1-5,0l-9-9a4.8,4.8,0,0,0-6.78,0l-9,9a3.56,3.56,0,0,1-5,0H1a3.55,3.55,0,0,1,0-5L16.3.9a3.05,3.05,0,0,1,4.33,0L35.89,16.15A3.57,3.57,0,0,1,35.89,21.18Z"/><path class="cls-1" d="M28.82,33.62h0a3.54,3.54,0,0,1-5,0l-2.9-2.9a3.45,3.45,0,0,0-4.87,0l-2.9,2.9a3.54,3.54,0,0,1-5,0h0a3.54,3.54,0,0,1,0-5l8.19-8.19a3.05,3.05,0,0,1,4.33,0l8.19,8.19A3.54,3.54,0,0,1,28.82,33.62Z"/></g></g></svg>