<svg height="24" viewBox="0 0 22 24" width="22" xmlns="http://www.w3.org/2000/svg"><path d="m22 12.8333333c0 1.4895834-.2912326 2.9123264-.8736979 4.2682292s-1.3654514 2.5256076-2.3489583 3.5091146c-.983507.9835069-2.1532119 1.766493-3.5091146 2.3489583-1.3559028.5824653-2.7786459.8736979-4.2682292.8736979-1.48958333 0-2.91232639-.2912326-4.26822917-.8736979-1.35590277-.5824653-2.52560764-1.3654514-3.50911458-2.3489583-.98350694-.983507-1.76649306-2.1532118-2.34895833-3.5091146-.58246528-1.3559028-.87369792-2.7786458-.87369792-4.2682292 0-1.7378472.3843316-3.37543399 1.15299479-4.91276038.7686632-1.53732639 1.8500434-2.82638889 3.24414063-3.8671875.41059027-.30555556.86653646-.4249132 1.36783854-.35807292s.8999566.30555556 1.19596354.71614583c.30555556.40104167.42252604.85221354.35091146 1.35351563-.07161458.50130208-.30794271.9047309-.70898438 1.21028646-.93576389.70659722-1.65907118 1.57074652-2.16992187 2.59244791-.5108507 1.02170137-.76627604 2.11024307-.76627604 3.26562497 0 .9930556.19335937 1.9407552.58007812 2.843099.38671875.9023437.90950521 1.6829427 1.56835938 2.3417969.65885416.6588541 1.43945312 1.1816406 2.34179687 1.5683593.90234375.3867188 1.85004336.5800782 2.84309896.5800782s1.9407552-.1933594 2.843099-.5800782c.9023437-.3867187 1.6829427-.9095052 2.3417968-1.5683593.6588542-.6588542 1.1816407-1.4394532 1.5683594-2.3417969.3867188-.9023438.5800781-1.8500434.5800781-2.843099 0-1.1553819-.2554253-2.2439236-.766276-3.26562497-.5108507-1.02170139-1.234158-1.88585069-2.1699219-2.59244791-.4010416-.30555556-.6373698-.70898438-.7089844-1.21028646-.0716145-.50130209.0453559-.95247396.3509115-1.35351563.2960069-.41059027.6970486-.64930555 1.203125-.71614583s.9596354.05251736 1.3606771.35807292c1.3940972 1.04079861 2.4754774 2.32986111 3.2441406 3.8671875s1.1529948 3.17491318 1.1529948 4.91276038zm-9.1666667-10.99999997v9.16666667c0 .4965278-.1814236.9262153-.5442708 1.2890625s-.7925347.5442708-1.2890625.5442708-.9262153-.1814236-1.2890625-.5442708c-.36284722-.3628472-.54427083-.7925347-.54427083-1.2890625v-9.16666667c0-.49652777.18142361-.92621527.54427083-1.2890625.3628472-.36284722.7925347-.54427083 1.2890625-.54427083s.9262153.18142361 1.2890625.54427083c.3628472.36284723.5442708.79253473.5442708 1.2890625z"/></svg>