<svg viewBox="0 0 26 31" xmlns="http://www.w3.org/2000/svg">
  <path
    d="m195.75 68.5v-1.25c0-4.8324916-3.917508-8.75-8.75-8.75s-8.75 3.9175084-8.75 8.75v1.25c-2.071068 0-3.75 1.6789322-3.75 3.75v12.5c0 2.0710678 1.678932 3.75 3.75 3.75h17.5c2.071068 0 3.75-1.6789322 3.75-3.75v-12.5c0-2.0710678-1.678932-3.75-3.75-3.75zm-7.5 9.65v4.1c0 .6903559-.559644 1.25-1.25 1.25s-1.25-.5596441-1.25-1.25v-4.1c-.97992-.5657571-1.457672-1.7191523-1.164815-2.8121111.292858-1.0929588 1.283301-1.8529524 2.414815-1.8529524s2.121957.7599936 2.414815 1.8529524c.292857 1.0929588-.184895 2.246354-1.164815 2.8121111zm5-9.65h-12.5v-1.25c0-3.4517797 2.79822-6.25 6.25-6.25s6.25 2.7982203 6.25 6.25z"
    fill="url(#gold-gradient-diagonal)"
    transform="translate(-174 -58)"
  />
  <defs>
    <linearGradient id="gold-gradient-diagonal" gradientTransform="rotate(45)">
      <stop offset="0%" stop-color="#C6A156" />
      <stop offset="60%" stop-color="#FFD978" />
      <stop offset="100%" stop-color="#B88C3D" />
    </linearGradient>
  </defs>
</svg>