<svg viewBox="0 0 20 21" xmlns="http://www.w3.org/2000/svg"><path d="m358.634861 7.73370494c.288391-.2883907.742181-.3105746 1.056018-.0665517l.075367.0665517 4.000049 4.00004896c.288391.2883907.310575.7421811.066552 1.0560179l-.066552.0753668-12.800157 12.8001568c-.072102.0721021-.157093.1295306-.250233.1694957l-.095679.0340405-5.600069 1.6000196c-.574751.1642147-1.108193-.3340379-1.008746-.9031793l.019738-.0858289 1.600019-5.6000686c.028013-.0980444.074419-.1895215.136429-.2696897l.067108-.076223zm-11.839439 14.89226776-.83103 2.9088357 2.908655-.8312102zm9.304914-10.0945236-8.568105 8.5681049 2.868035 2.8680352 8.568105-8.568105zm3.100218-3.10003794-1.969004 1.96882414 2.868035 2.8680351 1.969004-1.9688241z" fill="#7474ad" transform="translate(-344 -7)"/></svg>