<svg height="15" viewBox="0 0 18 15" width="18" xmlns="http://www.w3.org/2000/svg"><path d="m8.05285714 15.815c.18428572-.5196429 1.59-2.31 1.59-5.4578571 0-1.77535719-1.43892857-3.21428576-3.21428571-3.21428576s-3.21428572 1.43892857-3.21428572 3.21428576c0 3.1478571 1.40678572 4.9382142 1.59 5.4578571-1.64035714.15-4.80428571 1.1967857-4.80428571 3.1135714 0 .4521429.36 1.0714286 1.07142857 1.0714286h10.71428573c.7114286 0 1.0714286-.6192857 1.0714286-1.0714286 0-1.9167857-3.16392861-2.9635714-4.80428576-3.1135714zm5.49857146-3.2732143c.2582143-.78 1.4485714-2.96357141 1.4485714-4.32749999 0-1.77535714-1.44-3.21428571-3.2142857-3.21428571-.9 0-1.7132143.37071429-2.29607144.96642857 1.38535714.97071429 2.29607144 2.57571429 2.29607144 4.39071433 0 1.6296428-.3182143 2.9775-.6910714 4.0157142.8303571.3289286 1.6360714.7746429 2.2992857 1.3414286h2.6775c.6192857 0 1.0714285-.4853571 1.0714285-1.0714286 0-1.3478571-2.595-1.9167857-3.5914285-2.1010714z" fill="#fff" transform="translate(0 -5)"/></svg>