<svg width="316" height="354" viewBox="0 0 316 354" fill="none" xmlns="http://www.w3.org/2000/svg">
<path fill-rule="evenodd" clip-rule="evenodd" d="M226.409 111.031H296.834L315.735 137.112H212.168L226.409 111.031Z" fill="#0D7EE8"/>
<path fill-rule="evenodd" clip-rule="evenodd" d="M202.329 415.779H275.603L315.735 137.112H212.168L202.329 415.779Z" fill="#232338"/>
<path fill-rule="evenodd" clip-rule="evenodd" d="M107.307 164.214H19.2744L0.373413 185.787H103.941L107.307 164.214Z" fill="#0D7EE8"/>
<path fill-rule="evenodd" clip-rule="evenodd" d="M113.779 415.779H40.5053L0.372925 185.787H103.94L113.779 415.779Z" fill="#232338"/>
<path fill-rule="evenodd" clip-rule="evenodd" d="M109.248 0.123291H205.695L231.587 35.7565H89.8292L109.248 0.123291Z" fill="#0D7EE8"/>
<path fill-rule="evenodd" clip-rule="evenodd" d="M108.599 415.779H209.052L231.735 35.6061H89.8041L108.599 415.779Z" fill="#232338"/>
<path d="M71.3634 254.81C76.3754 255.62 80.2162 257.484 82.8856 260.4C85.5551 263.262 86.8898 266.826 86.8898 271.093C86.8898 274.387 86.0181 277.439 84.2748 280.247C82.5315 283.001 79.862 285.215 76.2665 286.89C72.7254 288.564 68.3671 289.401 63.1916 289.401C59.1602 289.401 55.1832 288.888 51.2608 287.862C47.3928 286.782 44.0969 285.269 41.3729 283.325L46.5212 273.28C48.7003 274.9 51.2063 276.169 54.0392 277.088C56.9266 277.952 59.8684 278.384 62.8647 278.384C66.1879 278.384 68.8029 277.763 70.7096 276.52C72.6164 275.224 73.5698 273.415 73.5698 271.093C73.5698 266.448 70.0014 264.126 62.8647 264.126H56.8176V255.458L68.585 242.254H44.2331V231.723H84.2748V240.229L71.3634 254.81Z" fill="#0D7EE8"/>
<path d="M181.051 61.4691V179.257H153.466V83.344H129.627V61.4691H181.051Z" fill="#0D7EE8"/>
<path d="M286.33 237.064V248.401H241.116V239.383L264.193 217.481C266.643 215.134 268.296 213.13 269.15 211.469C270.005 209.751 270.432 208.062 270.432 206.402C270.432 203.997 269.606 202.164 267.954 200.905C266.358 199.588 263.994 198.929 260.86 198.929C258.239 198.929 255.874 199.445 253.766 200.475C251.657 201.449 249.891 202.937 248.467 204.942L238.381 198.414C240.717 194.921 243.937 192.201 248.039 190.255C252.142 188.251 256.843 187.249 262.142 187.249C266.586 187.249 270.461 187.993 273.766 189.482C277.128 190.913 279.72 192.974 281.544 195.666C283.424 198.299 284.364 201.42 284.364 205.027C284.364 208.291 283.68 211.355 282.313 214.217C280.945 217.08 278.296 220.344 274.364 224.009L260.603 237.064H286.33Z" fill="#0D7EE8"/>
</svg>
