<svg width="20" height="16" viewBox="0 0 20 16" fill="none" xmlns="http://www.w3.org/2000/svg">
<path opacity="0.25" fill-rule="evenodd" clip-rule="evenodd" d="M4 7.265C4 7.265 4 7.242 4.004 7.2C4.02852 6.97101 4.06794 6.74386 4.122 6.52C4.22756 6.07829 4.38429 5.6504 4.589 5.245C5.037 4.375 5.582 3.933 6.249 3.852L5.751 0C3.217 0.307 1.751 1.923 0.999 3.382C0.37445 4.5831 0.0340365 5.91156 0.00399995 7.265H0V16H9V7.265H4ZM15 7.265C15 7.265 15 7.242 15.004 7.2C15.0286 6.97102 15.068 6.74387 15.122 6.52C15.22 6.119 15.372 5.666 15.589 5.245C16.037 4.375 16.583 3.933 17.249 3.852L16.751 0C14.217 0.307 12.751 1.923 11.999 3.382C11.3747 4.58315 11.0347 5.91163 11.005 7.265H11V16H20V7.265H15Z" fill="white"/>
</svg>
