<?xml version="1.0" encoding="UTF-8"?>
<svg width="547px" height="858px" viewBox="0 0 547 858" version="1.1" xmlns="http://www.w3.org/2000/svg" xmlns:xlink="http://www.w3.org/1999/xlink">
    <title>Group 3</title>
    <g id="Identification" stroke="none" stroke-width="1" fill="none" fill-rule="evenodd">
        <g id="Sign-up-/-1-/-Mobile" transform="translate(40.000000, -11.000000)" fill-rule="nonzero">
            <g id="Group-3" transform="translate(-40.000000, 11.000000)">
                <g id="Frame-4" transform="translate(366.500000, 0.000000)" fill="#529CFF" opacity="0.404264178">
                    <g id="Group">
                        <path d="M44.5562899,60 C44.5562899,51.4371014 51.5664928,44.4444638 60.1510145,44.4444638 L119.559304,44.4444638 C128.143826,44.4444638 135.153971,51.4371014 135.153971,60 C135.153971,68.5628986 128.143826,75.5553623 119.559304,75.5553623 L60.1510145,75.5553623 C51.5664928,75.5553623 44.5562899,68.5628986 44.5562899,60 Z M133.668754,60 C133.668754,52.2371014 127.341797,45.925971 119.559304,45.925971 L60.1510145,45.925971 C52.3685217,45.925971 46.0415072,52.2371014 46.0415072,60 C46.0415072,67.7628986 52.3685217,74.0742029 60.1510145,74.0742029 L119.559304,74.0742029 C127.341797,74.0742029 133.668754,67.7628986 133.668754,60 Z" id="Shape"></path>
                        <path d="M37.130087,60 C37.130087,47.3481739 47.4671304,37.0370435 60.1507826,37.0370435 L119.55913,37.0370435 C132.242783,37.0370435 142.579826,47.3481739 142.579826,60 C142.579826,72.6515942 132.242783,82.9628986 119.559072,82.9628986 L60.1507826,82.9628986 C47.4671304,82.9628986 37.130087,72.6515942 37.130087,60 Z M141.094609,60 C141.094609,48.1481739 131.440754,38.5185507 119.55913,38.5185507 L60.1507826,38.5185507 C48.2691594,38.5185507 38.6153043,48.1481739 38.6153043,60 C38.6153043,71.8515942 48.2691014,81.4817391 60.1507826,81.4817391 L119.559072,81.4817391 C131.440754,81.4817391 141.094609,71.8515942 141.094609,60 Z" id="Shape"></path>
                        <path d="M29.7043478,60 C29.7043478,43.2592464 43.3682899,29.6296232 60.1511304,29.6296232 L119.559478,29.6296232 C136.342319,29.6296232 150.006377,43.2592464 150.006377,60 C150.006377,76.7408696 136.342319,90.3704348 119.559478,90.3704348 L60.1511304,90.3704348 C43.3682899,90.3704348 29.7043478,76.7408696 29.7043478,60 Z M148.521159,60 C148.521159,44.0592464 135.54029,31.1110725 119.559478,31.1110725 L60.1511304,31.1110725 C44.1702609,31.1110725 31.1895652,44.0592464 31.1895652,60 C31.1895652,75.9408696 44.1702609,88.8886957 60.1511304,88.8886957 L119.559478,88.8886957 C135.54029,88.8886957 148.521159,75.9408696 148.521159,60 Z" id="Shape"></path>
                        <path d="M22.2782609,60 C22.2782609,39.1704348 39.2689275,22.2223188 60.1509565,22.2223188 L119.559246,22.2223188 C140.441275,22.2223188 157.431884,39.1704348 157.431884,60 C157.431884,80.8295652 140.441275,97.777971 119.559246,97.777971 L60.1509565,97.777971 C39.2689275,97.777971 22.2782609,80.8295652 22.2782609,60 Z M155.946667,60 C155.946667,40.0001159 139.609565,23.7037681 119.559246,23.7037681 L60.1509565,23.7037681 C40.1006377,23.7037681 23.7634783,40.0001159 23.7634783,60 C23.7634783,80 40.1006377,96.2962319 60.1509565,96.2962319 L119.559246,96.2962319 C139.609565,96.2962319 155.946667,80 155.946667,60 Z" id="Shape"></path>
                        <path d="M14.8521739,60 C14.8521739,35.0815072 35.1695652,14.8148986 60.1507826,14.8148986 L119.559072,14.8148986 C144.54029,14.8148986 164.857971,35.0815652 164.857971,60 C164.857971,84.9188406 144.540232,105.185507 119.559072,105.185507 L60.1507826,105.185507 C35.1695652,105.185507 14.8521739,84.9188406 14.8521739,60 Z M163.372754,60 C163.372754,35.9111884 143.708522,16.2963478 119.559072,16.2963478 L60.1507826,16.2963478 C36.0012754,16.2963478 16.3373913,35.9111884 16.3373913,60 C16.3373913,84.0886957 36.0012754,103.703768 60.1507826,103.703768 L119.559072,103.703768 C143.708522,103.703768 163.372754,84.0886957 163.372754,60 Z" id="Shape"></path>
                        <path d="M7.42608696,60 C7.42608696,30.9926377 31.0707246,7.40742029 60.1511304,7.40742029 L119.55942,7.40742029 C148.64,7.40742029 172.284058,30.9926377 172.284058,60 C172.284058,89.0075362 148.64,112.592464 119.55942,112.592464 L60.1510725,112.592464 C31.0707246,112.592464 7.42608696,89.0075362 7.42608696,60 Z M170.798841,60 C170.798841,31.8222609 147.808058,8.88892754 119.55942,8.88892754 L60.1511304,8.88892754 C31.9024348,8.88892754 8.91130435,31.8222609 8.91130435,60 C8.91130435,88.177971 31.9024348,111.111304 60.1510725,111.111304 L119.55942,111.111304 C147.808058,111.111304 170.798841,88.177971 170.798841,60 Z" id="Shape"></path>
                        <path d="M0,59.9999948 C0,26.9037101 26.9715942,-5.22609855e-06 60.1508986,-5.22609855e-06 L119.559246,-5.22609855e-06 C152.738551,-5.22609855e-06 179.710145,26.9037101 179.710145,59.9999948 C179.710145,93.0962319 152.738551,119.999995 119.559246,119.999995 L60.1508986,119.999995 C26.9715942,119.999995 0,93.0962319 0,59.9999948 Z M178.224928,60 C178.224928,27.7333333 151.907246,1.48147826 119.559246,1.48147826 L60.1508986,1.48147826 C27.8028986,1.48147826 1.48521739,27.7333333 1.48521739,60 C1.48521739,92.2666667 27.8028986,118.518261 60.1508986,118.518261 L119.559246,118.518261 C151.907246,118.518261 178.224928,92.2666667 178.224928,60 Z" id="Shape"></path>
                    </g>
                </g>
                <g id="Frame-1" transform="translate(0.000000, 158.000000)" fill="#3F84FF">
                    <polygon id="Path" fill-opacity="0.5" points="5.071416 0 3.984666 0 3.984666 9.1 5.071416 9.1"></polygon>
                    <polygon id="Path" fill-opacity="0.5" points="9.05625 4.004 0 4.004 0 5.096 9.05625 5.096"></polygon>
                    <polygon id="Path" fill-opacity="0.5" points="32.24018 0 31.15343 0 31.15343 9.1 32.24018 9.1"></polygon>
                    <polygon id="Path" fill-opacity="0.5" points="36.225 4.004 27.16875 4.004 27.16875 5.096 36.225 5.096"></polygon>
                    <polygon id="Path" fill-opacity="0.5" points="59.40893 0 58.32218 0 58.32218 9.1 59.40893 9.1"></polygon>
                    <polygon id="Path" fill-opacity="0.5" points="63.39375 4.004 54.3375 4.004 54.3375 5.096 63.39375 5.096"></polygon>
                    <polygon id="Path" fill-opacity="0.5" points="86.5774 0 85.491 0 85.491 9.1 86.5774 9.1"></polygon>
                    <polygon id="Path" fill-opacity="0.5" points="90.5625 4.004 81.5066 4.004 81.5066 5.096 90.5625 5.096"></polygon>
                    <polygon id="Path" fill-opacity="0.5" points="113.7465 0 112.6594 0 112.6594 9.1 113.7465 9.1"></polygon>
                    <polygon id="Path" fill-opacity="0.5" points="117.7316 4.004 108.675 4.004 108.675 5.096 117.7316 5.096"></polygon>
                    <polygon id="Path" fill-opacity="0.5" points="140.9149 0 139.8285 0 139.8285 9.1 140.9149 9.1"></polygon>
                    <polygon id="Path" fill-opacity="0.5" points="144.9 4.004 135.8434 4.004 135.8434 5.096 144.9 5.096"></polygon>
                    <polygon id="Path" fill-opacity="0.5" points="5.071416 27.3 3.984666 27.3 3.984666 36.4 5.071416 36.4"></polygon>
                    <polygon id="Path" fill-opacity="0.5" points="9.05625 31.304 0 31.304 0 32.396 9.05625 32.396"></polygon>
                    <polygon id="Path" fill-opacity="0.5" points="32.24018 27.3 31.15343 27.3 31.15343 36.4 32.24018 36.4"></polygon>
                    <polygon id="Path" fill-opacity="0.5" points="36.225 31.304 27.16875 31.304 27.16875 32.396 36.225 32.396"></polygon>
                    <polygon id="Path" fill-opacity="0.5" points="59.40893 27.3 58.32218 27.3 58.32218 36.4 59.40893 36.4"></polygon>
                    <polygon id="Path" fill-opacity="0.5" points="63.39375 31.304 54.3375 31.304 54.3375 32.396 63.39375 32.396"></polygon>
                    <polygon id="Path" fill-opacity="0.5" points="86.5774 27.3 85.491 27.3 85.491 36.4 86.5774 36.4"></polygon>
                    <polygon id="Path" fill-opacity="0.5" points="90.5625 31.304 81.5066 31.304 81.5066 32.396 90.5625 32.396"></polygon>
                    <polygon id="Path" fill-opacity="0.5" points="113.7465 27.3 112.6594 27.3 112.6594 36.4 113.7465 36.4"></polygon>
                    <polygon id="Path" fill-opacity="0.5" points="117.7316 31.304 108.675 31.304 108.675 32.396 117.7316 32.396"></polygon>
                    <polygon id="Path" fill-opacity="0.5" points="140.9149 27.3 139.8285 27.3 139.8285 36.4 140.9149 36.4"></polygon>
                    <polygon id="Path" fill-opacity="0.5" points="144.9 31.304 135.8434 31.304 135.8434 32.396 144.9 32.396"></polygon>
                    <polygon id="Path" fill-opacity="0.5" points="5.071416 54.6 3.984666 54.6 3.984666 63.7 5.071416 63.7"></polygon>
                    <polygon id="Path" fill-opacity="0.5" points="9.05625 58.604 0 58.604 0 59.696 9.05625 59.696"></polygon>
                    <polygon id="Path" fill-opacity="0.5" points="32.24018 54.6 31.15343 54.6 31.15343 63.7 32.24018 63.7"></polygon>
                    <polygon id="Path" fill-opacity="0.5" points="36.225 58.604 27.16875 58.604 27.16875 59.696 36.225 59.696"></polygon>
                    <polygon id="Path" fill-opacity="0.5" points="59.40893 54.6 58.32218 54.6 58.32218 63.7 59.40893 63.7"></polygon>
                    <polygon id="Path" fill-opacity="0.5" points="63.39375 58.604 54.3375 58.604 54.3375 59.696 63.39375 59.696"></polygon>
                    <polygon id="Path" fill-opacity="0.5" points="86.5774 54.6 85.491 54.6 85.491 63.7 86.5774 63.7"></polygon>
                    <polygon id="Path" fill-opacity="0.5" points="90.5625 58.604 81.5066 58.604 81.5066 59.696 90.5625 59.696"></polygon>
                    <polygon id="Path" fill-opacity="0.5" points="113.7465 54.6 112.6594 54.6 112.6594 63.7 113.7465 63.7"></polygon>
                    <polygon id="Path" fill-opacity="0.6" points="117.7316 58.604 108.675 58.604 108.675 59.696 117.7316 59.696"></polygon>
                    <polygon id="Path" fill-opacity="0.5" points="140.9149 54.6 139.8285 54.6 139.8285 63.7 140.9149 63.7"></polygon>
                    <polygon id="Path" fill-opacity="0.5" points="144.9 58.604 135.8434 58.604 135.8434 59.696 144.9 59.696"></polygon>
                    <polygon id="Path" fill-opacity="0.5" points="5.071416 81.9 3.984666 81.9 3.984666 91 5.071416 91"></polygon>
                    <polygon id="Path" fill-opacity="0.5" points="9.05625 85.904 0 85.904 0 86.996 9.05625 86.996"></polygon>
                    <polygon id="Path" fill-opacity="0.5" points="32.24018 81.9 31.15343 81.9 31.15343 91 32.24018 91"></polygon>
                    <polygon id="Path" fill-opacity="0.5" points="36.225 85.904 27.16875 85.904 27.16875 86.996 36.225 86.996"></polygon>
                    <polygon id="Path" fill-opacity="0.5" points="59.40893 81.9 58.32218 81.9 58.32218 91 59.40893 91"></polygon>
                    <polygon id="Path" fill-opacity="0.5" points="63.39375 85.904 54.3375 85.904 54.3375 86.996 63.39375 86.996"></polygon>
                    <polygon id="Path" fill-opacity="0.5" points="86.5774 81.9 85.491 81.9 85.491 91 86.5774 91"></polygon>
                    <polygon id="Path" fill-opacity="0.5" points="90.5625 85.904 81.5066 85.904 81.5066 86.996 90.5625 86.996"></polygon>
                    <polygon id="Path" fill-opacity="0.5" points="113.7465 81.9 112.6594 81.9 112.6594 91 113.7465 91"></polygon>
                    <polygon id="Path" fill-opacity="0.5" points="117.7316 85.904 108.675 85.904 108.675 86.996 117.7316 86.996"></polygon>
                    <polygon id="Path" fill-opacity="0.5" points="140.9149 81.9 139.8285 81.9 139.8285 91 140.9149 91"></polygon>
                    <polygon id="Path" fill-opacity="0.5" points="144.9 85.904 135.8434 85.904 135.8434 86.996 144.9 86.996"></polygon>
                </g>
                <g id="Frame-1-Copy" transform="translate(384.000000, 766.500000)" fill="#3F84FF">
                    <polygon id="Path" fill-opacity="0.5" points="5.071416 0 3.984666 0 3.984666 9.1 5.071416 9.1"></polygon>
                    <polygon id="Path" fill-opacity="0.5" points="9.05625 4.004 0 4.004 0 5.096 9.05625 5.096"></polygon>
                    <polygon id="Path" fill-opacity="0.5" points="32.24018 0 31.15343 0 31.15343 9.1 32.24018 9.1"></polygon>
                    <polygon id="Path" fill-opacity="0.5" points="36.225 4.004 27.16875 4.004 27.16875 5.096 36.225 5.096"></polygon>
                    <polygon id="Path" fill-opacity="0.5" points="59.40893 0 58.32218 0 58.32218 9.1 59.40893 9.1"></polygon>
                    <polygon id="Path" fill-opacity="0.5" points="63.39375 4.004 54.3375 4.004 54.3375 5.096 63.39375 5.096"></polygon>
                    <polygon id="Path" fill-opacity="0.5" points="86.5774 0 85.491 0 85.491 9.1 86.5774 9.1"></polygon>
                    <polygon id="Path" fill-opacity="0.5" points="90.5625 4.004 81.5066 4.004 81.5066 5.096 90.5625 5.096"></polygon>
                    <polygon id="Path" fill-opacity="0.5" points="113.7465 0 112.6594 0 112.6594 9.1 113.7465 9.1"></polygon>
                    <polygon id="Path" fill-opacity="0.5" points="117.7316 4.004 108.675 4.004 108.675 5.096 117.7316 5.096"></polygon>
                    <polygon id="Path" fill-opacity="0.5" points="140.9149 0 139.8285 0 139.8285 9.1 140.9149 9.1"></polygon>
                    <polygon id="Path" fill-opacity="0.5" points="144.9 4.004 135.8434 4.004 135.8434 5.096 144.9 5.096"></polygon>
                    <polygon id="Path" fill-opacity="0.5" points="5.071416 27.3 3.984666 27.3 3.984666 36.4 5.071416 36.4"></polygon>
                    <polygon id="Path" fill-opacity="0.5" points="9.05625 31.304 0 31.304 0 32.396 9.05625 32.396"></polygon>
                    <polygon id="Path" fill-opacity="0.5" points="32.24018 27.3 31.15343 27.3 31.15343 36.4 32.24018 36.4"></polygon>
                    <polygon id="Path" fill-opacity="0.5" points="36.225 31.304 27.16875 31.304 27.16875 32.396 36.225 32.396"></polygon>
                    <polygon id="Path" fill-opacity="0.5" points="59.40893 27.3 58.32218 27.3 58.32218 36.4 59.40893 36.4"></polygon>
                    <polygon id="Path" fill-opacity="0.5" points="63.39375 31.304 54.3375 31.304 54.3375 32.396 63.39375 32.396"></polygon>
                    <polygon id="Path" fill-opacity="0.5" points="86.5774 27.3 85.491 27.3 85.491 36.4 86.5774 36.4"></polygon>
                    <polygon id="Path" fill-opacity="0.5" points="90.5625 31.304 81.5066 31.304 81.5066 32.396 90.5625 32.396"></polygon>
                    <polygon id="Path" fill-opacity="0.5" points="113.7465 27.3 112.6594 27.3 112.6594 36.4 113.7465 36.4"></polygon>
                    <polygon id="Path" fill-opacity="0.5" points="117.7316 31.304 108.675 31.304 108.675 32.396 117.7316 32.396"></polygon>
                    <polygon id="Path" fill-opacity="0.5" points="140.9149 27.3 139.8285 27.3 139.8285 36.4 140.9149 36.4"></polygon>
                    <polygon id="Path" fill-opacity="0.5" points="144.9 31.304 135.8434 31.304 135.8434 32.396 144.9 32.396"></polygon>
                    <polygon id="Path" fill-opacity="0.5" points="5.071416 54.6 3.984666 54.6 3.984666 63.7 5.071416 63.7"></polygon>
                    <polygon id="Path" fill-opacity="0.5" points="9.05625 58.604 0 58.604 0 59.696 9.05625 59.696"></polygon>
                    <polygon id="Path" fill-opacity="0.5" points="32.24018 54.6 31.15343 54.6 31.15343 63.7 32.24018 63.7"></polygon>
                    <polygon id="Path" fill-opacity="0.5" points="36.225 58.604 27.16875 58.604 27.16875 59.696 36.225 59.696"></polygon>
                    <polygon id="Path" fill-opacity="0.5" points="59.40893 54.6 58.32218 54.6 58.32218 63.7 59.40893 63.7"></polygon>
                    <polygon id="Path" fill-opacity="0.5" points="63.39375 58.604 54.3375 58.604 54.3375 59.696 63.39375 59.696"></polygon>
                    <polygon id="Path" fill-opacity="0.5" points="86.5774 54.6 85.491 54.6 85.491 63.7 86.5774 63.7"></polygon>
                    <polygon id="Path" fill-opacity="0.5" points="90.5625 58.604 81.5066 58.604 81.5066 59.696 90.5625 59.696"></polygon>
                    <polygon id="Path" fill-opacity="0.5" points="113.7465 54.6 112.6594 54.6 112.6594 63.7 113.7465 63.7"></polygon>
                    <polygon id="Path" fill-opacity="0.6" points="117.7316 58.604 108.675 58.604 108.675 59.696 117.7316 59.696"></polygon>
                    <polygon id="Path" fill-opacity="0.5" points="140.9149 54.6 139.8285 54.6 139.8285 63.7 140.9149 63.7"></polygon>
                    <polygon id="Path" fill-opacity="0.5" points="144.9 58.604 135.8434 58.604 135.8434 59.696 144.9 59.696"></polygon>
                    <polygon id="Path" fill-opacity="0.5" points="5.071416 81.9 3.984666 81.9 3.984666 91 5.071416 91"></polygon>
                    <polygon id="Path" fill-opacity="0.5" points="9.05625 85.904 0 85.904 0 86.996 9.05625 86.996"></polygon>
                    <polygon id="Path" fill-opacity="0.5" points="32.24018 81.9 31.15343 81.9 31.15343 91 32.24018 91"></polygon>
                    <polygon id="Path" fill-opacity="0.5" points="36.225 85.904 27.16875 85.904 27.16875 86.996 36.225 86.996"></polygon>
                    <polygon id="Path" fill-opacity="0.5" points="59.40893 81.9 58.32218 81.9 58.32218 91 59.40893 91"></polygon>
                    <polygon id="Path" fill-opacity="0.5" points="63.39375 85.904 54.3375 85.904 54.3375 86.996 63.39375 86.996"></polygon>
                    <polygon id="Path" fill-opacity="0.5" points="86.5774 81.9 85.491 81.9 85.491 91 86.5774 91"></polygon>
                    <polygon id="Path" fill-opacity="0.5" points="90.5625 85.904 81.5066 85.904 81.5066 86.996 90.5625 86.996"></polygon>
                    <polygon id="Path" fill-opacity="0.5" points="113.7465 81.9 112.6594 81.9 112.6594 91 113.7465 91"></polygon>
                    <polygon id="Path" fill-opacity="0.5" points="117.7316 85.904 108.675 85.904 108.675 86.996 117.7316 86.996"></polygon>
                    <polygon id="Path" fill-opacity="0.5" points="140.9149 81.9 139.8285 81.9 139.8285 91 140.9149 91"></polygon>
                    <polygon id="Path" fill-opacity="0.5" points="144.9 85.904 135.8434 85.904 135.8434 86.996 144.9 86.996"></polygon>
                </g>
            </g>
        </g>
    </g>
</svg>