<?xml version="1.0" encoding="UTF-8"?>
<svg viewBox="0 0 15 16" version="1.1" xmlns="http://www.w3.org/2000/svg" xmlns:xlink="http://www.w3.org/1999/xlink">
    <title>Group 2</title>
    <g id="Symbols" stroke="none" stroke-width="1" fill="none" fill-rule="evenodd">
        <g id="Game-top-bar" transform="translate(-379.000000, -7.000000)">
            <g id="Group-2" transform="translate(379.000000, 7.500000)">
                <circle id="Oval" fill="#0D7EE8" cx="7.5" cy="7.5" r="7.5"></circle>
                <path d="M6.64644661,3.64644661 C6.96142904,3.33146418 7.5,3.55454757 7.5,4 L7.5,4 L7.5,11 C7.5,11.4454524 6.96142904,11.6685358 6.64644661,11.3535534 L6.64644661,11.3535534 L4.793,9.5 L4,9.5 C3.75454011,9.5 3.55039163,9.32312484 3.50805567,9.08987563 L3.50805567,9.08987563 L3.5,9 L3.5,6 C3.5,5.72385763 3.72385763,5.5 4,5.5 L4,5.5 L4.792,5.5 Z M10.4160251,4.2226499 C11.1350398,5.30117188 11.5,6.39605248 11.5,7.5 C11.5,8.60394752 11.1350398,9.69882812 10.4160251,10.7773501 C10.2628489,11.0071144 9.95241425,11.0692014 9.7226499,10.9160251 C9.49288556,10.7628489 9.43079862,10.4524142 9.58397485,10.2226499 C10.1982935,9.30117188 10.5,8.39605248 10.5,7.5 C10.5,6.60394752 10.1982935,5.69882812 9.58397485,4.7773501 C9.43079862,4.54758575 9.49288556,4.23715108 9.7226499,4.08397485 C9.95241425,3.93079862 10.2628489,3.99288556 10.4160251,4.2226499 Z M8.98112706,5.26193576 C9.38366509,6.0053951 9.57250247,6.76074461 9.54101045,7.52070183 C9.51062641,8.25392161 9.3280913,8.98406205 8.99593245,9.70841279 C8.88082924,9.95942247 8.5840361,10.0695964 8.33302641,9.95449325 C8.08201673,9.83939004 7.97184275,9.5425969 8.08694595,9.29158721 C8.3662015,8.68260462 8.51699972,8.07941172 8.54186795,7.47929817 C8.5656282,6.90592206 8.42113224,6.32793824 8.10175134,5.73806424 C7.97027209,5.49523134 8.06054206,5.19179139 8.30337496,5.06031214 C8.54620786,4.92883289 8.84964781,5.01910286 8.98112706,5.26193576 Z M6.5,5.206 L5.35355339,6.35355339 C5.2597852,6.44732158 5.13260824,6.5 5,6.5 L5,6.5 L4.5,6.5 L4.5,8.5 L5,8.5 C5.1060866,8.5 5.20869717,8.53371419 5.29350724,8.59520918 L5.29350724,8.59520918 L5.35355339,8.64644661 L6.5,9.793 L6.5,5.206 Z" id="Combined-Shape" fill="#FFFFFF" fill-rule="nonzero"></path>
            </g>
        </g>
    </g>
</svg>
