<?xml version="1.0" encoding="UTF-8"?>
<svg viewBox="0 0 15 16" version="1.1" xmlns="http://www.w3.org/2000/svg" xmlns:xlink="http://www.w3.org/1999/xlink">
    <title>Sound</title>
    <g id="Symbols" stroke="none" stroke-width="1" fill="none" fill-rule="evenodd">
        <g id="Game-top-bar" transform="translate(-379.000000, -7.000000)" fill="#FFFFFF" fill-rule="nonzero">
            <path d="M385.886059,7.71064778 C386.51306,7.22298047 387.413613,7.62732055 387.494186,8.38883954 L387.5,8.5 L387.5,21.5 C387.5,22.2943233 386.627947,22.7569356 385.977374,22.3530086 L385.886059,22.2893522 L381.657,19 L380,19 C379.526613,19 379.130053,18.6710663 379.026411,18.2292908 L379.006728,18.1166211 L379,18 L379,12 C379,11.4871642 379.38604,11.0644928 379.883379,11.0067277 L380,11 L381.656,11 L385.886059,7.71064778 Z M392.894646,10.5527864 C393.628845,12.0211845 394.000219,13.5066796 394.000219,15 C394.000219,16.4933204 393.628845,17.9788155 392.894646,19.4472136 C392.647657,19.9411921 392.046984,20.1414164 391.553005,19.8944272 C391.059027,19.6474379 390.858803,19.0467649 391.105792,18.5527864 C391.704926,17.3545178 392.000219,16.1733462 392.000219,15 C392.000219,13.8266538 391.704926,12.6454822 391.105792,11.4472136 C390.858803,10.9532351 391.059027,10.3525621 391.553005,10.1055728 C392.046984,9.85858356 392.647657,10.0588079 392.894646,10.5527864 Z M385.5,10.544 L382.613941,12.7893522 C382.473514,12.8985727 382.307169,12.967855 382.132391,12.9911991 L382,13 L381,13 L381,17 L382,17 C382.133426,17 382.264567,17.026684 382.386048,17.0775207 L382.504034,17.1363146 L382.613941,17.2106478 L385.5,19.455 L385.5,10.544 Z M390.394427,12.5527864 C390.79368,13.3512916 391.00189,14.1661896 391.01095,14.9889904 C391.020165,15.8260025 390.808545,16.6542445 390.386483,17.4627621 C390.130906,17.9523529 389.526829,18.142059 389.037238,17.8864825 C388.547647,17.6309061 388.357941,17.0268287 388.613517,16.5372379 C388.887482,16.0124222 389.016536,15.5073309 389.011071,15.0110096 C389.00545,14.5004771 388.872987,13.9820418 388.605573,13.4472136 C388.358584,12.9532351 388.558808,12.3525621 389.052786,12.1055728 C389.546765,11.8585836 390.147438,12.0588079 390.394427,12.5527864 Z" id="Sound"></path>
        </g>
    </g>
</svg>
