<svg width="32" height="29" viewBox="0 0 32 29" fill="none" xmlns="http://www.w3.org/2000/svg">
<path opacity="0.75" fill-rule="evenodd" clip-rule="evenodd" d="M28.093 0.272705H4.3065C2.14905 0.272705 0.399536 2.04376 0.399536 4.22994V19.2976C0.399536 21.4852 2.14905 23.2548 4.3065 23.2548H6.14517V27.9445C6.15082 28.1612 6.23213 28.369 6.37499 28.532C6.52294 28.7044 6.72978 28.8394 6.97253 28.9198C7.21384 28.9988 7.47957 29.0204 7.73668 28.9801C7.99523 28.9399 8.2308 28.8408 8.41753 28.6929L15.2178 23.2548H28.093C30.2504 23.2548 31.9999 21.4838 31.9999 19.299V4.22994C31.9999 2.04376 30.2504 0.272705 28.093 0.272705ZM8.79272 9.0585C8.4914 8.94009 8.16944 8.88314 7.84579 8.89102C7.21239 8.90643 6.61012 9.16887 6.16759 9.6223C5.72506 10.0757 5.47735 10.6842 5.47735 11.3178C5.47735 11.9514 5.72506 12.5598 6.16759 13.0133C6.61012 13.4667 7.21239 13.7291 7.84579 13.7445C8.16944 13.7524 8.4914 13.6955 8.79272 13.5771C9.09404 13.4586 9.36863 13.2811 9.60032 13.055C9.83201 12.8289 10.0161 12.5587 10.1418 12.2604C10.2676 11.962 10.3323 11.6415 10.3323 11.3178C10.3323 10.994 10.2676 10.6736 10.1418 10.3752C10.0161 10.0769 9.83201 9.80667 9.60032 9.58054C9.36863 9.35442 9.09404 9.17692 8.79272 9.0585ZM13.8206 12.2654C13.7022 11.9641 13.6452 11.6422 13.6531 11.3185C13.6685 10.6851 13.9309 10.0828 14.3844 9.6403C14.8378 9.19777 15.4463 8.95006 16.0798 8.95006C16.7134 8.95006 17.3219 9.19777 17.7753 9.6403C18.2288 10.0828 18.4912 10.6851 18.5066 11.3185C18.5145 11.6422 18.4575 11.9641 18.3391 12.2654C18.2207 12.5668 18.0432 12.8413 17.8171 13.073C17.591 13.3047 17.3208 13.4888 17.0224 13.6146C16.7241 13.7403 16.4036 13.805 16.0798 13.805C15.7561 13.805 15.4356 13.7403 15.1373 13.6146C14.8389 13.4888 14.5687 13.3047 14.3426 13.073C14.1165 12.8413 13.939 12.5668 13.8206 12.2654ZM22.0452 12.2649C21.9268 11.9637 21.8699 11.642 21.8778 11.3185C21.8932 10.6855 22.1555 10.0836 22.6087 9.64131C23.0618 9.19904 23.6699 8.95148 24.3031 8.95148C24.9363 8.95148 25.5445 9.19904 25.9976 9.64131C26.4508 10.0836 26.7131 10.6855 26.7285 11.3185C26.7363 11.642 26.6794 11.9637 26.5611 12.2649C26.4427 12.566 26.2653 12.8404 26.0394 13.072C25.8134 13.3036 25.5433 13.4876 25.2452 13.6132C24.947 13.7389 24.6267 13.8036 24.3031 13.8036C23.9796 13.8036 23.6593 13.7389 23.3611 13.6132C23.0629 13.4876 22.7929 13.3036 22.5669 13.072C22.3409 12.8404 22.1635 12.566 22.0452 12.2649Z" fill="url(#paint0_linear)"/>
<defs>
<linearGradient id="paint0_linear" x1="0.399536" y1="3.02319" x2="34.6094" y2="20.6941" gradientUnits="userSpaceOnUse">
<stop offset="0.00520833" stop-color="#D7AF58"/>
<stop offset="0.588805" stop-color="#FFDE95"/>
<stop offset="1" stop-color="#D7AF58"/>
</linearGradient>
</defs>
</svg>
