<svg width="13" height="12" viewBox="0 0 13 12" fill="none" xmlns="http://www.w3.org/2000/svg">
<path d="M6.01145 1.02039C6.20791 0.610057 6.79209 0.610058 6.98855 1.02039L8.24936 3.65369C8.32832 3.81862 8.48516 3.93257 8.66642 3.9567L11.5604 4.34206C12.0114 4.40211 12.1919 4.9577 11.8624 5.27135L9.74758 7.28418C9.61513 7.41025 9.55522 7.59462 9.58828 7.77446L10.1161 10.6459C10.1983 11.0934 9.72572 11.4367 9.32558 11.2203L6.75776 9.83096C6.59693 9.74395 6.40307 9.74395 6.24224 9.83096L3.67442 11.2203C3.27428 11.4367 2.80167 11.0934 2.88392 10.6459L3.41172 7.77446C3.44478 7.59462 3.38487 7.41024 3.25242 7.28418L1.13761 5.27135C0.808071 4.9577 0.988593 4.40211 1.43955 4.34206L4.33358 3.9567C4.51484 3.93257 4.67168 3.81862 4.75064 3.65369L6.01145 1.02039Z" fill="#F6CC5E"/>
</svg>
