<svg width="108" height="116" viewBox="0 0 108 116" fill="none" xmlns="http://www.w3.org/2000/svg">
<g clip-path="url(#clip0)">
<g opacity="0.9" clip-path="url(#clip1)">
<path fill-rule="evenodd" clip-rule="evenodd" d="M83.8116 30.0103L82.2966 23.5135L51.052 41.5525L52.7213 47.9603L65.1921 40.7603L71.729 67.6621L77.0886 70.4909L79.8835 68.8772L72.0732 36.7874L83.8116 30.0103V30.0103Z" fill="white"/>
<path d="M146.121 53.8884L40.7651 114.716C40.0134 115.15 39.0687 114.894 38.6319 114.137L27.1184 94.195C26.9168 93.8458 26.8501 93.4187 26.9631 92.9914C27.0681 92.5945 27.295 92.2307 27.6388 91.9805C29.869 90.2791 31.4745 87.8519 32.1932 85.135C33.046 81.8492 32.5704 78.3992 30.8569 75.4312C29.1433 72.4632 26.3933 70.3263 23.1213 69.422C20.3978 68.6665 17.4738 68.8545 14.9157 69.9435C14.5271 70.1161 14.0986 70.1307 13.6912 70.0038C13.2839 69.8769 12.9393 69.6361 12.7265 69.2675L0.95538 48.8794C0.518584 48.1228 0.768907 47.1765 1.52063 46.7425L106.877 -14.085C107.629 -14.519 108.573 -14.2627 109.01 -13.5061L120.77 6.86264C120.972 7.21182 121.038 7.6389 120.925 8.06628C120.832 8.48253 120.574 8.83803 120.261 9.09654C119.345 9.78048 118.557 10.5974 117.864 11.489C116.859 12.8194 116.134 14.3241 115.706 15.942C115.279 17.56 115.194 19.2384 115.419 20.919C115.644 22.5996 116.203 24.1909 117.043 25.6458C118.756 28.6139 121.506 30.7507 124.778 31.6551C127.502 32.4105 130.426 32.2225 132.984 31.1336C133.373 30.9609 133.801 30.9463 134.197 31.0539C134.605 31.1808 134.96 31.4409 135.162 31.7901L146.676 51.7321C147.112 52.4886 146.854 53.4655 146.121 53.8884ZM40.3849 111.832L143.814 52.1169L133.308 33.9209C130.368 34.9716 127.131 35.1074 124.073 34.261C120.1 33.1664 116.783 30.5812 114.711 26.9924C113.691 25.2271 113.042 23.3003 112.745 21.273C112.479 19.254 112.591 17.2233 113.097 15.2502C113.602 13.277 114.488 11.4725 115.715 9.85872C116.389 8.97824 117.157 8.1725 118.001 7.45262L107.238 -11.1896L3.82836 48.5139L14.5915 67.1562C17.5314 66.1054 20.7682 65.9696 23.8269 66.8161C27.7998 67.9106 31.1171 70.4959 33.1891 74.0847C35.2611 77.6735 35.8414 81.839 34.8028 85.8269C34.0146 88.8685 32.2897 91.6231 29.8905 93.655L40.3849 111.832V111.832Z" fill="white"/>
<path fill-rule="evenodd" clip-rule="evenodd" d="M27.7375 42.08C28.7977 41.468 30.169 41.8401 30.785 42.9071L32.5658 45.9915C33.1818 47.0584 32.8184 48.4321 31.7583 49.0442C30.6982 49.6563 29.3268 49.2841 28.7108 48.2172L26.93 45.1328C26.3141 44.0658 26.6774 42.6921 27.7375 42.08ZM33.0911 51.3527C34.1512 50.7406 35.5226 51.1128 36.1386 52.1797L39.7113 58.3679C40.3273 59.4349 39.964 60.8086 38.9039 61.4206C37.8437 62.0327 36.4724 61.6605 35.8564 60.5936L32.2836 54.4054C31.6676 53.3384 32.031 51.9647 33.0911 51.3527ZM40.2254 63.7097C41.2856 63.0976 42.6569 63.4698 43.2729 64.5368L46.8457 70.725C47.4617 71.7919 47.0983 73.1656 46.0382 73.7777C44.9781 74.3897 43.6067 74.0176 42.9907 72.9506L39.4179 66.7624C38.802 65.6955 39.1653 64.3218 40.2254 63.7097ZM47.371 76.0861C48.4311 75.4741 49.8025 75.8463 50.4185 76.9132L53.9912 83.1014C54.6072 84.1683 54.2439 85.5421 53.1837 86.1541C52.1236 86.7662 50.7523 86.394 50.1363 85.3271L46.5635 79.1389C45.9475 78.0719 46.3109 76.6982 47.371 76.0861ZM54.5053 88.4432C55.5654 87.8311 56.9368 88.2033 57.5528 89.2702L59.3336 92.3547C59.9496 93.4216 59.5862 94.7953 58.5261 95.4074C57.466 96.0194 56.0946 95.6473 55.4786 94.5803L53.6978 91.4959C53.0818 90.429 53.4452 89.0552 54.5053 88.4432Z" fill="white"/>
</g>
</g>
<defs>
<clipPath id="clip0">
<rect width="108" height="116" fill="white"/>
</clipPath>
<clipPath id="clip1">
<rect width="125.083" height="78.6233" fill="white" transform="translate(0 47.5415) rotate(-30)"/>
</clipPath>
</defs>
</svg>
