<svg width="8" height="8" viewBox="0 0 8 8" fill="none" xmlns="http://www.w3.org/2000/svg">
<path d="M1.9738 5.74235C1.84509 5.61365 1.671 5.54086 1.48983 5.54001C1.33692 5.53929 1.18955 5.58986 1.07063 5.68232C1.03403 5.71077 0.981157 5.71125 0.948374 5.67847L0.0778088 4.8079C0.0450273 4.77513 0.0450273 4.72197 0.0778088 4.6892L4.70762 0.0593765C4.74041 0.0265945 4.79356 0.0265945 4.82634 0.0593765L5.6969 0.929939C5.72968 0.962722 5.7292 1.01559 5.70074 1.0522C5.6083 1.17111 5.55773 1.31849 5.55845 1.4714C5.55929 1.65257 5.63208 1.82666 5.7608 1.95537C5.88949 2.08408 6.0636 2.15687 6.24474 2.15772C6.39766 2.15844 6.54503 2.10787 6.66395 2.01542C6.70057 1.98697 6.75343 1.98648 6.78623 2.01926L7.67543 2.90849C7.70823 2.94128 7.70823 2.99442 7.67543 3.02721L3.04564 7.65704C3.01286 7.68978 2.95971 7.68978 2.92693 7.65704L2.0377 6.76778C2.00492 6.73504 2.0054 6.68212 2.03385 6.64555C2.07128 6.59738 2.1021 6.54424 2.12538 6.48749C2.15932 6.40481 2.17657 6.31606 2.17615 6.22635C2.17573 6.13664 2.15765 6.04772 2.12293 5.96469C2.08821 5.88166 2.03753 5.80612 1.9738 5.74235Z" fill="white"/>
</svg>
