<svg width="126" height="80" viewBox="0 0 126 80" fill="none" xmlns="http://www.w3.org/2000/svg">
<g opacity="0.9" clip-path="url(#clip0)">
<path fill-rule="evenodd" clip-rule="evenodd" d="M85.8763 27.4145L87.8114 21L51.7571 21L50 27.4145H64.3906L56.6059 54.108L59.831 59.2621H63.0561L72.331 27.4145H85.8763V27.4145Z" fill="white"/>
<path d="M123.567 78.9372L1.992 78.9372C1.12456 78.9372 0.435059 78.2395 0.435059 77.3617L0.435059 54.2244C0.435059 53.8193 0.590753 53.4141 0.90214 53.099C1.19129 52.8065 1.5694 52.6039 1.992 52.5589C4.77225 52.1988 7.37456 50.8933 9.3541 48.8902C11.734 46.4594 13.0463 43.2184 13.0463 39.7748C13.0463 36.3312 11.734 33.0902 9.3541 30.6594C7.37456 28.6338 4.75001 27.3284 1.992 26.9908C1.5694 26.9458 1.19129 26.7432 0.90214 26.4281C0.612995 26.113 0.435059 25.7304 0.435059 25.3028L0.435059 1.64776C0.435059 0.769986 1.12456 0.0722656 1.992 0.0722656L123.567 0.0722656C124.434 0.0722656 125.124 0.769986 125.124 1.64776V25.2802C125.124 25.6854 124.968 26.0905 124.657 26.4056C124.367 26.7207 123.967 26.9008 123.567 26.9683C122.432 27.1033 121.343 27.4184 120.297 27.8461C118.762 28.4988 117.383 29.4441 116.205 30.6369C115.026 31.8298 114.114 33.2478 113.469 34.8233C112.824 36.3988 112.512 38.0643 112.512 39.7523C112.512 43.1959 113.825 46.4369 116.205 48.8677C118.184 50.8934 120.809 52.1988 123.567 52.5364C123.989 52.5814 124.367 52.7839 124.657 53.0765C124.946 53.3916 125.124 53.7968 125.124 54.2019V77.3392C125.124 78.217 124.412 78.9372 123.567 78.9372ZM3.1041 76.2364L122.455 76.2364V55.1247C119.385 54.562 116.516 53.054 114.292 50.7808C111.4 47.8324 109.821 43.9161 109.821 39.7523C109.821 37.7042 110.222 35.701 110.978 33.7879C111.756 31.8973 112.868 30.1868 114.292 28.7238C115.715 27.2609 117.383 26.1355 119.252 25.3478C120.275 24.9201 121.343 24.605 122.432 24.4025V2.77312L3.1041 2.77312L3.1041 24.4025C6.17349 24.9651 9.04271 26.4731 11.2669 28.7463C14.1584 31.6948 15.7376 35.611 15.7376 39.7748C15.7376 43.9386 14.1584 47.8549 11.2669 50.8033C9.06495 53.054 6.19574 54.5845 3.1041 55.1472L3.1041 76.2364V76.2364Z" fill="white"/>
<path fill-rule="evenodd" clip-rule="evenodd" d="M27.5 5C28.875 5 30 6.1295 30 7.51V11.5009C30 12.8814 28.875 14.0109 27.5 14.0109C26.125 14.0109 25 12.8814 25 11.5009V7.51C25 6.1295 26.125 5 27.5 5ZM27.5 16.9978C28.875 16.9978 30 18.1273 30 19.5078V27.5147C30 28.8952 28.875 30.0247 27.5 30.0247C26.125 30.0247 25 28.8952 25 27.5147V19.5078C25 18.1273 26.125 16.9978 27.5 16.9978ZM27.5 32.9865C28.875 32.9865 30 34.116 30 35.4965V43.5035C30 44.884 28.875 46.0135 27.5 46.0135C26.125 46.0135 25 44.884 25 43.5035L25 35.4965C25 34.116 26.125 32.9865 27.5 32.9865ZM27.5 49.0004C28.875 49.0004 30 50.1299 30 51.5104V59.5173C30 60.8978 28.875 62.0273 27.5 62.0273C26.125 62.0273 25 60.8978 25 59.5173V51.5104C25 50.1299 26.125 49.0004 27.5 49.0004ZM27.5 64.9891C28.875 64.9891 30 66.1186 30 67.4991V71.49C30 72.8705 28.875 74 27.5 74C26.125 74 25 72.8705 25 71.49V67.4991C25 66.1186 26.125 64.9891 27.5 64.9891Z" fill="white"/>
</g>
<defs>
<clipPath id="clip0">
<rect width="125" height="79" fill="white" transform="translate(0.276855 0.00390625)"/>
</clipPath>
</defs>
</svg>
