<svg width="14" height="14" viewBox="0 0 14 14" fill="none" xmlns="http://www.w3.org/2000/svg">
<path d="M3.51625 10.4496C3.28061 10.214 2.96188 10.0807 2.63018 10.0791C2.35024 10.0778 2.08041 10.1704 1.86269 10.3397C1.79568 10.3918 1.69889 10.3926 1.63887 10.3326L0.045013 8.73876C-0.0150043 8.67875 -0.0150043 8.58144 0.045013 8.52143L8.52142 0.0450137C8.58144 -0.0150046 8.67874 -0.0150046 8.73876 0.0450137L10.3326 1.63887C10.3926 1.69889 10.3917 1.79568 10.3396 1.8627C10.1704 2.08041 10.0778 2.35024 10.0791 2.63018C10.0807 2.96188 10.2139 3.28061 10.4496 3.51626C10.6852 3.75191 11.004 3.88517 11.3356 3.88673C11.6156 3.88804 11.8854 3.79546 12.1031 3.6262C12.1702 3.57411 12.2669 3.57322 12.327 3.63324L13.955 5.26126C14.015 5.32128 14.015 5.41859 13.955 5.47861L5.4786 13.955C5.41859 14.015 5.32127 14.015 5.26126 13.955L3.63324 12.327C3.57322 12.267 3.5741 12.1701 3.62619 12.1032C3.69472 12.015 3.75114 11.9177 3.79377 11.8138C3.85591 11.6624 3.88749 11.4999 3.88672 11.3357C3.88596 11.1714 3.85284 11.0087 3.78928 10.8566C3.72571 10.7046 3.63294 10.5663 3.51625 10.4496Z" fill="url(#paint0_linear_3112_24078)"/>
<defs>
<linearGradient id="paint0_linear_3112_24078" x1="13.9331" y1="14" x2="13.9331" y2="0" gradientUnits="userSpaceOnUse">
<stop stop-color="#C6A156"/>
<stop offset="1" stop-color="#FFD978"/>
<stop offset="1" stop-color="#FFD978"/>
<stop offset="1" stop-color="#FFD978"/>
</linearGradient>
</defs>
</svg>
