<svg width="36" height="70" viewBox="0 0 36 70" fill="none" xmlns="http://www.w3.org/2000/svg">
<path d="M17.8899 64.3302C16.372 64.3302 14.9163 64.9276 13.843 65.9909C13.0094 66.8167 12.4595 67.871 12.2554 69.0052C12.1576 69.5488 11.7189 70 11.1667 70L1.5 70C0.947713 70 0.499997 69.5523 0.499997 69L0.5 0.999996C0.5 0.447712 0.947716 -1.51033e-06 1.5 -1.48619e-06L11.1667 -1.06364e-06C11.719 -1.0395e-06 12.1576 0.451205 12.2554 0.994764C12.4595 2.12899 13.0094 3.18332 13.843 4.00914C14.9163 5.07243 16.372 5.66978 17.8899 5.66978C19.4078 5.66978 20.8636 5.07243 21.9369 4.00914C22.7705 3.18332 23.3204 2.12899 23.5245 0.994764C23.6222 0.451205 24.0609 -5.00018e-07 24.6132 -4.75877e-07L34.5 -4.37114e-08C35.0523 -1.95703e-08 35.5 0.447715 35.5 1L35.5 69C35.5 69.5523 35.0523 70 34.5 70L24.6132 70C24.0609 70 23.6222 69.5488 23.5244 69.0053C23.4521 68.6033 23.336 68.2093 23.1775 67.8303C22.8899 67.1424 22.4684 66.5173 21.9369 65.9909C21.4054 65.4644 20.7745 65.0467 20.0801 64.7618C19.3858 64.4769 18.6415 64.3302 17.8899 64.3302Z" fill="#ED49C3"/>
<path opacity="0.1" d="M14.5998 47.5962C21.6221 49.4602 28.8401 45.3318 30.7218 38.3751C32.6034 31.4185 28.436 24.2679 21.4137 22.4039C14.3915 20.5398 7.17341 24.6682 5.29179 31.6249C3.41017 38.5816 7.57751 45.7321 14.5998 47.5962Z" fill="white"/>
<path fill-rule="evenodd" clip-rule="evenodd" d="M25.4598 31.5448L26.217 29.1613L12.5869 29.1613L11.9001 31.5448L17.3196 31.5448L13.8086 43.4644L15.6026 43.4644L17.3966 41.541L20.3375 31.5448L25.4598 31.5448Z" fill="white"/>
<path d="M18.9325 12.0259L18.588 10.8007L19.5817 9.99612L18.2985 9.94224L17.8328 8.75677L17.3845 9.94972L16.104 10.022L17.1108 10.8118L16.7829 12.0415L17.852 11.3379L18.9325 12.0259Z" fill="white"/>
<path d="M18.9302 61.0926L18.5875 59.8669L19.5823 59.0637L18.2992 59.008L17.8352 57.8219L17.3853 59.0142L16.1046 59.0847L17.1103 59.8759L16.7807 61.1052L17.8507 60.4031L18.9302 61.0926Z" fill="white"/>
</svg>
