<svg width="18" height="19" viewBox="0 0 18 19" fill="none" xmlns="http://www.w3.org/2000/svg">
<path d="M9.99999 2.57C11.749 2.82627 13.3363 3.73456 14.4434 5.11255C15.5505 6.49055 16.0954 8.23628 15.9688 9.99938C15.8423 11.7625 15.0535 13.4125 13.761 14.6182C12.4684 15.8239 10.7676 16.4962 8.99999 16.5C7.59048 16.5 6.21379 16.0746 5.05008 15.2793C3.88638 14.484 2.98987 13.3559 2.47789 12.0426C1.96591 10.7294 1.8623 9.29219 2.18063 7.91909C2.49896 6.546 3.22439 5.30099 4.26199 4.347L2.84699 2.932C1.28705 4.39382 0.298405 6.36319 0.0580959 8.48748C-0.182213 10.6118 0.341506 12.7522 1.53547 14.5256C2.72944 16.2989 4.51568 17.5894 6.57433 18.1658C8.63299 18.7422 10.8296 18.567 12.7709 17.6716C14.7121 16.7761 16.2712 15.2188 17.169 13.2786C18.0668 11.3385 18.2446 9.14204 17.6706 7.0827C17.0966 5.02336 15.8083 3.2356 14.0363 2.03953C12.2644 0.843461 10.1246 0.317205 7.99999 0.554995V6.585H9.99999V2.572V2.57Z" fill="white"/>
<path d="M4.70697 6.207C4.5195 6.39453 4.41418 6.64884 4.41418 6.914C4.41418 7.17917 4.5195 7.43347 4.70697 7.621L7.53597 10.45C7.72457 10.6322 7.97717 10.733 8.23937 10.7307C8.50157 10.7284 8.75238 10.6232 8.93779 10.4378C9.1232 10.2524 9.22837 10.0016 9.23064 9.7394C9.23292 9.47721 9.13213 9.2246 8.94997 9.036L6.11997 6.207C5.93244 6.01953 5.67814 5.91422 5.41297 5.91422C5.14781 5.91422 4.8935 6.01953 4.70597 6.207H4.70697Z" fill="white"/>
</svg>
