<svg width="31" height="29" viewBox="0 0 31 29" fill="none" xmlns="http://www.w3.org/2000/svg">
<path d="M13.1627 11.3377C12.1826 11.853 11.1679 11.1059 11.3535 10.0233L11.7975 7.43467L9.91675 5.60138C9.12384 4.82849 9.52081 3.63257 10.6078 3.47462L13.2069 3.09695L14.3693 0.741719C14.8593 -0.251216 16.1194 -0.243255 16.6055 0.741719L17.7679 3.09695L20.367 3.47462C21.4628 3.63385 21.8446 4.83468 21.058 5.60138L19.1773 7.43467L19.6213 10.0233C19.8085 11.1147 18.7844 11.8488 17.8122 11.3377L15.4874 10.1155L13.1627 11.3377ZM14.5 16V13.5C14.5 12.9477 14.9477 12.5 15.5 12.5C16.0523 12.5 16.5 12.9477 16.5 13.5V16H25C25.5523 16 26 16.4477 26 17V21C26 21.5523 25.5523 22 25 22C24.4477 22 24 21.5523 24 21V18H7V21C7 21.5523 6.55228 22 6 22C5.44772 22 5 21.5523 5 21V17C5 16.4477 5.44772 16 6 16H14.5ZM2 25.5V28C2 28.5523 1.55228 29 1 29C0.447715 29 0 28.5523 0 28V24.5C0 23.9477 0.447715 23.5 1 23.5H11C11.5523 23.5 12 23.9477 12 24.5V28C12 28.5523 11.5523 29 11 29C10.4477 29 10 28.5523 10 28V25.5H2ZM21 25.5V28C21 28.5523 20.5523 29 20 29C19.4477 29 19 28.5523 19 28V24.5C19 23.9477 19.4477 23.5 20 23.5H30C30.5523 23.5 31 23.9477 31 24.5V28C31 28.5523 30.5523 29 30 29C29.4477 29 29 28.5523 29 28V25.5H21Z" fill="url(#paint0_linear)"/>
<defs>
<linearGradient id="paint0_linear" x1="-6.10585e-07" y1="2.7766" x2="33.958" y2="19.8222" gradientUnits="userSpaceOnUse">
<stop offset="0.00520833" stop-color="#D7AF58"/>
<stop offset="0.588805" stop-color="#FFDE95"/>
<stop offset="1" stop-color="#D7AF58"/>
</linearGradient>
</defs>
</svg>
