<svg viewBox="0 0 327 37" fill="none" xmlns="http://www.w3.org/2000/svg">
<g clip-path="url(#clip0)">
<path fill-rule="evenodd" clip-rule="evenodd" d="M324.4 6.60001L326.2 0.600006H292.5L290.9 6.60001H304.3L297 31.4L300.1 36.1H303.1L311.8 6.80001L324.4 6.60001Z" fill="white"/>
<path fill-rule="evenodd" clip-rule="evenodd" d="M33.5 6.60001L35.4 0.600006H1.7L0 6.60001H13.4L4.8 36H9.2L13.6 31.2L20.8 6.50001L33.5 6.60001Z" fill="white"/>
<path fill-rule="evenodd" clip-rule="evenodd" d="M62.7 9.1C61.7 5.5 59.1 2.6 55.7 1.1C53.9 0.4 51.9 0 50 0H49.8C48.4 0 46.9 0.2 45.5 0.5C44.1 0.9 42.7 1.4 41.4 2C40.1 2.6 38.9 3.4 37.8 4.3C36.7 5.2 35.7 6.2 34.8 7.3C34 8.5 33.2 9.7 32.6 11C32.1 12.3 31.7 13.6 31.5 15C31.1 16.9 31.2 18.9 31.7 20.8C32.2 22.6 33 24.2 34.2 25.6C35.4 27 36.9 28.1 38.6 28.9C40.5 29.7 42.5 30.1 44.6 30.1C46 30.1 47.5 29.9 48.9 29.6C51.6 28.8 54.2 27.5 56.4 25.7C57.5 24.8 58.5 23.8 59.4 22.7C60.3 21.6 61 20.4 61.6 19.1C62.2 17.8 62.6 16.5 62.9 15.1C63.3 13 63.2 11 62.7 9.1ZM55.5 14.9C55.1 17.4 53.8 19.7 51.9 21.4C51 22.2 50 22.8 48.9 23.3C47.9 23.7 46.8 24 45.6 24C44.5 24 43.4 23.8 42.3 23.3C41.4 22.9 40.6 22.2 39.9 21.4C39.3 20.6 38.8 19.6 38.6 18.6C38.4 17.5 38.4 16.3 38.6 15.1C38.8 13.8 39.2 12.6 39.9 11.5C40.5 10.5 41.3 9.5 42.2 8.7C43.1 7.9 44.1 7.3 45.2 6.8C46.2 6.4 47.3 6.1 48.5 6.1C49.6 6.1 50.7 6.3 51.8 6.8C52.7 7.3 53.5 7.9 54.1 8.7C54.7 9.5 55.2 10.5 55.4 11.5C55.6 12.7 55.7 13.8 55.5 14.9Z" fill="white"/>
<path fill-rule="evenodd" clip-rule="evenodd" d="M91.8 0.6L87.4 15.2C86.7 17.8 85.1999 20.2 82.9999 21.9C81.2999 23.2 79.1999 23.8 77.0999 23.6C75.5999 23.5 74.1999 22.8 73.1999 21.6C71.4999 18.7 71.2 15.3 72.3 12.1L75.8 0.5H68.8999C68.8999 0.5 66.8 7 65.8 10.7C64.5 14.5 64.5 18.6 65.8 22.4C67.3 25.7 70.0999 28.2 73.4999 29.3C77.0999 30.3 80.9999 30 84.4 28.3C88.9999 26.1 92.3999 22 93.6999 17L98.6999 0.5H91.8V0.6Z" fill="white"/>
<path fill-rule="evenodd" clip-rule="evenodd" d="M256.3 6.50001L260.4 0.600006H235L226.8 29.2H249.2L253.2 23.3H235.5L237.2 17.3H247.6L252.1 12.5H238.6L240.3 6.50001H256.3Z" fill="white"/>
<path fill-rule="evenodd" clip-rule="evenodd" d="M152.6 0.700012L146.1 21.9L140.5 0.700012H131.7L123.1 29.4H130.1L136.7 8.20001L142.4 29.4H151L159.6 0.700012H152.6Z" fill="white"/>
<path fill-rule="evenodd" clip-rule="evenodd" d="M283.1 0.700012L276.5 21.9L271 0.700012H262.2L253.6 29.4H260.5L267 8.20001L272.7 29.4H281.3L289.9 0.700012H283.1Z" fill="white"/>
<path fill-rule="evenodd" clip-rule="evenodd" d="M222.6 0.700006L207.7 20.7L204.2 0.600006H196.2L187.6 29.3H194.4L199.7 11.9L202.7 29.3H209.5L221.8 11.9L216.3 29.3H223.5L231.6 0.600006L222.6 0.700006Z" fill="white"/>
<path fill-rule="evenodd" clip-rule="evenodd" d="M116.3 0.699993C115.9 0.699993 115.4 0.599993 115 0.699993H102L93.3999 29.3H100.2L102.5 21.3H108L113 29.2H120.5L115.5 21.3C117.7 21 119.7 20.1 121.3 18.6C123.4 16.6 124.6 13.7 124.6 10.8C125 5.79999 121.3 1.19999 116.3 0.699993ZM117.1 13.9C116.3 14.6 115.4 15 114.4 15H104.6L107.1 6.79999H114.7C115.6 6.79999 116.6 7.09999 117.3 7.79999C118.2 8.49999 118.7 9.59999 118.7 10.7C118.6 11.9 118.1 13.1 117.1 13.9Z" fill="white"/>
<path fill-rule="evenodd" clip-rule="evenodd" d="M182.7 17L176.3 20.2L178.4 29.3H185.5L182.7 17Z" fill="url(#paint0_linear)"/>
<path fill-rule="evenodd" clip-rule="evenodd" d="M161.1 17.2L153.6 29.2H161.5L166.8 20.7L161.1 17.2Z" fill="url(#paint1_linear)"/>
<path fill-rule="evenodd" clip-rule="evenodd" d="M169.7 16.2L174 8.30001L175.4 16H182.4L178.4 0.600006H171.5L161.7 16L169.7 16.2Z" fill="url(#paint2_linear)"/>
</g>
<defs>
<linearGradient id="paint0_linear" x1="180.9" y1="17" x2="180.9" y2="29.3" gradientUnits="userSpaceOnUse">
<stop stop-color="#FBD575"/>
<stop offset="1" stop-color="#C6A156"/>
</linearGradient>
<linearGradient id="paint1_linear" x1="160.2" y1="17.2" x2="160.2" y2="29.2" gradientUnits="userSpaceOnUse">
<stop stop-color="#FBD575"/>
<stop offset="1" stop-color="#C6A156"/>
</linearGradient>
<linearGradient id="paint2_linear" x1="172.05" y1="0.600006" x2="172.05" y2="16.2" gradientUnits="userSpaceOnUse">
<stop stop-color="#FBD575"/>
<stop offset="1" stop-color="#C6A156"/>
</linearGradient>
<clipPath id="clip0">
<rect width="326.2" height="36.1" fill="white"/>
</clipPath>
</defs>
</svg>
