<svg viewBox="0 0 350 40" xmlns="http://www.w3.org/2000/svg"><path d="m1133.05002 135.812498 1.94998-6.378405h-36.12977l-1.76213 6.378405h14.41363l-7.80874 26.565164 3.2288 5.122338h3.22792l9.29835-31.687502zm-312.107573 0 2.007484-6.378405h-36.129949l-1.819982 6.378405h14.414073l-9.247637 31.687502h4.727491l4.718672-5.117311 7.747449-26.570191zm-.926572 4.698123c.646466-1.375658 1.44057-2.657301 2.380282-3.845017.939801-1.187804 2.009777-2.270215 3.211957-3.247499 1.204473-.977284 2.492818-1.81178 3.869359-2.503137 1.374335-.691798 2.814904-1.229167 4.317122-1.612637 1.50451-.383382 3.037684-.575117 4.601726-.575117 2.32957 0 4.449502.41716 6.359972 1.251745 1.908177.834321 3.503087 1.980761 4.780409 3.439146 1.277233 1.458385 2.188282 3.16098 2.728738 5.107963.540545 1.94707.61551 4.040544.225073 6.280773-.271375 1.488371-.727958 2.916505-1.374336 4.284932-.648582 1.368161-1.440569 2.649893-2.380282 3.845105s-2.011893 2.285208-3.214161 3.2699c-1.202268.984781-2.490526 1.826774-3.867066 2.525892s-2.819315 1.240191-4.33044 1.623837c-1.511125.383206-3.039801.574852-4.588497.574852-2.345004 0-4.469346-.420864-6.370908-1.262857-1.901562-.841817-3.492151-1.99205-4.769384-3.450435-1.279526-1.458385-2.183961-3.168476-2.717803-5.13054-.533841-1.961976-.60669-4.055449-.21396-6.280686.255853-1.488459.705909-2.920562 1.352199-4.29622zm63.44891-11.076528s-4.740456 15.716619-4.740456 15.718647c-.833438 2.779539-2.314224 5.439751-4.691949 7.177271-1.811339 1.322477-4.092403 2.041175-6.322666 1.809135-1.612549-.167923-3.216278-.863689-4.244362-2.117551-2.095678-2.553937-1.841943-7.146403-.941917-10.136374 1.303779-4.319151 3.754617-12.451128 3.754617-12.451128h-7.372445s-2.26122 7.088283-3.306854 10.937798c-1.074298 3.965314-1.800051 8.620222-.141112 12.522124 1.484579 3.49365 4.725199 6.243468 8.314364 7.383029 3.805417 1.207648 8.047574.677511 11.647675-1.046252 5.027088-2.406299 8.418168-6.794065 10.003906-12.056016l5.361345-17.740683zm97.534333 17.596573-6.785687 3.436324 2.241023 9.716744h7.577674zm-23.09462.197468-8.111251 12.9556h8.510772l5.704422-9.113846zm102.142502-11.415636 4.33652-6.378405h-27.17097l-8.87943 30.749641h24.0436l4.3277-6.36447h-19.0509l1.86002-6.429646h11.13809l4.82865-5.161585h-14.47537l1.85473-6.415535zm-111.29974-6.358825-6.853597 22.715736-5.927555-22.690601-9.424468-.044715-9.2763 30.749641h7.37218l6.860653-22.734345 6.148923 22.734345h9.200453l9.271892-30.730061zm140.11024 0-6.85448 22.715736-5.9249-22.690601-9.42447-.044715-9.27807 30.749641h7.37483l6.85801-22.734345 6.14804 22.734345h9.20398l9.26924-30.730061zm-64.88295-.01958-15.93852 21.515321-3.9467-21.515321h-8.541642l-9.276301 30.749641h7.372181l5.623283-18.634975 3.205869 18.634975h7.30163l13.07307-18.634975-5.90815 18.634975h7.73025l8.71803-30.749641zm-115.593046 0h-14.12259l-9.271891 30.729798h7.355424l2.555877-8.477435 5.965478.039246 5.294318 8.438189h8.091849l-5.332242-8.482727c2.303641-.286544 4.458234-1.284994 6.177145-2.887401l.180799-.168539c2.305405-2.147978 3.589517-5.186544 3.525135-8.336324 0 0 .771703-10.854807-10.419302-10.854807zm-81.811541 19.222704c.258146 1.183218.719139 2.205481 1.387565 3.066965.668426.86122 1.506715 1.537319 2.512662 2.028386s2.135366.736425 3.392844.736425c1.255184 0 2.479501-.245358 3.670833-.736425 1.191155-.491067 2.269862-1.167166 3.233917-2.028386.966259-.861484 1.786909-1.883747 2.464155-3.066965.675041-1.183129 1.133917-2.459128 1.37654-3.827466.240419-1.384478.233804-2.66418-.024253-3.839549-.258146-1.175104-.721343-2.193398-1.387565-3.054706-.668426-.861131-1.511125-1.537319-2.523686-2.028386-1.014767-.491067-2.150889-.736601-3.406073-.736601-1.255273 0-2.47518.245534-3.657604.736601-1.184629.491067-2.258926 1.167255-3.225186 2.028386-.963966.861308-1.786821 1.879602-2.461862 3.054706-.677246 1.175369-1.136122 2.455071-1.37654 3.839549-.242711 1.368338-.233892 2.644337.024253 3.827466zm140.588787-2.620965 4.603755-8.301046 1.429633 8.301046h7.577674l-4.275671-16.601739h-7.451556l-10.392843 16.601739zm-56.54416-2.413002-.180799.16854c-.790223.734836-1.817689 1.139473-2.898954 1.139473l-10.645962.159456 2.659947-8.817602h8.171223c1.012474 0 1.994079.363274 2.764017 1.022881.928688.797278 1.453446 1.910381 1.47814 3.134345.026459 1.224052-.452438 2.357793-1.347612 3.192907z" fill="#fff" fill-rule="evenodd" transform="translate(-785 -128)"/></svg>