<svg viewBox="0 0 22 18" xmlns="http://www.w3.org/2000/svg"><g fill="none" fill-rule="evenodd" transform="translate(0 -1.96)"><path d="m0 0h22v22h-22z" fill="#fff" opacity="0"/><path d="m22 4.17016317c-.8111888.35897436-1.6783217.6013986-2.5920746.71328671.9324009-.55944056 1.6503497-1.44522144 1.986014-2.4988345-.8717949.51748252-1.8368298.8951049-2.8671329 1.0955711-.8251748-.88111888-2-1.43123543-3.2960373-1.43123543-2.4941725 0-4.5128205 2.02331002-4.5128205 4.51748252 0 .35431235.0372961.6993007.1165501 1.03030303-3.75291372-.18648019-7.08158505-1.98601399-9.30536127-4.72261073-.38694639.66666667-.61072261 1.44522145-.61072261 2.27039627 0 1.56643357.7972028 2.95104896 2.00932401 3.76223777-.74125874-.01864802-1.44055944-.22377623-2.04662005-.56410257v.05594406c0 2.1911422 1.55710956 4.013986 3.62237762 4.4289044-.37762237.1025641-.77855478.1585082-1.18881119.1585082-.28904428 0-.57342657-.027972-.84848484-.0839161.57342657 1.7948718 2.24242424 3.1002331 4.21911422 3.1375291-1.54312355 1.2121213-3.4918415 1.934732-5.60839161 1.934732-.36363637 0-.72261073-.02331-1.07692308-.0652681 1.995338 1.2960373 4.36829837 2.0419581 6.91375291 2.0419581 8.30769229 0 12.84848489-6.8857809 12.84848489-12.85780891 0-.19580419-.004662-.39160839-.0139861-.58275058.8811189-.63869464 1.6456877-1.43589744 2.2517483-2.34032634z" fill="#1da1f2" fill-rule="nonzero"/></g></svg>