<svg width="24" height="24" viewBox="0 0 24 24" fill="none" xmlns="http://www.w3.org/2000/svg">
<path d="M16 21.5189C16 22.2092 16.5596 22.7689 17.25 22.7689C17.9404 22.7689 18.5 22.2092 18.5 21.5189H16ZM5.5 21.5189C5.5 22.2092 6.05964 22.7689 6.75 22.7689C7.44036 22.7689 8 22.2092 8 21.5189H5.5ZM16 19.1453V21.5189H18.5V19.1453H16ZM8 21.5189V19.1453H5.5V21.5189H8ZM6.75 19.1453C8 19.1453 8 19.146 8 19.1467C8 19.1469 8 19.1475 8 19.148C7.99999 19.1488 7.99999 19.1496 7.99999 19.1503C7.99998 19.1517 7.99997 19.1528 7.99997 19.1538C7.99995 19.1556 7.99993 19.1564 7.99993 19.1563C7.99994 19.1561 8.00002 19.1521 8.00031 19.1446C8.00091 19.1294 8.00237 19.1004 8.00582 19.0595C8.01277 18.9773 8.02752 18.8498 8.05847 18.6927C8.12128 18.3738 8.2451 17.9616 8.48241 17.56C8.90896 16.8382 9.80755 15.9529 12 15.9529V13.4529C8.94245 13.4529 7.21604 14.7889 6.33009 16.2882C5.91115 16.9972 5.70685 17.6955 5.6056 18.2096C5.55451 18.4689 5.52825 18.6885 5.51468 18.8492C5.50788 18.9298 5.50422 18.9962 5.50225 19.0462C5.50127 19.0712 5.5007 19.0921 5.50039 19.1087C5.50023 19.117 5.50013 19.1242 5.50007 19.1303C5.50005 19.1334 5.50003 19.1361 5.50002 19.1386C5.50001 19.1399 5.50001 19.1411 5.5 19.1422C5.5 19.1427 5.5 19.1435 5.5 19.1438C5.5 19.1445 5.5 19.1453 6.75 19.1453ZM12 15.9529C14.1924 15.9529 15.091 16.8382 15.5176 17.56C15.7549 17.9616 15.8787 18.3738 15.9415 18.6927C15.9725 18.8498 15.9872 18.9773 15.9942 19.0595C15.9976 19.1004 15.9991 19.1294 15.9997 19.1446C16 19.1521 16.0001 19.1561 16.0001 19.1563C16.0001 19.1564 16.0001 19.1556 16 19.1538C16 19.1528 16 19.1517 16 19.1503C16 19.1496 16 19.1488 16 19.148C16 19.1475 16 19.1469 16 19.1467C16 19.146 16 19.1453 17.25 19.1453C18.5 19.1453 18.5 19.1445 18.5 19.1438C18.5 19.1435 18.5 19.1427 18.5 19.1422C18.5 19.1411 18.5 19.1399 18.5 19.1386C18.5 19.1361 18.5 19.1334 18.4999 19.1303C18.4999 19.1242 18.4998 19.117 18.4996 19.1087C18.4993 19.0921 18.4987 19.0712 18.4977 19.0462C18.4958 18.9962 18.4921 18.9298 18.4853 18.8492C18.4718 18.6885 18.4455 18.4689 18.3944 18.2096C18.2932 17.6955 18.0888 16.9972 17.6699 16.2882C16.784 14.7889 15.0576 13.4529 12 13.4529V15.9529Z" fill="white"/>
<path d="M12 22.75C17.9371 22.75 22.75 17.9371 22.75 12C22.75 6.06294 17.9371 1.25 12 1.25C6.06294 1.25 1.25 6.06294 1.25 12C1.25 17.9371 6.06294 22.75 12 22.75Z" stroke="white" stroke-width="2.5"/>
<path d="M12 14.3499C13.7949 14.3499 15.25 12.8948 15.25 11.0999C15.25 9.30493 13.7949 7.84985 12 7.84985C10.2051 7.84985 8.75 9.30493 8.75 11.0999C8.75 12.8948 10.2051 14.3499 12 14.3499Z" stroke="white" stroke-width="2.5"/>
</svg>
