<svg width="139" height="145" viewBox="0 0 139 145" fill="none" xmlns="http://www.w3.org/2000/svg">
<path fill-rule="evenodd" clip-rule="evenodd" d="M39.9278 2.97012C40.1552 2.20536 40.5982 1.52231 41.2036 1.00269C42.0295 0.293202 43.101 -0.063512 44.1873 0.00930579C45.2737 0.0821236 46.288 0.578682 47.0119 1.39205C47.7357 2.20541 48.1111 3.27051 48.0573 4.35799C48.0035 5.44546 47.5248 6.46831 46.7242 7.20626L56.9086 24.5231C57.2071 24.3805 57.5447 24.3414 57.868 24.4121C58.1912 24.4828 58.4817 24.6592 58.6935 24.9134L60.4413 26.9487C66.2655 25.0665 72.4788 24.0496 78.9296 24.0496C112.104 24.0496 138.997 50.9427 138.997 84.1169C138.997 117.291 112.104 144.184 78.9296 144.184C45.7553 144.184 18.8623 117.291 18.8623 84.1169C18.8623 74.964 20.9095 66.2892 24.571 58.5255C24.5573 58.5101 24.5439 58.4944 24.5308 58.4784L22.4411 56.045C22.2218 55.7972 22.0913 55.4834 22.0703 55.1532C22.0492 54.823 22.1389 54.4952 22.325 54.2216L6.746 41.5374C6.00966 42.126 5.095 42.4465 4.15234 42.4464C3.20969 42.4462 2.29513 42.1254 1.55898 41.5366C0.822825 40.9478 0.308886 40.1261 0.101628 39.2065C-0.10563 38.2869 0.00612522 37.3241 0.418526 36.4765C0.830926 35.6288 1.51943 34.9467 2.37089 34.5422C3.22234 34.1377 4.18608 34.0349 5.1037 34.2506C6.02133 34.4664 6.83824 34.988 7.42017 35.7296C8.00211 36.4712 8.31444 37.3887 8.30583 38.3313L29.9083 40.2494L24.7717 25.3102C23.8744 25.4728 22.9486 25.3355 22.137 24.9196C21.3255 24.5037 20.6734 23.8322 20.2814 23.0089C19.8894 22.1856 19.7792 21.2561 19.9679 20.364C20.1566 19.4718 20.6337 18.6666 21.3255 18.0725C22.0173 17.4784 22.8854 17.1285 23.7958 17.0768C24.7063 17.0251 25.6084 17.2744 26.363 17.7863C27.1177 18.2983 27.6828 19.0443 27.9713 19.9094C28.2598 20.7744 28.2556 21.7104 27.9594 22.5728L41.9508 29.9079L43.3191 8.26373C42.5294 8.15062 41.7889 7.81235 41.1863 7.28941C40.5837 6.76646 40.1446 6.08098 39.9214 5.31498C39.6982 4.54897 39.7005 3.73489 39.9278 2.97012Z" fill="#0D7EE8"/>
</svg>
