<svg width="15" height="15" viewBox="0 0 15 15" fill="none" xmlns="http://www.w3.org/2000/svg">
<path d="M4.24722 10.8188C4.02197 10.5936 3.71731 10.4662 3.40026 10.4647C3.13267 10.4635 2.87476 10.552 2.66665 10.7137C2.6026 10.7635 2.51008 10.7644 2.45271 10.707L0.929222 9.18353C0.871854 9.12616 0.871854 9.03315 0.929222 8.97578L9.0314 0.873601C9.08877 0.816233 9.18178 0.816233 9.23915 0.873601L10.7626 2.39709C10.82 2.45446 10.8192 2.54698 10.7694 2.61103C10.6076 2.81914 10.5191 3.07705 10.5203 3.34463C10.5218 3.66169 10.6492 3.96635 10.8744 4.1916C11.0997 4.41684 11.4044 4.54422 11.7214 4.5457C11.989 4.54696 12.2469 4.45846 12.455 4.29668C12.5191 4.24689 12.6116 4.24604 12.669 4.30341L14.2251 5.85956C14.2825 5.91693 14.2825 6.00994 14.2251 6.06731L6.12293 14.1695C6.06556 14.2269 5.97255 14.2269 5.91518 14.1695L4.35903 12.6133C4.30166 12.556 4.3025 12.4634 4.35229 12.3994C4.41781 12.3151 4.47174 12.2221 4.51247 12.1228C4.57187 11.9781 4.60206 11.8228 4.60133 11.6658C4.60059 11.5088 4.56894 11.3532 4.50818 11.2079C4.44742 11.0626 4.35875 10.9304 4.24722 10.8188Z" fill="white"/>
</svg>
