<svg viewBox="0 0 22 18"  xmlns="http://www.w3.org/2000/svg"><g fill="none" fill-rule="evenodd" transform="translate(0 -1.96)"><path d="m0 0h22v22h-22z" fill="#fff" opacity="0"/><path d="m8.76381356 2.95364961 2.61255674-.0140305c1.1778708.00174918 4.7841042.02337175 7.3368199.21433323l.37069.0397885c.4858311.06087801 1.1902668.2216165 1.834246.92520188.4842943.51005947.7254381 1.49584503.8196094 1.98532643l.0490538.29035948.0780301.79845872c.0554026.64220028.1221375 1.59746377.1349305 2.58489606l.0002587 2.38136479-.0140179.6116458c-.0298802.9040076-.0956167 1.7302465-.143425 2.2465964l-.0676056.6292758c-.0524824.3276543-.2874519 1.596592-.8598593 2.2001047-.8372417.9163111-1.7750047.9198176-2.2034921.9742036l-.7466065.0499645c-1.1533291.0691898-2.4373123.1131538-3.5855565.1410716l-3.3993334.0481703-3.77600408-.0663222c-1.45052872-.036311-2.93688422-.0896228-3.69334979-.1649772-.48837383-.0952271-1.58956984-.0657995-2.42976809-.9811481-.43912162-.4639196-.67802578-1.3224375-.78850393-1.8432361l-.07837165-.4363689s-.1691703-1.4684786-.20676371-3.1012322l-.00734246-.6174357.00191027-2.05113168.01395964-.61116539c.02644983-.80299362.08111283-1.54481647.12637144-2.0623103l.07200233-.7338623s.21163095-1.58345055.87031338-2.28056758c.84026701-.914661 1.77582983-.90359128 2.20631111-.95522703l.99893629-.06436812c1.49471441-.08229169 3.17119671-.12012155 4.47400041-.13737849zm5.91188714 7.79447109-5.95062506-3.23881989.00178765 6.45378139z" fill="#fe2905"/></g></svg>